G04 Layer_Physical_Order=1*
G04 Layer_Color=255*
%FSLAX25Y25*%
%MOIN*%
G70*
G01*
G75*
G04:AMPARAMS|DCode=10|XSize=39.37mil|YSize=31.5mil|CornerRadius=7.87mil|HoleSize=0mil|Usage=FLASHONLY|Rotation=270.000|XOffset=0mil|YOffset=0mil|HoleType=Round|Shape=RoundedRectangle|*
%AMROUNDEDRECTD10*
21,1,0.03937,0.01575,0,0,270.0*
21,1,0.02362,0.03150,0,0,270.0*
1,1,0.01575,-0.00787,-0.01181*
1,1,0.01575,-0.00787,0.01181*
1,1,0.01575,0.00787,0.01181*
1,1,0.01575,0.00787,-0.01181*
%
%ADD10ROUNDEDRECTD10*%
G04:AMPARAMS|DCode=11|XSize=39.37mil|YSize=31.5mil|CornerRadius=7.87mil|HoleSize=0mil|Usage=FLASHONLY|Rotation=0.000|XOffset=0mil|YOffset=0mil|HoleType=Round|Shape=RoundedRectangle|*
%AMROUNDEDRECTD11*
21,1,0.03937,0.01575,0,0,0.0*
21,1,0.02362,0.03150,0,0,0.0*
1,1,0.01575,0.01181,-0.00787*
1,1,0.01575,-0.01181,-0.00787*
1,1,0.01575,-0.01181,0.00787*
1,1,0.01575,0.01181,0.00787*
%
%ADD11ROUNDEDRECTD11*%
G04:AMPARAMS|DCode=12|XSize=39.37mil|YSize=31.5mil|CornerRadius=7.87mil|HoleSize=0mil|Usage=FLASHONLY|Rotation=315.000|XOffset=0mil|YOffset=0mil|HoleType=Round|Shape=RoundedRectangle|*
%AMROUNDEDRECTD12*
21,1,0.03937,0.01575,0,0,315.0*
21,1,0.02362,0.03150,0,0,315.0*
1,1,0.01575,0.00278,-0.01392*
1,1,0.01575,-0.01392,0.00278*
1,1,0.01575,-0.00278,0.01392*
1,1,0.01575,0.01392,-0.00278*
%
%ADD12ROUNDEDRECTD12*%
G04:AMPARAMS|DCode=13|XSize=39.37mil|YSize=47.24mil|CornerRadius=9.84mil|HoleSize=0mil|Usage=FLASHONLY|Rotation=180.000|XOffset=0mil|YOffset=0mil|HoleType=Round|Shape=RoundedRectangle|*
%AMROUNDEDRECTD13*
21,1,0.03937,0.02756,0,0,180.0*
21,1,0.01968,0.04724,0,0,180.0*
1,1,0.01968,-0.00984,0.01378*
1,1,0.01968,0.00984,0.01378*
1,1,0.01968,0.00984,-0.01378*
1,1,0.01968,-0.00984,-0.01378*
%
%ADD13ROUNDEDRECTD13*%
%ADD14O,0.07874X0.17323*%
G04:AMPARAMS|DCode=15|XSize=55.12mil|YSize=41.34mil|CornerRadius=10.34mil|HoleSize=0mil|Usage=FLASHONLY|Rotation=180.000|XOffset=0mil|YOffset=0mil|HoleType=Round|Shape=RoundedRectangle|*
%AMROUNDEDRECTD15*
21,1,0.05512,0.02067,0,0,180.0*
21,1,0.03445,0.04134,0,0,180.0*
1,1,0.02067,-0.01722,0.01034*
1,1,0.02067,0.01722,0.01034*
1,1,0.02067,0.01722,-0.01034*
1,1,0.02067,-0.01722,-0.01034*
%
%ADD15ROUNDEDRECTD15*%
%ADD16R,0.04331X0.01181*%
%ADD17R,0.01181X0.04331*%
%ADD18R,0.11024X0.11024*%
G04:AMPARAMS|DCode=19|XSize=106.3mil|YSize=55.12mil|CornerRadius=13.78mil|HoleSize=0mil|Usage=FLASHONLY|Rotation=270.000|XOffset=0mil|YOffset=0mil|HoleType=Round|Shape=RoundedRectangle|*
%AMROUNDEDRECTD19*
21,1,0.10630,0.02756,0,0,270.0*
21,1,0.07874,0.05512,0,0,270.0*
1,1,0.02756,-0.01378,-0.03937*
1,1,0.02756,-0.01378,0.03937*
1,1,0.02756,0.01378,0.03937*
1,1,0.02756,0.01378,-0.03937*
%
%ADD19ROUNDEDRECTD19*%
G04:AMPARAMS|DCode=20|XSize=129.92mil|YSize=43.31mil|CornerRadius=10.83mil|HoleSize=0mil|Usage=FLASHONLY|Rotation=180.000|XOffset=0mil|YOffset=0mil|HoleType=Round|Shape=RoundedRectangle|*
%AMROUNDEDRECTD20*
21,1,0.12992,0.02165,0,0,180.0*
21,1,0.10827,0.04331,0,0,180.0*
1,1,0.02165,-0.05413,0.01083*
1,1,0.02165,0.05413,0.01083*
1,1,0.02165,0.05413,-0.01083*
1,1,0.02165,-0.05413,-0.01083*
%
%ADD20ROUNDEDRECTD20*%
G04:AMPARAMS|DCode=21|XSize=47.24mil|YSize=43.31mil|CornerRadius=10.83mil|HoleSize=0mil|Usage=FLASHONLY|Rotation=90.000|XOffset=0mil|YOffset=0mil|HoleType=Round|Shape=RoundedRectangle|*
%AMROUNDEDRECTD21*
21,1,0.04724,0.02165,0,0,90.0*
21,1,0.02559,0.04331,0,0,90.0*
1,1,0.02165,0.01083,0.01279*
1,1,0.02165,0.01083,-0.01279*
1,1,0.02165,-0.01083,-0.01279*
1,1,0.02165,-0.01083,0.01279*
%
%ADD21ROUNDEDRECTD21*%
G04:AMPARAMS|DCode=22|XSize=78.74mil|YSize=137.8mil|CornerRadius=19.68mil|HoleSize=0mil|Usage=FLASHONLY|Rotation=180.000|XOffset=0mil|YOffset=0mil|HoleType=Round|Shape=RoundedRectangle|*
%AMROUNDEDRECTD22*
21,1,0.07874,0.09842,0,0,180.0*
21,1,0.03937,0.13780,0,0,180.0*
1,1,0.03937,-0.01968,0.04921*
1,1,0.03937,0.01968,0.04921*
1,1,0.03937,0.01968,-0.04921*
1,1,0.03937,-0.01968,-0.04921*
%
%ADD22ROUNDEDRECTD22*%
G04:AMPARAMS|DCode=23|XSize=24.8mil|YSize=32.68mil|CornerRadius=6.2mil|HoleSize=0mil|Usage=FLASHONLY|Rotation=90.000|XOffset=0mil|YOffset=0mil|HoleType=Round|Shape=RoundedRectangle|*
%AMROUNDEDRECTD23*
21,1,0.02480,0.02028,0,0,90.0*
21,1,0.01240,0.03268,0,0,90.0*
1,1,0.01240,0.01014,0.00620*
1,1,0.01240,0.01014,-0.00620*
1,1,0.01240,-0.01014,-0.00620*
1,1,0.01240,-0.01014,0.00620*
%
%ADD23ROUNDEDRECTD23*%
%ADD24R,0.10630X0.04331*%
%ADD25R,0.43307X0.39370*%
G04:AMPARAMS|DCode=26|XSize=129.92mil|YSize=106.3mil|CornerRadius=26.57mil|HoleSize=0mil|Usage=FLASHONLY|Rotation=90.000|XOffset=0mil|YOffset=0mil|HoleType=Round|Shape=RoundedRectangle|*
%AMROUNDEDRECTD26*
21,1,0.12992,0.05315,0,0,90.0*
21,1,0.07677,0.10630,0,0,90.0*
1,1,0.05315,0.02657,0.03839*
1,1,0.05315,0.02657,-0.03839*
1,1,0.05315,-0.02657,-0.03839*
1,1,0.05315,-0.02657,0.03839*
%
%ADD26ROUNDEDRECTD26*%
%ADD27O,0.10630X0.03937*%
G04:AMPARAMS|DCode=28|XSize=72.83mil|YSize=57.09mil|CornerRadius=14.27mil|HoleSize=0mil|Usage=FLASHONLY|Rotation=180.000|XOffset=0mil|YOffset=0mil|HoleType=Round|Shape=RoundedRectangle|*
%AMROUNDEDRECTD28*
21,1,0.07283,0.02854,0,0,180.0*
21,1,0.04429,0.05709,0,0,180.0*
1,1,0.02854,-0.02215,0.01427*
1,1,0.02854,0.02215,0.01427*
1,1,0.02854,0.02215,-0.01427*
1,1,0.02854,-0.02215,-0.01427*
%
%ADD28ROUNDEDRECTD28*%
G04:AMPARAMS|DCode=29|XSize=72.83mil|YSize=57.09mil|CornerRadius=14.27mil|HoleSize=0mil|Usage=FLASHONLY|Rotation=270.000|XOffset=0mil|YOffset=0mil|HoleType=Round|Shape=RoundedRectangle|*
%AMROUNDEDRECTD29*
21,1,0.07283,0.02854,0,0,270.0*
21,1,0.04429,0.05709,0,0,270.0*
1,1,0.02854,-0.01427,-0.02215*
1,1,0.02854,-0.01427,0.02215*
1,1,0.02854,0.01427,0.02215*
1,1,0.02854,0.01427,-0.02215*
%
%ADD29ROUNDEDRECTD29*%
G04:AMPARAMS|DCode=30|XSize=53.15mil|YSize=43.31mil|CornerRadius=10.83mil|HoleSize=0mil|Usage=FLASHONLY|Rotation=270.000|XOffset=0mil|YOffset=0mil|HoleType=Round|Shape=RoundedRectangle|*
%AMROUNDEDRECTD30*
21,1,0.05315,0.02165,0,0,270.0*
21,1,0.03150,0.04331,0,0,270.0*
1,1,0.02165,-0.01083,-0.01575*
1,1,0.02165,-0.01083,0.01575*
1,1,0.02165,0.01083,0.01575*
1,1,0.02165,0.01083,-0.01575*
%
%ADD30ROUNDEDRECTD30*%
G04:AMPARAMS|DCode=31|XSize=55.12mil|YSize=41.34mil|CornerRadius=10.34mil|HoleSize=0mil|Usage=FLASHONLY|Rotation=90.000|XOffset=0mil|YOffset=0mil|HoleType=Round|Shape=RoundedRectangle|*
%AMROUNDEDRECTD31*
21,1,0.05512,0.02067,0,0,90.0*
21,1,0.03445,0.04134,0,0,90.0*
1,1,0.02067,0.01034,0.01722*
1,1,0.02067,0.01034,-0.01722*
1,1,0.02067,-0.01034,-0.01722*
1,1,0.02067,-0.01034,0.01722*
%
%ADD31ROUNDEDRECTD31*%
%ADD32C,0.00984*%
%ADD33C,0.01181*%
%ADD34C,0.01968*%
%ADD35C,0.15748*%
%ADD36C,0.02362*%
%ADD37C,0.03937*%
%ADD38C,0.03150*%
%ADD39C,0.01000*%
%ADD40C,0.02756*%
%ADD41C,0.04331*%
%ADD42C,0.01575*%
%ADD43C,0.04724*%
%ADD44C,0.05905*%
%ADD45O,0.15748X0.11811*%
%ADD46O,0.11811X0.15748*%
%ADD47C,0.03150*%
G36*
X470654Y346358D02*
X470154Y346206D01*
X470063Y346342D01*
X469460Y346745D01*
X468750Y346886D01*
X466683D01*
X465973Y346745D01*
X465370Y346342D01*
X464968Y345740D01*
X464826Y345029D01*
Y341585D01*
X464968Y340874D01*
X465370Y340272D01*
X465973Y339869D01*
X466683Y339728D01*
X468750D01*
X469460Y339869D01*
X470063Y340272D01*
X470168Y340429D01*
X470654D01*
Y337196D01*
X469587D01*
X468972Y337074D01*
X468451Y336726D01*
X468271Y336456D01*
X462476D01*
X462234Y336504D01*
X460207D01*
X459657Y336395D01*
X459192Y336084D01*
X458881Y335618D01*
X458772Y335069D01*
Y333829D01*
X458881Y333280D01*
X459192Y332814D01*
X459657Y332503D01*
X460207Y332394D01*
X462234D01*
X462476Y332442D01*
X468218D01*
X468451Y332093D01*
X468972Y331745D01*
X469587Y331623D01*
X470654D01*
Y328928D01*
X469587D01*
X468972Y328806D01*
X468451Y328458D01*
X468103Y327937D01*
X468059Y327716D01*
X462476D01*
X462234Y327764D01*
X460207D01*
X459657Y327655D01*
X459192Y327344D01*
X459038Y327114D01*
X456173D01*
X438297Y344989D01*
X437841Y345294D01*
X437303Y345401D01*
X402131D01*
X401923Y345901D01*
X406192Y350170D01*
X426373D01*
X426719Y349652D01*
X427240Y349304D01*
X427854Y349182D01*
X430217D01*
X430831Y349304D01*
X431226Y349568D01*
X435138D01*
X435906Y349721D01*
X436557Y350156D01*
X447288Y360887D01*
X470654D01*
Y346358D01*
D02*
G37*
G36*
X567379Y375234D02*
Y349705D01*
X566917Y349514D01*
X565922Y350509D01*
X565346Y350951D01*
X564676Y351228D01*
X563957Y351323D01*
X562122D01*
Y379784D01*
X562622Y379991D01*
X567379Y375234D01*
D02*
G37*
G36*
X561319Y351323D02*
X558274D01*
X558083Y351450D01*
X557776Y351512D01*
X547146D01*
X546838Y351450D01*
X546578Y351276D01*
X546404Y351016D01*
X546343Y350709D01*
Y346378D01*
X546404Y346071D01*
X546578Y345810D01*
X546838Y345636D01*
X547146Y345575D01*
X557776D01*
X558083Y345636D01*
X558274Y345764D01*
X561319D01*
X561319Y303173D01*
X545039D01*
X544320Y303079D01*
X543649Y302801D01*
X543074Y302359D01*
X533763Y293048D01*
X533321Y292473D01*
X533171Y292109D01*
X533121Y292076D01*
X532816Y291620D01*
X532709Y291083D01*
X532816Y290545D01*
X533121Y290089D01*
X533171Y290056D01*
X533321Y289693D01*
X533763Y289117D01*
X534339Y288675D01*
X535009Y288398D01*
X535728Y288303D01*
X536448Y288398D01*
X537118Y288675D01*
X537694Y289117D01*
X546191Y297614D01*
X561319D01*
Y261066D01*
X557889D01*
Y261181D01*
X557828Y261488D01*
X557654Y261749D01*
X557394Y261923D01*
X557087Y261984D01*
X518876D01*
X502467Y278393D01*
X502612Y278610D01*
X502673Y278917D01*
Y283248D01*
X502612Y283555D01*
X502438Y283816D01*
X502177Y283990D01*
X501870Y284051D01*
X491240D01*
X490933Y283990D01*
X490672Y283816D01*
X490498Y283555D01*
X490437Y283248D01*
Y282488D01*
X488431D01*
X488219Y282805D01*
X487437Y283328D01*
X486516Y283511D01*
X485594Y283328D01*
X484813Y282805D01*
X484291Y282024D01*
X484107Y281102D01*
X484291Y280181D01*
X484813Y279399D01*
X485594Y278877D01*
X486516Y278694D01*
X487437Y278877D01*
X488219Y279399D01*
X488405Y279678D01*
X490437D01*
Y278917D01*
X490498Y278610D01*
X490672Y278350D01*
X490933Y278176D01*
X491240Y278115D01*
X494884D01*
X512977Y260021D01*
Y221811D01*
X513038Y221504D01*
X513212Y221243D01*
X513472Y221069D01*
X513779Y221008D01*
X557087D01*
X557394Y221069D01*
X557654Y221243D01*
X557828Y221504D01*
X557889Y221811D01*
Y243659D01*
X561319D01*
X561319Y165655D01*
X558154Y162490D01*
X557693Y162682D01*
Y165354D01*
X557631Y165662D01*
X557457Y165922D01*
X557197Y166096D01*
X556890Y166157D01*
X516790D01*
X501882Y181065D01*
X501886Y181083D01*
Y185413D01*
X501824Y185721D01*
X501650Y185981D01*
X501390Y186155D01*
X501083Y186216D01*
X490453D01*
X490145Y186155D01*
X489885Y185981D01*
X489711Y185721D01*
X489650Y185413D01*
Y184572D01*
X484351D01*
X484085Y184971D01*
X483304Y185493D01*
X482382Y185676D01*
X481460Y185493D01*
X480679Y184971D01*
X480157Y184189D01*
X479973Y183268D01*
X480157Y182346D01*
X480679Y181565D01*
X481460Y181043D01*
X482382Y180859D01*
X483304Y181043D01*
X484085Y181565D01*
X484351Y181963D01*
X489650D01*
Y181083D01*
X489711Y180775D01*
X489885Y180515D01*
X490145Y180341D01*
X490453Y180280D01*
X494805D01*
X512780Y162305D01*
Y125984D01*
X512841Y125677D01*
X513015Y125417D01*
X513275Y125243D01*
X513583Y125181D01*
X556890D01*
X557197Y125243D01*
X557457Y125417D01*
X557631Y125677D01*
X557693Y125984D01*
Y138013D01*
X558477Y138433D01*
X559796Y139515D01*
X560857Y140576D01*
X561319Y140385D01*
Y122343D01*
X561319Y120925D01*
D01*
Y109941D01*
X321063D01*
Y123622D01*
X321850Y124409D01*
X323598D01*
Y120079D01*
X323693Y119359D01*
X323971Y118689D01*
X324412Y118113D01*
X324988Y117672D01*
X325658Y117394D01*
X326378Y117299D01*
X327097Y117394D01*
X327768Y117672D01*
X328344Y118113D01*
X328785Y118689D01*
X329063Y119359D01*
X329158Y120079D01*
Y124409D01*
X331004D01*
X332087Y123327D01*
Y117520D01*
X333366Y116240D01*
X348228D01*
X357480Y125492D01*
X367913D01*
Y118701D01*
X370374Y116240D01*
X429823D01*
X434646Y121063D01*
X471457D01*
Y125173D01*
X473386D01*
X473483Y125109D01*
X474213Y124963D01*
X485039D01*
X485769Y125109D01*
X486388Y125522D01*
X486801Y126140D01*
X486946Y126870D01*
Y129035D01*
X486801Y129765D01*
X486388Y130384D01*
X485769Y130797D01*
X485039Y130942D01*
X474213D01*
X473483Y130797D01*
X473386Y130732D01*
X471457D01*
Y149189D01*
X473386D01*
X473483Y149124D01*
X474213Y148979D01*
X478684D01*
X489945Y137718D01*
Y133504D01*
X490006Y133197D01*
X490180Y132936D01*
X490441Y132762D01*
X490748Y132701D01*
X501378D01*
X501685Y132762D01*
X501946Y132936D01*
X502120Y133197D01*
X502181Y133504D01*
Y137835D01*
X502120Y138142D01*
X501946Y138402D01*
X501685Y138576D01*
X501378Y138637D01*
X496888D01*
X486352Y149174D01*
X486388Y149538D01*
X486801Y150156D01*
X486946Y150886D01*
Y153051D01*
X486801Y153781D01*
X486388Y154399D01*
X485769Y154813D01*
X485039Y154958D01*
X474213D01*
X473483Y154813D01*
X473386Y154748D01*
X471457D01*
Y156859D01*
X472539D01*
X472575Y156866D01*
X485168D01*
X488389Y153645D01*
X488965Y153203D01*
X489635Y152925D01*
X490335Y152833D01*
X490441Y152762D01*
X490748Y152701D01*
X501378D01*
X501685Y152762D01*
X501946Y152936D01*
X502120Y153197D01*
X502181Y153504D01*
Y157835D01*
X502120Y158142D01*
X501946Y158402D01*
X501685Y158576D01*
X501378Y158637D01*
X491258D01*
X488284Y161611D01*
X487709Y162053D01*
X487038Y162331D01*
X486319Y162425D01*
X473558D01*
Y164732D01*
X473675Y164810D01*
X474023Y165330D01*
X474145Y165945D01*
Y168307D01*
X474023Y168921D01*
X473675Y169442D01*
X473154Y169790D01*
X472539Y169913D01*
X471457D01*
Y200268D01*
X472569D01*
X473118Y200377D01*
X473584Y200688D01*
X473804Y201018D01*
X476694D01*
X476817Y200833D01*
X477338Y200485D01*
X477953Y200363D01*
X479528D01*
X480142Y200485D01*
X480663Y200833D01*
X481011Y201354D01*
X481133Y201969D01*
Y204331D01*
X481011Y204945D01*
X480663Y205466D01*
X480142Y205814D01*
X479528Y205936D01*
X477953D01*
X477338Y205814D01*
X476817Y205466D01*
X476469Y204945D01*
X476347Y204331D01*
Y203627D01*
X473804D01*
X473584Y203958D01*
X473118Y204269D01*
X472569Y204378D01*
X471457D01*
Y209008D01*
X472569D01*
X473118Y209117D01*
X473327Y209257D01*
X476347D01*
Y209055D01*
X476469Y208441D01*
X476817Y207920D01*
X477338Y207572D01*
X477953Y207450D01*
X479528D01*
X480142Y207572D01*
X480663Y207920D01*
X481011Y208441D01*
X481133Y209055D01*
Y211417D01*
X481011Y212032D01*
X480663Y212553D01*
X480142Y212901D01*
X479528Y213023D01*
X477953D01*
X477338Y212901D01*
X477291Y212869D01*
X473327D01*
X473118Y213009D01*
X472569Y213118D01*
X471457D01*
Y221039D01*
X472894D01*
X472991Y220975D01*
X473720Y220830D01*
X479712D01*
X480217Y220729D01*
X480721Y220830D01*
X484547D01*
X485277Y220975D01*
X485895Y221388D01*
X486309Y222007D01*
X486454Y222736D01*
Y224902D01*
X486309Y225631D01*
X485895Y226250D01*
X485277Y226663D01*
X484547Y226808D01*
X473720D01*
X472991Y226663D01*
X472894Y226599D01*
X471457D01*
Y245055D01*
X472894D01*
X472991Y244990D01*
X473720Y244845D01*
X478192D01*
X490142Y232895D01*
Y229331D01*
X490203Y229024D01*
X490377Y228763D01*
X490638Y228589D01*
X490945Y228528D01*
X501575D01*
X501882Y228589D01*
X502142Y228763D01*
X502317Y229024D01*
X502378Y229331D01*
Y233661D01*
X502317Y233969D01*
X502142Y234229D01*
X501882Y234403D01*
X501575Y234464D01*
X496435D01*
X485860Y245040D01*
X485895Y245404D01*
X486309Y246022D01*
X486454Y246752D01*
Y248917D01*
X486309Y249647D01*
X485895Y250266D01*
X485277Y250679D01*
X484547Y250824D01*
X473720D01*
X472991Y250679D01*
X472894Y250614D01*
X471457D01*
Y253072D01*
X472031D01*
X472040Y253027D01*
X472388Y252506D01*
X472909Y252158D01*
X473524Y252036D01*
X475098D01*
X475713Y252158D01*
X476234Y252506D01*
X476582Y253027D01*
X476704Y253642D01*
Y256004D01*
X476582Y256618D01*
X476234Y257139D01*
X475713Y257487D01*
X475098Y257610D01*
X473524D01*
X472909Y257487D01*
X472388Y257139D01*
X472353Y257086D01*
X471457D01*
Y259911D01*
X471957Y259960D01*
X472040Y259540D01*
X472388Y259019D01*
X472909Y258671D01*
X473524Y258549D01*
X475098D01*
X475713Y258671D01*
X476234Y259019D01*
X476582Y259540D01*
X476704Y260155D01*
Y262517D01*
X476582Y263131D01*
X476234Y263652D01*
X475713Y264000D01*
X475098Y264122D01*
X474363D01*
X473247Y265238D01*
X472596Y265673D01*
X471828Y265826D01*
X471457D01*
Y290366D01*
X471683D01*
X472232Y290475D01*
X472441Y290615D01*
X476476D01*
X476817Y290105D01*
X477338Y289757D01*
X477953Y289634D01*
X479528D01*
X480142Y289757D01*
X480663Y290105D01*
X481011Y290626D01*
X481133Y291240D01*
Y293602D01*
X481011Y294217D01*
X480663Y294738D01*
X480142Y295086D01*
X479528Y295208D01*
X477953D01*
X477338Y295086D01*
X476817Y294738D01*
X476477Y294228D01*
X472441D01*
X472232Y294367D01*
X471683Y294476D01*
X471457D01*
Y299106D01*
X471683D01*
X472232Y299216D01*
X472441Y299355D01*
X476456D01*
X476469Y299287D01*
X476817Y298766D01*
X477338Y298418D01*
X477953Y298296D01*
X479528D01*
X480142Y298418D01*
X480663Y298766D01*
X481011Y299287D01*
X481133Y299902D01*
Y302264D01*
X481011Y302878D01*
X480663Y303399D01*
X480142Y303747D01*
X479528Y303869D01*
X477953D01*
X477338Y303747D01*
X476817Y303399D01*
X476529Y302968D01*
X472441D01*
X472232Y303107D01*
X471683Y303217D01*
X471457D01*
Y323414D01*
X471776Y323477D01*
X472297Y323825D01*
X472645Y324346D01*
X472767Y324961D01*
Y327323D01*
X472645Y327937D01*
X472297Y328458D01*
X471776Y328806D01*
X471457Y328870D01*
Y331681D01*
X471776Y331745D01*
X472297Y332093D01*
X472645Y332614D01*
X472767Y333228D01*
Y335591D01*
X472645Y336205D01*
X472297Y336726D01*
X471776Y337074D01*
X471457Y337138D01*
Y340429D01*
X507471D01*
X511322Y336578D01*
X511898Y336136D01*
X512568Y335858D01*
X513287Y335764D01*
X514007Y335858D01*
X514677Y336136D01*
X515253Y336578D01*
X515695Y337154D01*
X515972Y337824D01*
X516067Y338543D01*
X515972Y339263D01*
X515695Y339933D01*
X515253Y340509D01*
X510588Y345174D01*
X510012Y345616D01*
X509341Y345894D01*
X508622Y345988D01*
X471457D01*
Y360887D01*
X506791D01*
X507559Y361039D01*
X508211Y361474D01*
X515166Y368429D01*
X558169D01*
X558476Y368491D01*
X558737Y368665D01*
X558911Y368925D01*
X558972Y369232D01*
Y380214D01*
X561319D01*
Y351323D01*
D02*
G37*
G36*
X429055Y321717D02*
X428415Y321290D01*
X427893Y320508D01*
X427710Y319587D01*
X427893Y318665D01*
X428415Y317884D01*
X429196Y317361D01*
X430118Y317178D01*
X430470Y317248D01*
X458733Y288985D01*
Y258957D01*
X458840Y258419D01*
X459144Y257963D01*
X463022Y254085D01*
X463478Y253781D01*
X464016Y253674D01*
X465534D01*
X465688Y253444D01*
X466154Y253133D01*
X466703Y253024D01*
X468730D01*
X468972Y253072D01*
X470654D01*
Y250614D01*
X469232D01*
X469135Y250679D01*
X468405Y250824D01*
X457579D01*
X457019Y250713D01*
X453582D01*
Y256429D01*
X453800Y256755D01*
X453983Y257677D01*
X453800Y258599D01*
X453278Y259380D01*
X452496Y259902D01*
X451575Y260086D01*
X450653Y259902D01*
X449872Y259380D01*
X449350Y258599D01*
X449166Y257677D01*
X449350Y256755D01*
X449568Y256429D01*
Y250123D01*
X449304Y249729D01*
X449243Y249421D01*
X449167Y249323D01*
X448890Y248653D01*
X448795Y247933D01*
X448890Y247214D01*
X449167Y246543D01*
X449243Y246445D01*
X449304Y246137D01*
X449652Y245617D01*
X450173Y245269D01*
X450787Y245146D01*
X452362D01*
X452398Y245153D01*
X456605D01*
X456849Y244990D01*
X457579Y244845D01*
X468405D01*
X469135Y244990D01*
X469232Y245055D01*
X470654D01*
Y226599D01*
X469232D01*
X469135Y226663D01*
X468405Y226808D01*
X457579D01*
X456849Y226663D01*
X456230Y226250D01*
X455947Y225826D01*
X452486D01*
X452302Y225948D01*
Y230709D01*
X452150Y231477D01*
X451715Y232128D01*
X446711Y237131D01*
X446060Y237566D01*
X445292Y237719D01*
X441544D01*
X441149Y237982D01*
X440534Y238105D01*
X438172D01*
X437558Y237982D01*
X437163Y237719D01*
X435198D01*
X434487Y238430D01*
X434410Y238815D01*
X433888Y239597D01*
X433107Y240119D01*
X432185Y240302D01*
X431263Y240119D01*
X430482Y239597D01*
X429960Y238815D01*
X429777Y237894D01*
X429960Y236972D01*
X430482Y236191D01*
X431263Y235669D01*
X431648Y235592D01*
X432948Y234292D01*
X433599Y233857D01*
X434367Y233704D01*
X437163D01*
X437558Y233441D01*
X438172Y233318D01*
X440534D01*
X441149Y233441D01*
X441544Y233704D01*
X444461D01*
X448288Y229877D01*
Y225948D01*
X447979Y225742D01*
X447631Y225221D01*
X447508Y224606D01*
Y223031D01*
X447631Y222417D01*
X447979Y221896D01*
X448500Y221548D01*
X449114Y221426D01*
X451476D01*
X452091Y221548D01*
X452486Y221812D01*
X455947D01*
X456230Y221388D01*
X456849Y220975D01*
X457579Y220830D01*
X468405D01*
X469135Y220975D01*
X469232Y221039D01*
X470654D01*
Y213118D01*
X470541D01*
X469992Y213009D01*
X469527Y212698D01*
X469215Y212232D01*
X469106Y211683D01*
Y210443D01*
X469215Y209894D01*
X469527Y209428D01*
X469992Y209117D01*
X470541Y209008D01*
X470654D01*
Y204378D01*
X470541D01*
X469992Y204269D01*
X469527Y203958D01*
X469373Y203728D01*
X434480D01*
X413905Y224302D01*
Y295866D01*
X413798Y296404D01*
X413493Y296860D01*
X390566Y319787D01*
X390758Y320249D01*
X392839D01*
X403529Y309559D01*
X403408Y308948D01*
X403530Y308333D01*
X403878Y307812D01*
X405548Y306142D01*
X406069Y305794D01*
X406684Y305672D01*
X407295Y305793D01*
X407880Y305207D01*
X408336Y304903D01*
X408874Y304796D01*
X415618D01*
X415817Y304498D01*
X416598Y303976D01*
X417520Y303792D01*
X418441Y303976D01*
X419158Y304454D01*
X419658Y304318D01*
Y268635D01*
X419360Y268435D01*
X418838Y267654D01*
X418654Y266732D01*
X418838Y265811D01*
X419360Y265029D01*
X420141Y264507D01*
X421063Y264324D01*
X421985Y264507D01*
X422766Y265029D01*
X423288Y265811D01*
X423471Y266732D01*
X423288Y267654D01*
X422766Y268435D01*
X422468Y268635D01*
Y309646D01*
X422361Y310183D01*
X422056Y310639D01*
X412805Y319891D01*
X412349Y320196D01*
X411811Y320303D01*
X404421D01*
X403006Y321717D01*
X403213Y322217D01*
X428903D01*
X429055Y321717D01*
D02*
G37*
G36*
X419658Y309064D02*
Y308084D01*
X419158Y307947D01*
X418441Y308426D01*
X417520Y308609D01*
X416598Y308426D01*
X415817Y307904D01*
X415618Y307606D01*
X409721D01*
X409337Y308056D01*
X409403Y308391D01*
X409281Y309005D01*
X408933Y309526D01*
X407263Y311197D01*
X406742Y311545D01*
X406127Y311667D01*
X405516Y311545D01*
X404774Y312288D01*
X404863Y312579D01*
X405000Y312768D01*
X407821D01*
X407845Y312648D01*
X408193Y312127D01*
X409864Y310457D01*
X410384Y310109D01*
X410999Y309987D01*
X411613Y310109D01*
X412134Y310457D01*
X413248Y311571D01*
X413596Y312091D01*
X413718Y312706D01*
X413596Y313320D01*
X413248Y313841D01*
X411578Y315512D01*
X411057Y315860D01*
X410442Y315982D01*
X409828Y315860D01*
X409406Y315578D01*
X405503D01*
X404089Y316993D01*
X404296Y317493D01*
X411229D01*
X419658Y309064D01*
D02*
G37*
G36*
X456310Y300168D02*
X456766Y299863D01*
X457303Y299757D01*
X468487D01*
X468641Y299527D01*
X469106Y299216D01*
X469656Y299106D01*
X470654D01*
Y294476D01*
X469656D01*
X469106Y294367D01*
X468641Y294056D01*
X468330Y293590D01*
X468220Y293041D01*
Y291801D01*
X468330Y291252D01*
X468641Y290787D01*
X469106Y290475D01*
X469656Y290366D01*
X470654D01*
Y265826D01*
X468972D01*
X468730Y265874D01*
X466703D01*
X466154Y265765D01*
X465688Y265454D01*
X465377Y264988D01*
X465268Y264439D01*
Y263199D01*
X465377Y262650D01*
X465688Y262184D01*
X466154Y261873D01*
X466703Y261764D01*
X468730D01*
X468972Y261812D01*
X470996D01*
X471577Y261232D01*
X471390Y260711D01*
X471378Y260710D01*
X471265Y260675D01*
X471149Y260652D01*
X471116Y260630D01*
X471078Y260619D01*
X470987Y260544D01*
X470889Y260478D01*
X470867Y260445D01*
X470836Y260420D01*
X470781Y260316D01*
X470715Y260218D01*
X470707Y260179D01*
X470688Y260144D01*
X470677Y260026D01*
X470654Y259911D01*
Y257086D01*
X468972D01*
X468730Y257134D01*
X466703D01*
X466154Y257025D01*
X465688Y256714D01*
X465534Y256484D01*
X464598D01*
X461543Y259539D01*
Y289567D01*
X461436Y290105D01*
X461131Y290560D01*
X432457Y319235D01*
X432527Y319587D01*
X432343Y320508D01*
X431821Y321290D01*
X431181Y321717D01*
X431333Y322217D01*
X434261D01*
X456310Y300168D01*
D02*
G37*
G36*
X454597Y324715D02*
X455053Y324411D01*
X455590Y324304D01*
X459038D01*
X459192Y324074D01*
X459657Y323763D01*
X460207Y323654D01*
X462234D01*
X462476Y323702D01*
X468636D01*
X468972Y323477D01*
X469587Y323355D01*
X470654D01*
Y303217D01*
X469656D01*
X469106Y303107D01*
X468641Y302796D01*
X468487Y302566D01*
X457885D01*
X435836Y324616D01*
X435380Y324920D01*
X434842Y325027D01*
X403239D01*
X400606Y327661D01*
X400797Y328123D01*
X402128D01*
X402408Y327703D01*
X402929Y327355D01*
X403543Y327233D01*
X405905D01*
X406520Y327355D01*
X407041Y327703D01*
X407387Y328221D01*
X412093D01*
X412210Y327939D01*
X412714Y327281D01*
X413372Y326776D01*
X414138Y326459D01*
X414961Y326351D01*
X415783Y326459D01*
X416549Y326776D01*
X417207Y327281D01*
X417712Y327939D01*
X418029Y328705D01*
X418137Y329528D01*
X418029Y330350D01*
X417712Y331116D01*
X417207Y331774D01*
X416549Y332279D01*
X415783Y332596D01*
X414961Y332704D01*
X414138Y332596D01*
X413372Y332279D01*
X412714Y331774D01*
X412210Y331116D01*
X412174Y331031D01*
X407387D01*
X407041Y331549D01*
X406520Y331897D01*
X405905Y332019D01*
X403709D01*
X403490Y332455D01*
X403485Y332502D01*
X404318Y333335D01*
X405905D01*
X406520Y333457D01*
X407041Y333806D01*
X407389Y334327D01*
X407511Y334941D01*
Y336516D01*
X407389Y337130D01*
X407041Y337651D01*
X406520Y337999D01*
X405905Y338121D01*
X403543D01*
X402929Y337999D01*
X402408Y337651D01*
X402060Y337130D01*
X401938Y336516D01*
Y334941D01*
X401940Y334931D01*
X399910Y332901D01*
X396466D01*
X396275Y333363D01*
X402846Y339934D01*
X423040D01*
X428713Y334261D01*
Y330052D01*
X428415Y329853D01*
X427893Y329071D01*
X427710Y328150D01*
X427893Y327228D01*
X428415Y326447D01*
X429196Y325924D01*
X430118Y325741D01*
X431040Y325924D01*
X431821Y326447D01*
X432343Y327228D01*
X432527Y328150D01*
X432343Y329071D01*
X431821Y329853D01*
X431523Y330052D01*
Y334842D01*
X431416Y335380D01*
X431112Y335836D01*
X424856Y342091D01*
X425064Y342591D01*
X436721D01*
X454597Y324715D01*
D02*
G37*
G36*
X438753Y402075D02*
Y400596D01*
X438235Y400249D01*
X437887Y399729D01*
X437764Y399114D01*
Y396752D01*
X437887Y396137D01*
X438235Y395617D01*
X438753Y395271D01*
Y392349D01*
X438657Y392330D01*
X438136Y391982D01*
X437788Y391461D01*
X437666Y390846D01*
Y389438D01*
X437230Y389219D01*
X437183Y389213D01*
X436743Y389653D01*
Y390846D01*
X436621Y391461D01*
X436273Y391982D01*
X435752Y392330D01*
X435460Y392388D01*
Y395271D01*
X435978Y395617D01*
X436326Y396137D01*
X436448Y396752D01*
Y399114D01*
X436326Y399729D01*
X435978Y400249D01*
X435457Y400598D01*
X434842Y400720D01*
X433268D01*
X433257Y400718D01*
X427371Y406604D01*
X427290Y406658D01*
X427442Y407158D01*
X429626D01*
X433670Y407158D01*
X438753Y402075D01*
D02*
G37*
G36*
X594488Y413386D02*
Y112205D01*
X592520Y110236D01*
X562122D01*
Y120925D01*
X562122Y122343D01*
Y140385D01*
X562061Y140692D01*
X561887Y140953D01*
X561836Y141556D01*
X582237Y161956D01*
X582237Y161956D01*
X583319Y163275D01*
X584124Y164780D01*
X584619Y166412D01*
X584786Y168110D01*
X584786Y168110D01*
Y232677D01*
X584619Y234375D01*
X584124Y236008D01*
X583319Y237512D01*
X582237Y238831D01*
X580918Y239914D01*
X579413Y240718D01*
X577781Y241213D01*
X576083Y241381D01*
X574385Y241213D01*
X572752Y240718D01*
X571247Y239914D01*
X569929Y238831D01*
X568846Y237512D01*
X568042Y236008D01*
X567547Y234375D01*
X567379Y232677D01*
Y171715D01*
X562584Y166920D01*
X562122Y167111D01*
X562122Y243659D01*
X576083D01*
X577781Y243826D01*
X579413Y244321D01*
X580918Y245126D01*
X582237Y246208D01*
X583319Y247527D01*
X584124Y249032D01*
X584619Y250664D01*
X584786Y252362D01*
X584619Y254060D01*
X584124Y255693D01*
X583319Y257197D01*
X582237Y258516D01*
X580918Y259599D01*
X579413Y260403D01*
X577781Y260898D01*
X576083Y261066D01*
X562122D01*
Y297614D01*
X562992D01*
X563712Y297709D01*
X564382Y297986D01*
X564958Y298428D01*
X565399Y299004D01*
X565677Y299674D01*
X565772Y300394D01*
X565677Y301113D01*
X565399Y301783D01*
X564958Y302359D01*
X564382Y302801D01*
X563712Y303079D01*
X562992Y303173D01*
X562122D01*
X562122Y345764D01*
X562805D01*
X567379Y341190D01*
Y336417D01*
Y272047D01*
X567547Y270349D01*
X568042Y268717D01*
X568846Y267212D01*
X569929Y265893D01*
X571247Y264811D01*
X572752Y264006D01*
X574385Y263511D01*
X576083Y263344D01*
X577781Y263511D01*
X579413Y264006D01*
X580918Y264811D01*
X582237Y265893D01*
X583319Y267212D01*
X584124Y268717D01*
X584619Y270349D01*
X584786Y272047D01*
Y336417D01*
Y348917D01*
Y378839D01*
X584619Y380537D01*
X584124Y382169D01*
X583319Y383674D01*
X582237Y384993D01*
X582237Y384993D01*
X572158Y395072D01*
X570839Y396154D01*
X569335Y396958D01*
X567702Y397453D01*
X566004Y397621D01*
X562122D01*
Y410827D01*
X562061Y411134D01*
X561887Y411395D01*
X561626Y411568D01*
X561319Y411630D01*
X487498D01*
X487162Y412130D01*
X487236Y412500D01*
Y414862D01*
X487215Y414968D01*
X487532Y415354D01*
X592520D01*
X594488Y413386D01*
D02*
G37*
G36*
X468037Y414854D02*
X468034Y414850D01*
X467925Y414301D01*
Y413061D01*
X468034Y412512D01*
X468345Y412046D01*
X468811Y411735D01*
X469360Y411626D01*
X470442D01*
X470715Y411134D01*
X470654Y410827D01*
Y406996D01*
X469360D01*
X468811Y406887D01*
X468345Y406576D01*
X468179Y406326D01*
X463024D01*
X462825Y406624D01*
X462044Y407146D01*
X461122Y407330D01*
X460200Y407146D01*
X459419Y406624D01*
X458897Y405843D01*
X458714Y404921D01*
X458897Y404000D01*
X459419Y403218D01*
X460200Y402696D01*
X461122Y402513D01*
X462044Y402696D01*
X462825Y403218D01*
X463024Y403516D01*
X468205D01*
X468345Y403306D01*
X468811Y402995D01*
X469360Y402886D01*
X470654D01*
Y398351D01*
X470183Y398351D01*
X468149D01*
X468052Y398415D01*
X467323Y398560D01*
X456496D01*
X455766Y398415D01*
X455670Y398351D01*
X450098D01*
X449379Y398256D01*
X448709Y397978D01*
X448133Y397536D01*
X447691Y396961D01*
X447413Y396290D01*
X447319Y395571D01*
X447413Y394851D01*
X447691Y394181D01*
X448133Y393605D01*
X448709Y393164D01*
X449379Y392886D01*
X450098Y392791D01*
X455670D01*
X455766Y392727D01*
X456496Y392582D01*
X467323D01*
X468052Y392727D01*
X468149Y392791D01*
X470654Y392791D01*
Y374335D01*
X468149D01*
X468052Y374399D01*
X467323Y374545D01*
X456496D01*
X455766Y374399D01*
X455148Y373986D01*
X455067Y373865D01*
X452007D01*
Y377052D01*
X452049Y377084D01*
X452554Y377742D01*
X452872Y378508D01*
X452980Y379331D01*
X452872Y380153D01*
X452554Y380919D01*
X452049Y381577D01*
X451392Y382082D01*
X450625Y382399D01*
X449803Y382507D01*
X448981Y382399D01*
X448215Y382082D01*
X447557Y381577D01*
X447052Y380919D01*
X446735Y380153D01*
X446626Y379331D01*
X446735Y378508D01*
X447052Y377742D01*
X447557Y377084D01*
X447993Y376750D01*
Y373647D01*
X447729Y373252D01*
X447607Y372638D01*
Y371534D01*
X447591Y371457D01*
X447607Y371379D01*
Y370276D01*
X447729Y369661D01*
X448077Y369140D01*
X448598Y368792D01*
X449213Y368670D01*
X450787D01*
X451402Y368792D01*
X451785Y369048D01*
X455262D01*
X455766Y368711D01*
X456496Y368566D01*
X467323D01*
X468052Y368711D01*
X468149Y368775D01*
X470654D01*
Y364901D01*
X446457D01*
X445689Y364748D01*
X445038Y364313D01*
X434306Y353582D01*
X431226D01*
X430831Y353846D01*
X430217Y353968D01*
X427854D01*
X427240Y353846D01*
X426719Y353498D01*
X426373Y352980D01*
X405969D01*
X405762Y353480D01*
X409047Y356764D01*
X426274D01*
X426371Y356275D01*
X426719Y355754D01*
X427240Y355406D01*
X427854Y355284D01*
X430217D01*
X430831Y355406D01*
X431352Y355754D01*
X431700Y356275D01*
X431822Y356890D01*
Y358465D01*
X431700Y359079D01*
X431352Y359600D01*
X430831Y359948D01*
X430217Y360070D01*
X427854D01*
X427240Y359948D01*
X426719Y359600D01*
X426702Y359574D01*
X409360D01*
X409169Y360036D01*
X414263Y365130D01*
X428413D01*
X428612Y364832D01*
X429393Y364310D01*
X430315Y364127D01*
X431237Y364310D01*
X432018Y364832D01*
X432540Y365614D01*
X432723Y366535D01*
X432540Y367457D01*
X432018Y368238D01*
X431237Y368761D01*
X430315Y368944D01*
X429393Y368761D01*
X428612Y368238D01*
X428413Y367940D01*
X413681D01*
X413392Y367883D01*
X413145Y368344D01*
X414874Y370072D01*
X414931Y370069D01*
X415712Y369469D01*
X416622Y369092D01*
X417598Y368964D01*
X418575Y369092D01*
X419485Y369469D01*
X420266Y370069D01*
X420865Y370850D01*
X421242Y371760D01*
X421371Y372736D01*
X421242Y373713D01*
X420865Y374622D01*
X420381Y375254D01*
X420582Y375754D01*
X423400D01*
X423418Y375665D01*
X423766Y375144D01*
X424287Y374796D01*
X424902Y374674D01*
X427264D01*
X427878Y374796D01*
X428399Y375144D01*
X428747Y375665D01*
X428869Y376279D01*
Y377854D01*
X428747Y378469D01*
X428399Y378990D01*
X427878Y379338D01*
X427264Y379460D01*
X424902D01*
X424287Y379338D01*
X423766Y378990D01*
X423418Y378469D01*
X423400Y378380D01*
X411929D01*
X411427Y378280D01*
X411001Y377995D01*
X409148Y376143D01*
X408575Y376380D01*
X407598Y376509D01*
X406622Y376380D01*
X405712Y376003D01*
X404931Y375404D01*
X404331Y374622D01*
X403955Y373713D01*
X403826Y372736D01*
X403955Y371760D01*
X404331Y370850D01*
X404931Y370069D01*
X405712Y369469D01*
X406622Y369092D01*
X407598Y368964D01*
X408575Y369092D01*
X409485Y369469D01*
X409938Y369817D01*
X410269Y369441D01*
X401583Y360755D01*
X388278D01*
X388127Y361071D01*
X388104Y361255D01*
X396141Y369292D01*
X396622Y369092D01*
X397598Y368964D01*
X398575Y369092D01*
X399485Y369469D01*
X400266Y370069D01*
X400865Y370850D01*
X401242Y371760D01*
X401371Y372736D01*
X401242Y373713D01*
X400865Y374622D01*
X400266Y375404D01*
X399485Y376003D01*
X398575Y376380D01*
X397598Y376509D01*
X396622Y376380D01*
X395712Y376003D01*
X394931Y375404D01*
X394331Y374622D01*
X393954Y373713D01*
X393826Y372736D01*
X393954Y371760D01*
X394154Y371279D01*
X386485Y363610D01*
X379035D01*
X378992Y363601D01*
X378746Y364062D01*
X381997Y367314D01*
X382302Y367769D01*
X382409Y368307D01*
Y386624D01*
X382785Y386954D01*
X383366Y386877D01*
X384343Y387006D01*
X385252Y387383D01*
X386034Y387982D01*
X386633Y388763D01*
X387010Y389673D01*
X387139Y390650D01*
X387010Y391626D01*
X386633Y392536D01*
X386034Y393317D01*
X385252Y393917D01*
X384343Y394293D01*
X383366Y394422D01*
X382390Y394293D01*
X381480Y393917D01*
X380699Y393317D01*
X380099Y392536D01*
X379722Y391626D01*
X379594Y390650D01*
X379722Y389673D01*
X379933Y389165D01*
X379706Y388825D01*
X379599Y388287D01*
Y379591D01*
X379099Y379384D01*
X374771Y383712D01*
Y387183D01*
X375252Y387383D01*
X376034Y387982D01*
X376633Y388763D01*
X377010Y389673D01*
X377139Y390650D01*
X377010Y391626D01*
X376633Y392536D01*
X376034Y393317D01*
X375252Y393917D01*
X374342Y394293D01*
X373366Y394422D01*
X372390Y394293D01*
X371480Y393917D01*
X370699Y393317D01*
X370099Y392536D01*
X369722Y391626D01*
X369594Y390650D01*
X369722Y389673D01*
X370099Y388763D01*
X370699Y387982D01*
X371480Y387383D01*
X371961Y387183D01*
Y383130D01*
X372068Y382592D01*
X372373Y382137D01*
X377040Y377469D01*
Y370759D01*
X371946Y365665D01*
X371484Y365856D01*
Y367627D01*
X373074Y369217D01*
X373425Y369147D01*
X374347Y369330D01*
X375128Y369852D01*
X375650Y370633D01*
X375834Y371555D01*
X375650Y372477D01*
X375128Y373258D01*
X374347Y373780D01*
X373425Y373964D01*
X372503Y373780D01*
X371722Y373258D01*
X371200Y372477D01*
X371017Y371555D01*
X371087Y371203D01*
X369977Y370094D01*
X369515Y370285D01*
Y374913D01*
X369685Y375052D01*
X370607Y375236D01*
X371388Y375758D01*
X371910Y376539D01*
X372094Y377461D01*
X371910Y378382D01*
X371388Y379164D01*
X370607Y379686D01*
X369685Y379869D01*
X368763Y379686D01*
X367982Y379164D01*
X367460Y378382D01*
X367277Y377461D01*
X367347Y377109D01*
X367117Y376879D01*
X366812Y376424D01*
X366705Y375886D01*
Y373632D01*
X366243Y373440D01*
X362476Y377207D01*
X362546Y377559D01*
X362363Y378481D01*
X361841Y379262D01*
X361059Y379784D01*
X360138Y379967D01*
X359216Y379784D01*
X358435Y379262D01*
X357913Y378481D01*
X357729Y377559D01*
X357913Y376637D01*
X358435Y375856D01*
X359216Y375334D01*
X360138Y375151D01*
X360489Y375220D01*
X364737Y370973D01*
Y367037D01*
X364275Y366846D01*
X363657Y367463D01*
X363727Y367815D01*
X363544Y368737D01*
X363022Y369518D01*
X362241Y370040D01*
X361319Y370223D01*
X360397Y370040D01*
X359616Y369518D01*
X359094Y368737D01*
X358910Y367815D01*
X359094Y366893D01*
X359616Y366112D01*
X360397Y365590D01*
X361319Y365406D01*
X361670Y365476D01*
X362768Y364379D01*
Y361722D01*
X362306Y361531D01*
X356523Y367314D01*
Y393217D01*
X360523Y397217D01*
X400894D01*
X413652Y384459D01*
X413650Y384449D01*
Y382874D01*
X413772Y382260D01*
X414120Y381739D01*
X414641Y381391D01*
X415256Y381268D01*
X417618D01*
X418233Y381391D01*
X418753Y381739D01*
X418831Y381855D01*
X423401D01*
X423418Y381767D01*
X423766Y381246D01*
X424287Y380898D01*
X424902Y380776D01*
X427264D01*
X427878Y380898D01*
X428399Y381246D01*
X428747Y381767D01*
X428869Y382382D01*
Y383957D01*
X428747Y384571D01*
X428399Y385092D01*
X427889Y385433D01*
Y390158D01*
X428399Y390498D01*
X428747Y391019D01*
X428869Y391634D01*
Y393209D01*
X428747Y393823D01*
X428399Y394344D01*
X427878Y394692D01*
X427264Y394814D01*
X424902D01*
X424287Y394692D01*
X423766Y394344D01*
X423418Y393823D01*
X423296Y393209D01*
Y391634D01*
X423418Y391019D01*
X423766Y390498D01*
X424276Y390158D01*
Y385468D01*
X418831D01*
X418753Y385584D01*
X418233Y385932D01*
X417618Y386054D01*
X416031D01*
X415197Y386888D01*
X415203Y386935D01*
X415422Y387371D01*
X417618D01*
X418233Y387493D01*
X418753Y387841D01*
X419101Y388362D01*
X419224Y388976D01*
Y390551D01*
X419101Y391166D01*
X418753Y391687D01*
X418233Y392035D01*
X417842Y392112D01*
Y394062D01*
X418140Y394262D01*
X418662Y395043D01*
X418846Y395965D01*
X418662Y396886D01*
X418140Y397668D01*
X417359Y398190D01*
X416437Y398373D01*
X415515Y398190D01*
X414734Y397668D01*
X414212Y396886D01*
X414029Y395965D01*
X414212Y395043D01*
X414734Y394262D01*
X415032Y394062D01*
Y392112D01*
X414641Y392035D01*
X414120Y391687D01*
X413772Y391166D01*
X413650Y390551D01*
Y389142D01*
X413214Y388923D01*
X413168Y388918D01*
X402470Y399616D01*
X402014Y399920D01*
X401476Y400027D01*
X359941D01*
X359403Y399920D01*
X358947Y399616D01*
X354125Y394793D01*
X353820Y394337D01*
X353713Y393799D01*
Y366732D01*
X353746Y366566D01*
X353286Y366319D01*
X351700Y367905D01*
Y397646D01*
X358259Y404205D01*
X425796D01*
X431662Y398339D01*
Y396752D01*
X431784Y396137D01*
X432132Y395617D01*
X432650Y395271D01*
Y392427D01*
X432161Y392330D01*
X431640Y391982D01*
X431292Y391461D01*
X431170Y390846D01*
Y389272D01*
X431292Y388657D01*
X431640Y388136D01*
X432161Y387788D01*
X432776Y387666D01*
X434757D01*
X435669Y386754D01*
X435422Y386293D01*
X435138Y386350D01*
X432776D01*
X432161Y386227D01*
X431640Y385879D01*
X431292Y385359D01*
X431170Y384744D01*
Y383169D01*
X431292Y382555D01*
X431640Y382034D01*
X432161Y381686D01*
X432552Y381608D01*
Y374705D01*
X432659Y374167D01*
X432963Y373711D01*
X436211Y370463D01*
X436667Y370159D01*
X437205Y370052D01*
X441549D01*
X441627Y369661D01*
X441975Y369140D01*
X442496Y368792D01*
X443110Y368670D01*
X444685D01*
X445299Y368792D01*
X445820Y369140D01*
X446169Y369661D01*
X446291Y370276D01*
Y372638D01*
X446169Y373252D01*
X445820Y373773D01*
X445299Y374121D01*
X444685Y374243D01*
X443110D01*
X442496Y374121D01*
X441975Y373773D01*
X441627Y373252D01*
X441549Y372862D01*
X437787D01*
X435362Y375287D01*
Y381608D01*
X435752Y381686D01*
X436273Y382034D01*
X436621Y382555D01*
X436743Y383169D01*
Y384744D01*
X436687Y385029D01*
X437148Y385275D01*
X437668Y384754D01*
X437666Y384744D01*
Y383169D01*
X437788Y382555D01*
X438136Y382034D01*
X438657Y381686D01*
X439272Y381564D01*
X441634D01*
X442248Y381686D01*
X442769Y382034D01*
X443117Y382555D01*
X443239Y383169D01*
Y384744D01*
X443117Y385359D01*
X442769Y385879D01*
X442248Y386227D01*
X441634Y386350D01*
X440047D01*
X439213Y387183D01*
X439219Y387230D01*
X439437Y387666D01*
X441634D01*
X442248Y387788D01*
X442769Y388136D01*
X443117Y388657D01*
X443239Y389272D01*
Y390846D01*
X443117Y391461D01*
X442769Y391982D01*
X442248Y392330D01*
X441634Y392452D01*
X441562D01*
Y395271D01*
X442080Y395617D01*
X442428Y396137D01*
X442551Y396752D01*
Y399114D01*
X442428Y399729D01*
X442080Y400249D01*
X441562Y400596D01*
Y402658D01*
X441456Y403195D01*
X441151Y403651D01*
X435245Y409556D01*
X434790Y409861D01*
X434252Y409968D01*
X429626Y409968D01*
X352264D01*
X351726Y409861D01*
X351270Y409556D01*
X340936Y399222D01*
X340631Y398766D01*
X340524Y398228D01*
Y373989D01*
X340341Y373913D01*
X339683Y373408D01*
X339178Y372750D01*
X338861Y371984D01*
X338752Y371161D01*
X338861Y370339D01*
X339178Y369573D01*
X339683Y368915D01*
X340341Y368410D01*
X341107Y368093D01*
X341929Y367985D01*
X342751Y368093D01*
X342935Y368169D01*
X349502Y361601D01*
X349256Y361140D01*
X349213Y361149D01*
X311122D01*
X310584Y361042D01*
X310129Y360737D01*
X305598Y356207D01*
X305413Y356243D01*
X304569Y356075D01*
X303852Y355597D01*
X303824Y355554D01*
X300197D01*
X299740Y355463D01*
X299353Y355781D01*
Y367717D01*
Y375689D01*
X299185Y376534D01*
X298707Y377250D01*
X297990Y377729D01*
X297146Y377897D01*
X296301Y377729D01*
X295585Y377250D01*
X295106Y376534D01*
X294938Y375689D01*
Y367717D01*
Y350492D01*
X295106Y349647D01*
X295585Y348931D01*
X295643Y348892D01*
X295683Y348833D01*
X296399Y348354D01*
X297244Y348186D01*
X298089Y348354D01*
X298805Y348833D01*
X301111Y351139D01*
X303206D01*
Y346063D01*
X303374Y345218D01*
X303852Y344502D01*
X304569Y344023D01*
X305413Y343855D01*
X306258Y344023D01*
X306975Y344502D01*
X307453Y345218D01*
X307621Y346063D01*
Y354035D01*
X307585Y354220D01*
X308645Y355280D01*
X309105Y355033D01*
X309024Y354626D01*
Y352264D01*
X309146Y351649D01*
X309494Y351128D01*
X310016Y350780D01*
X310630Y350658D01*
X312205D01*
X312819Y350780D01*
X313340Y351128D01*
X313489Y351351D01*
X325698D01*
X335812Y341237D01*
X335620Y340775D01*
X323763D01*
X323744Y340870D01*
X323396Y341391D01*
X322875Y341739D01*
X322261Y341862D01*
X319899D01*
X319284Y341739D01*
X318763Y341391D01*
X318415Y340870D01*
X318293Y340256D01*
Y338681D01*
X318415Y338067D01*
X318763Y337546D01*
X319284Y337198D01*
X319514Y337152D01*
X319620Y336621D01*
X319065Y336250D01*
X318543Y335469D01*
X318359Y334547D01*
X318543Y333626D01*
X318732Y333342D01*
X318496Y332901D01*
X317462D01*
X317284Y333796D01*
X316762Y334577D01*
X315981Y335099D01*
X315059Y335282D01*
X314137Y335099D01*
X313356Y334577D01*
X312834Y333796D01*
X312651Y332874D01*
X312834Y331952D01*
X313181Y331433D01*
X312914Y330932D01*
X268504D01*
X267966Y330826D01*
X267511Y330521D01*
X267045Y330055D01*
X264419D01*
X263709Y329914D01*
X263106Y329512D01*
X262704Y328909D01*
X262563Y328199D01*
Y326132D01*
X262704Y325421D01*
X263106Y324819D01*
X263709Y324417D01*
X264419Y324275D01*
X264829D01*
Y321950D01*
X264317Y321608D01*
X263969Y321087D01*
X263847Y320472D01*
Y318110D01*
X263969Y317496D01*
X264317Y316975D01*
X264838Y316627D01*
X265124Y316570D01*
Y314100D01*
X265035Y314082D01*
X264514Y313734D01*
X264166Y313213D01*
X264044Y312598D01*
Y310236D01*
X264166Y309622D01*
X264514Y309101D01*
X265035Y308753D01*
X265650Y308631D01*
X267224D01*
X267839Y308753D01*
X268360Y309101D01*
X268708Y309622D01*
X268830Y310236D01*
Y312598D01*
X268708Y313213D01*
X268360Y313734D01*
X267839Y314082D01*
X267750Y314100D01*
Y316699D01*
X268163Y316975D01*
X268511Y317496D01*
X268633Y318110D01*
Y320472D01*
X268511Y321087D01*
X268163Y321608D01*
X267642Y321956D01*
X267454Y321993D01*
Y324275D01*
X267864D01*
X268575Y324417D01*
X269177Y324819D01*
X269579Y325421D01*
X269721Y326132D01*
Y328123D01*
X287293D01*
X287485Y327661D01*
X283455Y323631D01*
X283151Y323175D01*
X283044Y322638D01*
Y274396D01*
X282653Y274318D01*
X282132Y273970D01*
X281784Y273449D01*
X281767Y273360D01*
X279685D01*
X279619Y273693D01*
X279216Y274295D01*
X278614Y274697D01*
X277904Y274839D01*
X275147D01*
X258112Y291875D01*
Y296161D01*
X257949Y297395D01*
X257473Y298544D01*
X256716Y299531D01*
X255729Y300288D01*
X254580Y300764D01*
X253346Y300927D01*
X252113Y300764D01*
X250964Y300288D01*
X249977Y299531D01*
X249220Y298544D01*
X248744Y297395D01*
X248581Y296161D01*
Y286713D01*
X248744Y285479D01*
X249220Y284330D01*
X249977Y283343D01*
X250964Y282586D01*
X252113Y282110D01*
X253346Y281947D01*
X254580Y282110D01*
X255729Y282586D01*
X256716Y283343D01*
X257473Y284330D01*
X257949Y285479D01*
X258112Y286713D01*
Y287509D01*
X258574Y287700D01*
X272716Y273557D01*
X272602Y272982D01*
Y270915D01*
X272743Y270205D01*
X273146Y269603D01*
X273748Y269200D01*
X274459Y269059D01*
X277904D01*
X278614Y269200D01*
X279216Y269603D01*
X279619Y270205D01*
X279724Y270735D01*
X281767D01*
X281784Y270645D01*
X282132Y270124D01*
X282653Y269776D01*
X283268Y269654D01*
X285630D01*
X286244Y269776D01*
X286765Y270124D01*
X287113Y270645D01*
X287236Y271260D01*
Y272835D01*
X287113Y273449D01*
X286765Y273970D01*
X286244Y274318D01*
X285854Y274396D01*
Y322056D01*
X289952Y326154D01*
X306979D01*
X307159Y325717D01*
X306836Y325372D01*
X306496Y325440D01*
X305574Y325257D01*
X304793Y324734D01*
X304271Y323953D01*
X304088Y323031D01*
X304271Y322110D01*
X304793Y321328D01*
X305574Y320806D01*
X306496Y320623D01*
X307418Y320806D01*
X308199Y321328D01*
X308721Y322110D01*
X308905Y323031D01*
X308835Y323383D01*
X309637Y324186D01*
X352067D01*
X352125Y324197D01*
X354232D01*
X354539Y324258D01*
X354800Y324432D01*
X354974Y324693D01*
X355035Y325000D01*
Y326181D01*
X354974Y326488D01*
X354916Y326575D01*
X354974Y326661D01*
X355035Y326969D01*
Y328150D01*
X354974Y328457D01*
X354916Y328543D01*
X354974Y328630D01*
X355035Y328937D01*
Y330118D01*
X354974Y330425D01*
X354916Y330512D01*
X354974Y330598D01*
X355035Y330906D01*
Y332087D01*
X354974Y332394D01*
X354916Y332480D01*
X354974Y332567D01*
X355035Y332874D01*
Y334055D01*
X354974Y334362D01*
X354916Y334449D01*
X354974Y334535D01*
X355035Y334842D01*
Y336024D01*
X354974Y336331D01*
X354916Y336417D01*
X354974Y336504D01*
X355035Y336811D01*
Y337992D01*
X354974Y338299D01*
X354916Y338386D01*
X354974Y338472D01*
X355035Y338779D01*
Y339961D01*
X354974Y340268D01*
X354916Y340354D01*
X354974Y340441D01*
X355035Y340748D01*
Y341929D01*
X354974Y342236D01*
X354800Y342497D01*
X354539Y342671D01*
X354232Y342732D01*
X352125D01*
X352067Y342743D01*
X338279D01*
X327273Y353749D01*
X326817Y354054D01*
X326279Y354161D01*
X313810D01*
Y354626D01*
X313688Y355240D01*
X313340Y355761D01*
X312819Y356109D01*
X312205Y356232D01*
X310630D01*
X310223Y356151D01*
X309976Y356611D01*
X311704Y358339D01*
X348631D01*
X354894Y352076D01*
Y345669D01*
X355001Y345132D01*
X355306Y344676D01*
X355762Y344371D01*
X356299Y344264D01*
X356374Y344279D01*
X356874Y343869D01*
Y343504D01*
X356935Y343197D01*
X357109Y342936D01*
X357370Y342762D01*
X357677Y342701D01*
X358858D01*
X359166Y342762D01*
X359252Y342820D01*
X359338Y342762D01*
X359646Y342701D01*
X360827D01*
X361134Y342762D01*
X361221Y342820D01*
X361307Y342762D01*
X361614Y342701D01*
X362795D01*
X363103Y342762D01*
X363189Y342820D01*
X363276Y342762D01*
X363583Y342701D01*
X364764D01*
X365071Y342762D01*
X365158Y342820D01*
X365244Y342762D01*
X365551Y342701D01*
X366732D01*
X367039Y342762D01*
X367126Y342820D01*
X367213Y342762D01*
X367520Y342701D01*
X368701D01*
X369008Y342762D01*
X369094Y342820D01*
X369181Y342762D01*
X369488Y342701D01*
X370669D01*
X370976Y342762D01*
X371063Y342820D01*
X371149Y342762D01*
X371457Y342701D01*
X372638D01*
X372945Y342762D01*
X373031Y342820D01*
X373118Y342762D01*
X373425Y342701D01*
X374606D01*
X374914Y342762D01*
X375000Y342820D01*
X375086Y342762D01*
X375394Y342701D01*
X376575D01*
X376882Y342762D01*
X376969Y342820D01*
X377055Y342762D01*
X377362Y342701D01*
X378543D01*
X378851Y342762D01*
X379111Y342936D01*
X379285Y343197D01*
X379346Y343504D01*
Y345611D01*
X379358Y345669D01*
Y353453D01*
X383850Y357945D01*
X402165D01*
X402455Y358003D01*
X402701Y357542D01*
X387902Y342743D01*
X382382D01*
X382324Y342732D01*
X380217D01*
X379909Y342671D01*
X379649Y342497D01*
X379475Y342236D01*
X379414Y341929D01*
Y340748D01*
X379475Y340441D01*
X379533Y340354D01*
X379475Y340268D01*
X379414Y339961D01*
Y338779D01*
X379475Y338472D01*
X379533Y338386D01*
X379475Y338299D01*
X379414Y337992D01*
Y336811D01*
X379475Y336504D01*
X379533Y336417D01*
X379475Y336331D01*
X379414Y336024D01*
Y334842D01*
X379475Y334535D01*
X379533Y334449D01*
X379475Y334362D01*
X379414Y334055D01*
Y332874D01*
X379475Y332567D01*
X379533Y332480D01*
X379475Y332394D01*
X379414Y332087D01*
Y330906D01*
X379475Y330598D01*
X379533Y330512D01*
X379475Y330425D01*
X379414Y330118D01*
Y328937D01*
X379475Y328630D01*
X379533Y328543D01*
X379475Y328457D01*
X379414Y328150D01*
Y326969D01*
X379475Y326661D01*
X379533Y326575D01*
X379475Y326488D01*
X379414Y326181D01*
Y325000D01*
X379475Y324693D01*
X379533Y324606D01*
X379475Y324520D01*
X379414Y324213D01*
Y323031D01*
X379475Y322724D01*
X379533Y322638D01*
X379475Y322551D01*
X379414Y322244D01*
Y321063D01*
X379475Y320756D01*
X379533Y320669D01*
X379475Y320583D01*
X379414Y320276D01*
Y319094D01*
X379475Y318787D01*
X379649Y318527D01*
X379909Y318353D01*
X380217Y318292D01*
X382324D01*
X382382Y318280D01*
X388099D01*
X411095Y295284D01*
Y223721D01*
X411202Y223183D01*
X411507Y222727D01*
X432904Y201329D01*
X433360Y201025D01*
X433898Y200918D01*
X469373D01*
X469527Y200688D01*
X469992Y200377D01*
X470541Y200268D01*
X470654D01*
Y169913D01*
X470666Y169853D01*
X470350Y169790D01*
X469829Y169442D01*
X469481Y168921D01*
X469359Y168307D01*
Y165945D01*
X469481Y165330D01*
X469829Y164810D01*
X469946Y164732D01*
Y162040D01*
X469829Y161962D01*
X469481Y161441D01*
X469420Y161134D01*
X469345Y161036D01*
X469067Y160365D01*
X468972Y159646D01*
X469067Y158926D01*
X469345Y158256D01*
X469420Y158158D01*
X469481Y157850D01*
X469829Y157329D01*
X470350Y156981D01*
X470666Y156918D01*
X470654Y156859D01*
Y154748D01*
X469724D01*
X469627Y154813D01*
X468898Y154958D01*
X458071D01*
X457341Y154813D01*
X456723Y154399D01*
X456309Y153781D01*
X456210Y153281D01*
X454382D01*
X394029Y213634D01*
Y251373D01*
X394512Y251469D01*
X395033Y251817D01*
X395381Y252338D01*
X395503Y252953D01*
Y254528D01*
X395381Y255142D01*
X395033Y255663D01*
X394512Y256011D01*
X393898Y256133D01*
X391535D01*
X391170Y256061D01*
X386755Y260475D01*
X386329Y260760D01*
X385827Y260860D01*
X385536D01*
X385440Y261343D01*
X385092Y261864D01*
X384571Y262212D01*
X383957Y262334D01*
X382382D01*
X381767Y262212D01*
X381246Y261864D01*
X380898Y261343D01*
X380776Y260728D01*
Y258366D01*
X380898Y257752D01*
X381246Y257231D01*
X381767Y256883D01*
X382382Y256761D01*
X383957D01*
X384571Y256883D01*
X385092Y257231D01*
X385287Y257523D01*
X385887Y257631D01*
X389930Y253588D01*
Y252953D01*
X390052Y252338D01*
X390400Y251817D01*
X390921Y251469D01*
X391404Y251373D01*
Y213091D01*
X391504Y212588D01*
X391788Y212162D01*
X452910Y151040D01*
X453336Y150756D01*
X453839Y150656D01*
X456210D01*
X456309Y150156D01*
X456723Y149538D01*
X457341Y149124D01*
X458071Y148979D01*
X468898D01*
X469627Y149124D01*
X469724Y149189D01*
X470654D01*
Y130732D01*
X469724D01*
X469627Y130797D01*
X468898Y130942D01*
X458071D01*
X457341Y130797D01*
X456723Y130384D01*
X456573Y130160D01*
X452897D01*
X452461Y130247D01*
X450098D01*
X449484Y130125D01*
X448963Y129777D01*
X448615Y129256D01*
X448493Y128642D01*
Y128190D01*
X445936Y125633D01*
X425225D01*
X414130Y136729D01*
X414175Y136877D01*
X414304Y138189D01*
Y142126D01*
X414175Y143438D01*
X413792Y144700D01*
X413171Y145862D01*
X412334Y146881D01*
X411315Y147718D01*
X410152Y148339D01*
X408891Y148722D01*
X407579Y148851D01*
X406267Y148722D01*
X405005Y148339D01*
X403912Y147755D01*
X398127Y153540D01*
X397551Y153982D01*
X396881Y154260D01*
X396161Y154355D01*
X366043D01*
X365324Y154260D01*
X364653Y153982D01*
X364078Y153540D01*
X359845Y149308D01*
X359404Y148732D01*
X359126Y148062D01*
X359031Y147343D01*
Y144020D01*
X352889D01*
X344720Y152189D01*
Y152854D01*
X344582Y153546D01*
X344191Y154132D01*
X343605Y154523D01*
X342913Y154661D01*
X340945D01*
X340254Y154523D01*
X339668Y154132D01*
X339276Y153546D01*
X339139Y152854D01*
Y150098D01*
X339276Y149407D01*
X339668Y148821D01*
X340254Y148430D01*
X340707Y148339D01*
X347806Y141240D01*
X342043Y135476D01*
X340074D01*
X339210Y135305D01*
X338477Y134815D01*
X337988Y134083D01*
X337816Y133219D01*
Y130364D01*
X337988Y129500D01*
X338477Y128768D01*
X339210Y128278D01*
X340074Y128106D01*
X344503D01*
X345367Y128278D01*
X346100Y128768D01*
X346589Y129500D01*
X346761Y130364D01*
Y132333D01*
X352889Y138461D01*
X365158D01*
X365877Y138555D01*
X366547Y138833D01*
X367123Y139275D01*
X367565Y139850D01*
X367843Y140521D01*
X367937Y141240D01*
X367843Y141960D01*
X367565Y142630D01*
X367123Y143206D01*
X366547Y143647D01*
X365877Y143925D01*
X365158Y144020D01*
X364591D01*
Y146191D01*
X367195Y148795D01*
X395010D01*
X400927Y142878D01*
X400853Y142126D01*
Y138189D01*
X400983Y136877D01*
X401365Y135615D01*
X401987Y134453D01*
X402823Y133433D01*
X403842Y132597D01*
X405005Y131976D01*
X406267Y131593D01*
X407579Y131464D01*
X408891Y131593D01*
X410152Y131976D01*
X411315Y132597D01*
X411700Y132913D01*
X422750Y121864D01*
X423466Y121386D01*
X424311Y121217D01*
X433011D01*
X433203Y120756D01*
X429490Y117043D01*
X370707D01*
X368716Y119033D01*
Y125492D01*
X368655Y125799D01*
X368481Y126060D01*
X368221Y126234D01*
X367913Y126295D01*
X357480D01*
X357269Y126253D01*
X357034Y126536D01*
X356974Y126665D01*
X359714Y129405D01*
X385039D01*
X385759Y129500D01*
X386429Y129778D01*
X387005Y130219D01*
X387447Y130795D01*
X387724Y131466D01*
X387819Y132185D01*
X387724Y132905D01*
X387447Y133575D01*
X387005Y134151D01*
X386429Y134592D01*
X385759Y134870D01*
X385039Y134965D01*
X358563D01*
X357844Y134870D01*
X357173Y134592D01*
X356597Y134151D01*
X345994Y123547D01*
X342289D01*
X341569Y123453D01*
X340899Y123175D01*
X340323Y122733D01*
X339881Y122158D01*
X339604Y121487D01*
X339509Y120768D01*
X339604Y120048D01*
X339881Y119378D01*
X340323Y118802D01*
X340899Y118360D01*
X341569Y118083D01*
X342289Y117988D01*
X347146D01*
X347865Y118083D01*
X348535Y118360D01*
X348808Y117955D01*
X347896Y117043D01*
X333699D01*
X332889Y117852D01*
Y123327D01*
X332889Y123327D01*
X332828Y123634D01*
X332654Y123895D01*
X332654Y123895D01*
X331572Y124977D01*
X331311Y125151D01*
X331004Y125212D01*
X329158D01*
Y131890D01*
X329063Y132609D01*
X328785Y133280D01*
X328344Y133855D01*
X314509Y147690D01*
X314476Y147859D01*
X314127Y148379D01*
X313607Y148728D01*
X313299Y148789D01*
X313201Y148864D01*
X312530Y149142D01*
X311811Y149236D01*
X301547D01*
X301356Y149698D01*
X351813Y200156D01*
X352248Y200807D01*
X352401Y201575D01*
Y259449D01*
X352248Y260217D01*
X351813Y260868D01*
X346389Y266292D01*
Y267028D01*
X346267Y267642D01*
X345919Y268163D01*
X345398Y268511D01*
X344783Y268633D01*
X342421D01*
X341807Y268511D01*
X341286Y268163D01*
X340938Y267642D01*
X340816Y267028D01*
Y265453D01*
X340938Y264838D01*
X341286Y264317D01*
X341807Y263969D01*
X342421Y263847D01*
X343157D01*
X348387Y258617D01*
Y202406D01*
X296314Y150334D01*
X293348D01*
Y153051D01*
X293185Y154285D01*
X292709Y155434D01*
X291952Y156421D01*
X290965Y157178D01*
X289816Y157654D01*
X288583Y157816D01*
X287349Y157654D01*
X286200Y157178D01*
X285213Y156421D01*
X284456Y155434D01*
X283980Y154285D01*
X283818Y153051D01*
Y147563D01*
X256300D01*
X255789Y148520D01*
X254952Y149539D01*
X253933Y150375D01*
X252770Y150997D01*
X251509Y151380D01*
X250197Y151509D01*
X246260D01*
X244948Y151380D01*
X243686Y150997D01*
X242524Y150375D01*
X241504Y149539D01*
X240668Y148520D01*
X240047Y147357D01*
X239664Y146096D01*
X239534Y144783D01*
X239664Y143471D01*
X240047Y142210D01*
X240668Y141047D01*
X241504Y140028D01*
X242524Y139192D01*
X243686Y138570D01*
X244948Y138187D01*
X246260Y138058D01*
X250197D01*
X251509Y138187D01*
X252770Y138570D01*
X253933Y139192D01*
X254952Y140028D01*
X255789Y141047D01*
X256300Y142004D01*
X284131D01*
X284456Y141220D01*
X285213Y140233D01*
X286200Y139476D01*
X287349Y139000D01*
X288583Y138837D01*
X289816Y139000D01*
X290965Y139476D01*
X291952Y140233D01*
X292709Y141220D01*
X293185Y142369D01*
X293348Y143602D01*
Y143677D01*
X310660D01*
X323598Y130738D01*
Y125212D01*
X321850D01*
X321543Y125151D01*
X321283Y124977D01*
X320495Y124190D01*
X320321Y123929D01*
X320260Y123622D01*
Y110236D01*
X236221D01*
X234252Y112205D01*
Y349155D01*
X234752Y349402D01*
X234929Y349266D01*
X235508Y349026D01*
Y348917D01*
X235602Y348198D01*
X235880Y347528D01*
X236322Y346952D01*
X249570Y333704D01*
Y333366D01*
X249715Y332636D01*
X250128Y332018D01*
X250552Y331735D01*
Y313935D01*
X250128Y313651D01*
X249715Y313033D01*
X249570Y312303D01*
Y309744D01*
X249715Y309014D01*
X250128Y308396D01*
X250747Y307982D01*
X251476Y307837D01*
X253642D01*
X254371Y307982D01*
X254990Y308396D01*
X255403Y309014D01*
X255548Y309744D01*
Y312303D01*
X255403Y313033D01*
X254990Y313651D01*
X254566Y313935D01*
Y331735D01*
X254990Y332018D01*
X255403Y332636D01*
X255542Y333333D01*
X262618D01*
X262704Y332902D01*
X263106Y332299D01*
X263709Y331897D01*
X264419Y331756D01*
X267864D01*
X268575Y331897D01*
X269177Y332299D01*
X269579Y332902D01*
X269665Y333333D01*
X282579D01*
X283081Y333433D01*
X283356Y333617D01*
X283858Y333517D01*
X284780Y333700D01*
X285561Y334222D01*
X286083Y335003D01*
X286267Y335925D01*
X286175Y336386D01*
X288437Y338648D01*
X302731D01*
X302749Y338559D01*
X303097Y338038D01*
X303618Y337690D01*
X304232Y337568D01*
X306594D01*
X307209Y337690D01*
X307730Y338038D01*
X308078Y338559D01*
X308200Y339173D01*
Y340748D01*
X308176Y340867D01*
X311666Y344357D01*
X318378D01*
X318415Y344169D01*
X318763Y343648D01*
X319284Y343300D01*
X319899Y343178D01*
X322261D01*
X322875Y343300D01*
X323396Y343648D01*
X323744Y344169D01*
X323867Y344783D01*
Y346358D01*
X323744Y346973D01*
X323396Y347494D01*
X322875Y347842D01*
X322261Y347964D01*
X319899D01*
X319284Y347842D01*
X318763Y347494D01*
X318421Y346982D01*
X311122D01*
X310620Y346882D01*
X310194Y346597D01*
X305950Y342354D01*
X304232D01*
X303618Y342231D01*
X303097Y341883D01*
X302749Y341363D01*
X302731Y341273D01*
X287894D01*
X287391Y341173D01*
X286965Y340889D01*
X284319Y338242D01*
X283858Y338334D01*
X282937Y338150D01*
X282155Y337628D01*
X281633Y336847D01*
X281456Y335958D01*
X269665D01*
X269579Y336390D01*
X269177Y336992D01*
X268575Y337394D01*
X267864Y337536D01*
X264419D01*
X263709Y337394D01*
X263106Y336992D01*
X262704Y336390D01*
X262618Y335958D01*
X255542D01*
X255403Y336655D01*
X254990Y337273D01*
X254371Y337687D01*
X253642Y337832D01*
X253304D01*
X242041Y349095D01*
X242073Y349594D01*
X242221Y349708D01*
X242663Y350283D01*
X242941Y350954D01*
X243036Y351673D01*
Y361516D01*
X242941Y362235D01*
X242663Y362906D01*
X242221Y363481D01*
X241646Y363923D01*
X241067Y364163D01*
Y368140D01*
X243671Y370744D01*
X268041D01*
X272209Y366576D01*
Y366339D01*
X272347Y365647D01*
X272739Y365061D01*
X273324Y364670D01*
X274016Y364532D01*
X275984D01*
X276676Y364670D01*
X277261Y365061D01*
X277653Y365647D01*
X277791Y366339D01*
Y369094D01*
X277653Y369786D01*
X277261Y370372D01*
X276676Y370763D01*
X275984Y370901D01*
X275747D01*
X271158Y375489D01*
X270583Y375931D01*
X269912Y376209D01*
X269193Y376303D01*
X242520D01*
X241800Y376209D01*
X241130Y375931D01*
X240554Y375489D01*
X236322Y371257D01*
X235880Y370681D01*
X235602Y370011D01*
X235508Y369291D01*
Y364163D01*
X234929Y363923D01*
X234752Y363787D01*
X234252Y364034D01*
Y413386D01*
X236221Y415354D01*
X467770D01*
X468037Y414854D01*
D02*
G37*
G36*
X561319Y397621D02*
X558972D01*
Y408602D01*
X558911Y408910D01*
X558737Y409170D01*
X558476Y409344D01*
X558169Y409405D01*
X514862D01*
X514555Y409344D01*
X514294Y409170D01*
X514120Y408910D01*
X514059Y408602D01*
Y373000D01*
X505960Y364901D01*
X471457D01*
Y368775D01*
X472599D01*
X472695Y368711D01*
X473425Y368566D01*
X484252D01*
X484982Y368711D01*
X485600Y369124D01*
X486014Y369743D01*
X486159Y370472D01*
Y372638D01*
X486014Y373368D01*
X485600Y373986D01*
X484982Y374399D01*
X484252Y374545D01*
X473425D01*
X472695Y374399D01*
X472599Y374335D01*
X471457D01*
Y392791D01*
X472599D01*
X472695Y392727D01*
X473425Y392582D01*
X479747D01*
X491228Y381101D01*
X491225Y381083D01*
Y376752D01*
X491286Y376445D01*
X491460Y376184D01*
X491720Y376010D01*
X492028Y375949D01*
X502658D01*
X502965Y376010D01*
X503225Y376184D01*
X503399Y376445D01*
X503460Y376752D01*
Y381083D01*
X503399Y381390D01*
X503225Y381650D01*
X502965Y381824D01*
X502658Y381886D01*
X498305D01*
X486083Y394108D01*
X486159Y394488D01*
Y396654D01*
X486014Y397383D01*
X485600Y398002D01*
X484982Y398415D01*
X484252Y398560D01*
X473425D01*
X472695Y398415D01*
X472599Y398351D01*
X471457D01*
Y402900D01*
X471629Y402934D01*
X476663D01*
X476817Y402703D01*
X477338Y402355D01*
X477953Y402233D01*
X479528D01*
X480142Y402355D01*
X480663Y402703D01*
X481011Y403224D01*
X481133Y403839D01*
Y406201D01*
X481011Y406815D01*
X480663Y407336D01*
X480142Y407684D01*
X479528Y407806D01*
X477953D01*
X477338Y407684D01*
X476817Y407336D01*
X476558Y406948D01*
X471629D01*
X471457Y406982D01*
Y410827D01*
X482835D01*
Y407210D01*
X482572Y406815D01*
X482449Y406201D01*
Y405097D01*
X482434Y405020D01*
X482449Y404942D01*
Y403839D01*
X482572Y403224D01*
X482920Y402703D01*
X483441Y402355D01*
X484055Y402233D01*
X485630D01*
X486244Y402355D01*
X486628Y402611D01*
X488176D01*
X491225Y399562D01*
Y396752D01*
X491286Y396445D01*
X491460Y396184D01*
X491720Y396010D01*
X492028Y395949D01*
X502658D01*
X502965Y396010D01*
X503225Y396184D01*
X503399Y396445D01*
X503460Y396752D01*
Y401083D01*
X503399Y401390D01*
X503225Y401650D01*
X502965Y401824D01*
X502658Y401886D01*
X495714D01*
X490876Y406723D01*
X490095Y407245D01*
X489173Y407428D01*
X486850D01*
Y410827D01*
X561319D01*
Y397621D01*
D02*
G37*
G36*
X356765Y406658D02*
X356684Y406604D01*
X349302Y399222D01*
X348997Y398766D01*
X348890Y398228D01*
Y367323D01*
X348997Y366785D01*
X348605Y366473D01*
X344922Y370156D01*
X344998Y370339D01*
X345106Y371161D01*
X344998Y371984D01*
X344680Y372750D01*
X344176Y373408D01*
X343517Y373913D01*
X343334Y373989D01*
Y397646D01*
X352846Y407158D01*
X356613D01*
X356765Y406658D01*
D02*
G37*
G36*
X456723Y125522D02*
X457341Y125109D01*
X458071Y124963D01*
X468898D01*
X469627Y125109D01*
X469724Y125173D01*
X470654D01*
Y121866D01*
X449067D01*
X448875Y122328D01*
X452009Y125461D01*
X452461D01*
X453075Y125584D01*
X453317Y125745D01*
X456573D01*
X456723Y125522D01*
D02*
G37*
%LPC*%
G36*
X460236Y354967D02*
X459314Y354784D01*
X458533Y354262D01*
X458011Y353481D01*
X457828Y352559D01*
X458011Y351637D01*
X458229Y351311D01*
Y346569D01*
X457890Y346342D01*
X457487Y345740D01*
X457346Y345029D01*
Y341585D01*
X457487Y340874D01*
X457890Y340272D01*
X458492Y339869D01*
X459203Y339728D01*
X461270D01*
X461980Y339869D01*
X462582Y340272D01*
X462985Y340874D01*
X463126Y341585D01*
Y345029D01*
X462985Y345740D01*
X462582Y346342D01*
X462243Y346569D01*
Y351311D01*
X462461Y351637D01*
X462645Y352559D01*
X462461Y353481D01*
X461939Y354262D01*
X461158Y354784D01*
X460236Y354967D01*
D02*
G37*
G36*
X481201Y264122D02*
X479626D01*
X479011Y264000D01*
X478491Y263652D01*
X478143Y263131D01*
X478020Y262517D01*
Y260155D01*
X478143Y259540D01*
X478206Y259446D01*
Y256713D01*
X478143Y256618D01*
X478020Y256004D01*
Y253642D01*
X478143Y253027D01*
X478491Y252506D01*
X479011Y252158D01*
X479626Y252036D01*
X481201D01*
X481815Y252158D01*
X482336Y252506D01*
X482409Y252615D01*
X488357D01*
X490142Y250830D01*
Y249331D01*
X490203Y249024D01*
X490377Y248763D01*
X490638Y248589D01*
X490945Y248528D01*
X501575D01*
X501882Y248589D01*
X502142Y248763D01*
X502317Y249024D01*
X502378Y249331D01*
Y253661D01*
X502317Y253969D01*
X502142Y254229D01*
X501882Y254403D01*
X501575Y254464D01*
X492753D01*
X490833Y256384D01*
X490117Y256863D01*
X489272Y257031D01*
X482621D01*
Y259446D01*
X482684Y259540D01*
X482806Y260155D01*
Y262517D01*
X482684Y263131D01*
X482336Y263652D01*
X481815Y264000D01*
X481201Y264122D01*
D02*
G37*
G36*
X485630Y213023D02*
X484055D01*
X483441Y212901D01*
X482920Y212553D01*
X482572Y212032D01*
X482449Y211417D01*
Y209055D01*
X482572Y208441D01*
X482635Y208346D01*
Y205040D01*
X482572Y204945D01*
X482449Y204331D01*
Y203227D01*
X482434Y203150D01*
X482449Y203072D01*
Y201969D01*
X482572Y201354D01*
X482920Y200833D01*
X483441Y200485D01*
X484055Y200363D01*
X485630D01*
X486244Y200485D01*
X486628Y200741D01*
X489734D01*
X489885Y200515D01*
X490145Y200341D01*
X490453Y200280D01*
X501083D01*
X501390Y200341D01*
X501650Y200515D01*
X501824Y200776D01*
X501886Y201083D01*
Y205413D01*
X501824Y205721D01*
X501650Y205981D01*
X501390Y206155D01*
X501083Y206216D01*
X490453D01*
X490145Y206155D01*
X489885Y205981D01*
X489711Y205721D01*
X489679Y205558D01*
X487050D01*
Y208346D01*
X487113Y208441D01*
X487235Y209055D01*
Y211417D01*
X487113Y212032D01*
X486765Y212553D01*
X486244Y212901D01*
X485630Y213023D01*
D02*
G37*
G36*
X477264Y337196D02*
X475689D01*
X475074Y337074D01*
X474554Y336726D01*
X474205Y336205D01*
X474083Y335591D01*
Y333228D01*
X474205Y332614D01*
X474469Y332219D01*
Y328332D01*
X474205Y327937D01*
X474083Y327323D01*
Y324961D01*
X474205Y324346D01*
X474554Y323825D01*
X475074Y323477D01*
X475689Y323355D01*
X476425D01*
X486337Y313443D01*
X486988Y313008D01*
X487756Y312855D01*
X545866D01*
X546634Y313008D01*
X547285Y313443D01*
X553880Y320038D01*
X554315Y320689D01*
X554468Y321457D01*
Y325575D01*
X557776D01*
X558083Y325636D01*
X558343Y325810D01*
X558517Y326071D01*
X558578Y326378D01*
Y330709D01*
X558517Y331016D01*
X558343Y331276D01*
X558083Y331450D01*
X557776Y331511D01*
X547146D01*
X546838Y331450D01*
X546578Y331276D01*
X546404Y331016D01*
X546343Y330709D01*
Y326378D01*
X546404Y326071D01*
X546578Y325810D01*
X546838Y325636D01*
X547146Y325575D01*
X550454D01*
Y322288D01*
X545035Y316869D01*
X488587D01*
X478869Y326587D01*
Y327323D01*
X478747Y327937D01*
X478483Y328332D01*
Y332219D01*
X478747Y332614D01*
X478869Y333228D01*
Y335591D01*
X478747Y336205D01*
X478399Y336726D01*
X477878Y337074D01*
X477264Y337196D01*
D02*
G37*
G36*
X501870Y304051D02*
X491240D01*
X490933Y303990D01*
X490672Y303816D01*
X490498Y303555D01*
X490437Y303248D01*
Y303090D01*
X486972D01*
X486765Y303399D01*
X486244Y303747D01*
X485630Y303869D01*
X484055D01*
X483441Y303747D01*
X482920Y303399D01*
X482572Y302878D01*
X482449Y302264D01*
Y299902D01*
X482572Y299287D01*
X482835Y298892D01*
Y294612D01*
X482572Y294217D01*
X482449Y293602D01*
Y291240D01*
X482572Y290626D01*
X482920Y290105D01*
X483249Y289885D01*
X483423Y289624D01*
X484074Y289189D01*
X484842Y289036D01*
X485611Y289189D01*
X486262Y289624D01*
X486436Y289885D01*
X486765Y290105D01*
X487113Y290626D01*
X487236Y291240D01*
Y293602D01*
X487113Y294217D01*
X486850Y294612D01*
Y298892D01*
X486972Y299076D01*
X490437D01*
Y298917D01*
X490498Y298610D01*
X490672Y298350D01*
X490933Y298176D01*
X491240Y298114D01*
X501870D01*
X502177Y298176D01*
X502438Y298350D01*
X502612Y298610D01*
X502673Y298917D01*
Y303248D01*
X502612Y303555D01*
X502438Y303816D01*
X502177Y303990D01*
X501870Y304051D01*
D02*
G37*
G36*
X418898Y321306D02*
X417976Y321123D01*
X417195Y320601D01*
X416673Y319819D01*
X416489Y318898D01*
X416673Y317976D01*
X417195Y317195D01*
X417976Y316672D01*
X418898Y316489D01*
X419249Y316559D01*
X425465Y310343D01*
Y250984D01*
X425572Y250447D01*
X425877Y249991D01*
X429321Y246546D01*
X429777Y246241D01*
X430315Y246134D01*
X436691D01*
X437037Y245617D01*
X437346Y245410D01*
Y243943D01*
X437037Y243737D01*
X436689Y243216D01*
X436567Y242601D01*
Y241026D01*
X436689Y240412D01*
X437037Y239891D01*
X437558Y239543D01*
X438172Y239421D01*
X440534D01*
X441149Y239543D01*
X441670Y239891D01*
X442018Y240412D01*
X442140Y241026D01*
Y242601D01*
X442018Y243216D01*
X441670Y243737D01*
X441360Y243943D01*
Y245410D01*
X441544Y245532D01*
X443676D01*
X444071Y245269D01*
X444685Y245146D01*
X446260D01*
X446874Y245269D01*
X447395Y245617D01*
X447743Y246137D01*
X447865Y246752D01*
Y249114D01*
X447743Y249729D01*
X447395Y250250D01*
X446874Y250598D01*
X446260Y250720D01*
X444685D01*
X444071Y250598D01*
X443550Y250250D01*
X443202Y249729D01*
X443165Y249546D01*
X441544D01*
X441149Y249810D01*
X440534Y249932D01*
X438172D01*
X437558Y249810D01*
X437037Y249462D01*
X436691Y248944D01*
X430897D01*
X428275Y251566D01*
Y310925D01*
X428168Y311463D01*
X427864Y311919D01*
X421236Y318546D01*
X421306Y318898D01*
X421123Y319819D01*
X420601Y320601D01*
X419819Y321123D01*
X418898Y321306D01*
D02*
G37*
G36*
X451476Y220110D02*
X449114D01*
X448500Y219987D01*
X447979Y219639D01*
X447631Y219118D01*
X447508Y218504D01*
Y216929D01*
X447511Y216919D01*
X445186Y214594D01*
X440833D01*
X440755Y214984D01*
X440407Y215505D01*
X439886Y215854D01*
X439272Y215976D01*
X437697D01*
X437082Y215854D01*
X436561Y215505D01*
X436213Y214984D01*
X436091Y214370D01*
Y212008D01*
X436213Y211393D01*
X436561Y210873D01*
X437082Y210524D01*
X437697Y210402D01*
X439272D01*
X439886Y210524D01*
X440407Y210873D01*
X440755Y211393D01*
X440833Y211784D01*
X445768D01*
X446305Y211891D01*
X446761Y212195D01*
X449889Y215323D01*
X451476D01*
X452091Y215446D01*
X452612Y215794D01*
X452960Y216315D01*
X453082Y216929D01*
Y218504D01*
X452960Y219118D01*
X452612Y219639D01*
X452091Y219987D01*
X451476Y220110D01*
D02*
G37*
G36*
X415650Y301326D02*
X414728Y301143D01*
X413947Y300620D01*
X413424Y299839D01*
X413241Y298917D01*
X413424Y297996D01*
X413947Y297214D01*
X414540Y296818D01*
Y229626D01*
X414647Y229088D01*
X414951Y228632D01*
X429989Y213595D01*
Y212008D01*
X430111Y211393D01*
X430459Y210873D01*
X430980Y210524D01*
X431595Y210402D01*
X433169D01*
X433784Y210524D01*
X434305Y210873D01*
X434653Y211393D01*
X434775Y212008D01*
Y214370D01*
X434724Y214627D01*
X437686Y217589D01*
X437697Y217587D01*
X439272D01*
X439886Y217709D01*
X440407Y218057D01*
X440755Y218579D01*
X440877Y219193D01*
Y221555D01*
X440755Y222170D01*
X440407Y222691D01*
X439886Y223039D01*
X439789Y223058D01*
Y225958D01*
X439886Y225977D01*
X440407Y226325D01*
X440755Y226846D01*
X440877Y227461D01*
Y229823D01*
X440755Y230437D01*
X440407Y230958D01*
X439886Y231306D01*
X439272Y231429D01*
X437697D01*
X437082Y231306D01*
X436561Y230958D01*
X436213Y230437D01*
X436091Y229823D01*
Y227461D01*
X436213Y226846D01*
X436561Y226325D01*
X437082Y225977D01*
X437180Y225958D01*
Y223058D01*
X437082Y223039D01*
X436561Y222691D01*
X436213Y222170D01*
X436091Y221555D01*
Y219968D01*
X435258Y219134D01*
X435211Y219140D01*
X434775Y219359D01*
Y221555D01*
X434653Y222170D01*
X434305Y222691D01*
X433784Y223039D01*
X433686Y223058D01*
Y225958D01*
X433784Y225977D01*
X434305Y226325D01*
X434653Y226846D01*
X434775Y227461D01*
Y229823D01*
X434653Y230437D01*
X434305Y230958D01*
X433784Y231306D01*
X433169Y231429D01*
X431595D01*
X431466Y231403D01*
X422269Y240599D01*
Y254119D01*
X422553Y254237D01*
X423211Y254742D01*
X423716Y255400D01*
X424033Y256166D01*
X424141Y256988D01*
X424033Y257810D01*
X423716Y258577D01*
X423211Y259234D01*
X422553Y259739D01*
X421787Y260057D01*
X420965Y260165D01*
X420142Y260057D01*
X419376Y259739D01*
X418718Y259234D01*
X418213Y258577D01*
X417896Y257810D01*
X417850Y257459D01*
X417350Y257492D01*
Y297212D01*
X417353Y297214D01*
X417875Y297996D01*
X418058Y298917D01*
X417875Y299839D01*
X417353Y300620D01*
X416571Y301143D01*
X415650Y301326D01*
D02*
G37*
G36*
X434055Y282803D02*
X433518Y282696D01*
X433062Y282391D01*
X432757Y281935D01*
X432650Y281398D01*
X432757Y280860D01*
X433062Y280404D01*
X437948Y275518D01*
Y253642D01*
X438055Y253104D01*
X438360Y252648D01*
X438816Y252344D01*
X439353Y252237D01*
X439891Y252344D01*
X440347Y252648D01*
X440651Y253104D01*
X440758Y253642D01*
Y276099D01*
X440651Y276637D01*
X440347Y277093D01*
X435049Y282391D01*
X434593Y282696D01*
X434055Y282803D01*
D02*
G37*
%LPD*%
G36*
X417896Y256166D02*
X418213Y255400D01*
X418718Y254742D01*
X419376Y254237D01*
X419660Y254119D01*
Y240059D01*
X419759Y239560D01*
X420042Y239137D01*
X429989Y229190D01*
Y227461D01*
X430111Y226846D01*
X430459Y226325D01*
X430980Y225977D01*
X431077Y225958D01*
Y223058D01*
X430980Y223039D01*
X430459Y222691D01*
X430111Y222170D01*
X429989Y221555D01*
Y219193D01*
X430111Y218579D01*
X430459Y218057D01*
X430980Y217709D01*
X431595Y217587D01*
X433004D01*
X433222Y217151D01*
X433228Y217105D01*
X432099Y215976D01*
X431595D01*
X431584Y215974D01*
X417350Y230208D01*
Y256484D01*
X417850Y256517D01*
X417896Y256166D01*
D02*
G37*
%LPC*%
G36*
X457677Y318157D02*
X456755Y317973D01*
X455974Y317451D01*
X455452Y316670D01*
X455269Y315748D01*
X455452Y314826D01*
X455974Y314045D01*
X456755Y313523D01*
X457677Y313340D01*
X458138Y313431D01*
X460588Y310981D01*
X461013Y310697D01*
X461516Y310597D01*
X463547D01*
Y310187D01*
X463688Y309476D01*
X464091Y308874D01*
X464693Y308472D01*
X465404Y308330D01*
X467471D01*
X468181Y308472D01*
X468783Y308874D01*
X469186Y309476D01*
X469327Y310187D01*
Y313632D01*
X469186Y314342D01*
X468783Y314945D01*
X468181Y315347D01*
X467471Y315488D01*
X465404D01*
X464693Y315347D01*
X464091Y314945D01*
X463688Y314342D01*
X463547Y313632D01*
Y313222D01*
X462059D01*
X459994Y315287D01*
X460086Y315748D01*
X459902Y316670D01*
X459380Y317451D01*
X458599Y317973D01*
X457677Y318157D01*
D02*
G37*
G36*
X342717Y322389D02*
X341795Y322205D01*
X341014Y321683D01*
X340491Y320902D01*
X340308Y319980D01*
X340491Y319059D01*
X341014Y318277D01*
X341312Y318078D01*
Y298031D01*
X341419Y297494D01*
X341723Y297038D01*
X349991Y288770D01*
X350447Y288466D01*
X350984Y288359D01*
X358858D01*
X359396Y288466D01*
X359852Y288770D01*
X363198Y292117D01*
X363503Y292573D01*
X363610Y293110D01*
Y312386D01*
X364737D01*
Y291920D01*
X357600Y284784D01*
X357417Y284860D01*
X356594Y284968D01*
X355772Y284860D01*
X355006Y284542D01*
X354348Y284038D01*
X353843Y283380D01*
X353526Y282613D01*
X353418Y281791D01*
X353526Y280969D01*
X353843Y280203D01*
X354348Y279545D01*
X355006Y279040D01*
X355772Y278723D01*
X356594Y278615D01*
X357417Y278723D01*
X358183Y279040D01*
X358841Y279545D01*
X359346Y280203D01*
X359663Y280969D01*
X359771Y281791D01*
X359663Y282613D01*
X359587Y282797D01*
X366243Y289453D01*
X366705Y289262D01*
Y285621D01*
X354831Y273747D01*
X346265D01*
X345919Y274265D01*
X345398Y274613D01*
X344915Y274709D01*
Y276078D01*
X345398Y276174D01*
X345919Y276522D01*
X346267Y277043D01*
X346389Y277658D01*
Y279232D01*
X346267Y279847D01*
X345919Y280368D01*
X345398Y280716D01*
X344783Y280838D01*
X342421D01*
X341807Y280716D01*
X341286Y280368D01*
X340938Y279847D01*
X340920Y279757D01*
X338804D01*
X338787Y279847D01*
X338439Y280368D01*
X337918Y280716D01*
X337303Y280838D01*
X334941D01*
X334327Y280716D01*
X333805Y280368D01*
X333457Y279847D01*
X333440Y279757D01*
X328415D01*
X328342Y279935D01*
X327837Y280593D01*
X327179Y281098D01*
X326413Y281415D01*
X325590Y281523D01*
X324768Y281415D01*
X324002Y281098D01*
X323344Y280593D01*
X322839Y279935D01*
X322522Y279169D01*
X322414Y278346D01*
X322522Y277524D01*
X322839Y276758D01*
X323344Y276100D01*
X324002Y275595D01*
X324768Y275278D01*
X325590Y275170D01*
X326413Y275278D01*
X327179Y275595D01*
X327837Y276100D01*
X328342Y276758D01*
X328497Y277132D01*
X333440D01*
X333457Y277043D01*
X333805Y276522D01*
X334327Y276174D01*
X334809Y276078D01*
Y274656D01*
X334559Y274606D01*
X334093Y274295D01*
X333782Y273830D01*
X333673Y273281D01*
Y272040D01*
X333782Y271491D01*
X334093Y271026D01*
X334559Y270714D01*
X335108Y270605D01*
X337136D01*
X337685Y270714D01*
X338151Y271026D01*
X338153Y271030D01*
X340920D01*
X340938Y270941D01*
X341286Y270420D01*
X341807Y270072D01*
X342421Y269950D01*
X344783D01*
X345398Y270072D01*
X345919Y270420D01*
X346265Y270938D01*
X355413D01*
X355951Y271044D01*
X356407Y271349D01*
X368212Y283154D01*
X368674Y282963D01*
Y280405D01*
X365115Y276846D01*
X364764Y276916D01*
X363842Y276733D01*
X363061Y276211D01*
X362539Y275430D01*
X362355Y274508D01*
X362539Y273586D01*
X363061Y272805D01*
X363842Y272283D01*
X364764Y272099D01*
X365686Y272283D01*
X366467Y272805D01*
X366989Y273586D01*
X367172Y274508D01*
X367102Y274859D01*
X370180Y277938D01*
X370642Y277746D01*
Y275680D01*
X364379Y269417D01*
X360367D01*
X360168Y269715D01*
X359386Y270237D01*
X358465Y270420D01*
X357543Y270237D01*
X356762Y269715D01*
X356239Y268934D01*
X356056Y268012D01*
X356239Y267090D01*
X356762Y266309D01*
X357060Y266110D01*
Y261857D01*
X356866Y261818D01*
X356345Y261470D01*
X355997Y260949D01*
X355875Y260335D01*
Y257972D01*
X355997Y257358D01*
X356345Y256837D01*
X356866Y256489D01*
X356955Y256471D01*
Y253962D01*
X356866Y253944D01*
X356345Y253596D01*
X355997Y253075D01*
X355875Y252461D01*
Y250098D01*
X355997Y249484D01*
X356345Y248963D01*
X356866Y248615D01*
X357480Y248493D01*
X359055D01*
X359670Y248615D01*
X360191Y248963D01*
X360539Y249484D01*
X360661Y250098D01*
Y252461D01*
X360539Y253075D01*
X360191Y253596D01*
X359670Y253944D01*
X359580Y253962D01*
Y256471D01*
X359670Y256489D01*
X360191Y256837D01*
X360539Y257358D01*
X360661Y257972D01*
Y260335D01*
X360539Y260949D01*
X360191Y261470D01*
X359870Y261684D01*
Y266110D01*
X360168Y266309D01*
X360367Y266607D01*
X364961D01*
X365498Y266714D01*
X365954Y267018D01*
X369455Y270520D01*
X369844Y270201D01*
X369650Y269911D01*
X369543Y269373D01*
Y262290D01*
X369152Y262212D01*
X368631Y261864D01*
X368285Y261346D01*
X366376D01*
X366293Y261470D01*
X365772Y261818D01*
X365158Y261940D01*
X363583D01*
X362968Y261818D01*
X362447Y261470D01*
X362099Y260949D01*
X361977Y260335D01*
Y257972D01*
X362099Y257358D01*
X362447Y256837D01*
X362968Y256489D01*
X363057Y256471D01*
Y253962D01*
X362968Y253944D01*
X362447Y253596D01*
X362099Y253075D01*
X361977Y252461D01*
Y250098D01*
X362099Y249484D01*
X362447Y248963D01*
X362968Y248615D01*
X363583Y248493D01*
X365158D01*
X365772Y248615D01*
X366293Y248963D01*
X366641Y249484D01*
X366763Y250098D01*
Y252461D01*
X366641Y253075D01*
X366293Y253596D01*
X365772Y253944D01*
X365683Y253962D01*
Y256471D01*
X365772Y256489D01*
X366293Y256837D01*
X366641Y257358D01*
X366763Y257972D01*
Y258536D01*
X368285D01*
X368631Y258018D01*
X369152Y257670D01*
X369767Y257548D01*
X372129D01*
X372743Y257670D01*
X373264Y258018D01*
X373612Y258539D01*
X373734Y259154D01*
Y260728D01*
X373612Y261343D01*
X373264Y261864D01*
X372743Y262212D01*
X372353Y262290D01*
Y268791D01*
X374117Y270556D01*
X374579Y270364D01*
Y260630D01*
X374674Y260155D01*
Y258366D01*
X374796Y257752D01*
X375144Y257231D01*
X375665Y256883D01*
X375869Y256842D01*
Y255143D01*
X375780Y255125D01*
X375259Y254777D01*
X374911Y254256D01*
X374789Y253642D01*
Y251279D01*
X374911Y250665D01*
X375259Y250144D01*
X375780Y249796D01*
X375869Y249778D01*
Y248633D01*
X375764Y248612D01*
X375243Y248264D01*
X374894Y247743D01*
X374772Y247129D01*
Y245554D01*
X374894Y244940D01*
X375243Y244419D01*
X375764Y244071D01*
X376378Y243949D01*
X378740D01*
X379355Y244071D01*
X379875Y244419D01*
X380224Y244940D01*
X380346Y245554D01*
Y247129D01*
X380224Y247743D01*
X379875Y248264D01*
X379355Y248612D01*
X378740Y248735D01*
X378495D01*
Y249778D01*
X378584Y249796D01*
X379105Y250144D01*
X379453Y250665D01*
X379575Y251279D01*
Y253642D01*
X379453Y254256D01*
X379105Y254777D01*
X378584Y255125D01*
X378495Y255143D01*
Y256900D01*
X378990Y257231D01*
X379338Y257752D01*
X379460Y258366D01*
Y260728D01*
X379338Y261343D01*
X378990Y261864D01*
X378469Y262212D01*
X377854Y262334D01*
X377389D01*
Y270561D01*
X377851Y270753D01*
X389755Y258849D01*
X390004Y258682D01*
X390052Y258441D01*
X390400Y257920D01*
X390921Y257572D01*
X391535Y257450D01*
X393898D01*
X394512Y257572D01*
X395033Y257920D01*
X395042Y257934D01*
X397039D01*
X397222Y257811D01*
Y253803D01*
X396913Y253596D01*
X396565Y253075D01*
X396443Y252461D01*
Y250886D01*
X396565Y250271D01*
X396913Y249750D01*
X397434Y249402D01*
X398048Y249280D01*
X400410D01*
X401025Y249402D01*
X401420Y249666D01*
X404093D01*
X404340Y249501D01*
X404955Y249379D01*
X407317D01*
X407931Y249501D01*
X408452Y249849D01*
X408800Y250370D01*
X408923Y250984D01*
Y252559D01*
X408800Y253173D01*
X408452Y253694D01*
X407931Y254043D01*
X407749Y254079D01*
Y257811D01*
X408059Y258018D01*
X408407Y258539D01*
X408529Y259154D01*
Y260728D01*
X408407Y261343D01*
X408059Y261864D01*
X407538Y262212D01*
X406923Y262334D01*
X404561D01*
X403947Y262212D01*
X403426Y261864D01*
X403078Y261343D01*
X402955Y260728D01*
Y259154D01*
X403078Y258539D01*
X403426Y258018D01*
X403735Y257811D01*
Y253680D01*
X401420D01*
X401236Y253803D01*
Y257811D01*
X401546Y258018D01*
X401894Y258539D01*
X402016Y259154D01*
Y260728D01*
X401894Y261343D01*
X401546Y261864D01*
X401025Y262212D01*
X400410Y262334D01*
X398048D01*
X397434Y262212D01*
X397039Y261948D01*
X394759D01*
X394512Y262113D01*
X393898Y262236D01*
X391535D01*
X390921Y262113D01*
X390647Y261930D01*
X379358Y273220D01*
Y315354D01*
X379346Y315412D01*
Y317520D01*
X379285Y317827D01*
X379111Y318087D01*
X378851Y318261D01*
X378543Y318322D01*
X377362D01*
X377055Y318261D01*
X376969Y318204D01*
X376882Y318261D01*
X376575Y318322D01*
X375394D01*
X375086Y318261D01*
X375000Y318204D01*
X374914Y318261D01*
X374606Y318322D01*
X373425D01*
X373118Y318261D01*
X373031Y318204D01*
X372945Y318261D01*
X372638Y318322D01*
X371457D01*
X371149Y318261D01*
X371063Y318204D01*
X370976Y318261D01*
X370669Y318322D01*
X369488D01*
X369181Y318261D01*
X369094Y318204D01*
X369008Y318261D01*
X368701Y318322D01*
X367520D01*
X367213Y318261D01*
X367126Y318204D01*
X367039Y318261D01*
X366732Y318322D01*
X365551D01*
X365244Y318261D01*
X365158Y318204D01*
X365071Y318261D01*
X364764Y318322D01*
X363583D01*
X363276Y318261D01*
X363189Y318204D01*
X363103Y318261D01*
X362795Y318322D01*
X361614D01*
X361307Y318261D01*
X361221Y318204D01*
X361134Y318261D01*
X360827Y318322D01*
X359646D01*
X359338Y318261D01*
X359252Y318204D01*
X359166Y318261D01*
X358858Y318322D01*
X357677D01*
X357370Y318261D01*
X357283Y318204D01*
X357197Y318261D01*
X356890Y318322D01*
X355709D01*
X355401Y318261D01*
X355141Y318087D01*
X354967Y317827D01*
X354906Y317520D01*
Y313189D01*
X354967Y312882D01*
X355141Y312621D01*
X355401Y312447D01*
X355709Y312386D01*
X356863D01*
Y307078D01*
X354536Y304751D01*
X352138D01*
X352062Y304935D01*
X351557Y305593D01*
X350899Y306098D01*
X350133Y306415D01*
X349311Y306523D01*
X348489Y306415D01*
X347723Y306098D01*
X347065Y305593D01*
X346560Y304935D01*
X346242Y304169D01*
X346134Y303346D01*
X346242Y302524D01*
X346560Y301758D01*
X347065Y301100D01*
X347723Y300595D01*
X348489Y300278D01*
X349311Y300170D01*
X350133Y300278D01*
X350899Y300595D01*
X351557Y301100D01*
X352062Y301758D01*
X352138Y301941D01*
X355118D01*
X355656Y302048D01*
X356112Y302353D01*
X358369Y304611D01*
X358831Y304419D01*
Y297728D01*
X357340Y296236D01*
X356988Y296306D01*
X356066Y296123D01*
X355285Y295601D01*
X354763Y294819D01*
X354580Y293898D01*
X354763Y292976D01*
X355285Y292195D01*
X356066Y291672D01*
X356085Y291669D01*
X356036Y291169D01*
X351566D01*
X344122Y298613D01*
Y318078D01*
X344420Y318277D01*
X344942Y319059D01*
X345125Y319980D01*
X344942Y320902D01*
X344420Y321683D01*
X343638Y322205D01*
X342717Y322389D01*
D02*
G37*
G36*
X407317Y248062D02*
X404955D01*
X404340Y247940D01*
X403819Y247592D01*
X403471Y247071D01*
X403349Y246457D01*
Y244882D01*
X403471Y244267D01*
X403819Y243746D01*
X404129Y243540D01*
Y239783D01*
X403877Y239406D01*
X403694Y238484D01*
X403877Y237563D01*
X404399Y236781D01*
X405181Y236259D01*
X406102Y236076D01*
X407024Y236259D01*
X407805Y236781D01*
X408327Y237563D01*
X408511Y238484D01*
X408327Y239406D01*
X408143Y239682D01*
Y243540D01*
X408452Y243746D01*
X408800Y244267D01*
X408923Y244882D01*
Y246457D01*
X408800Y247071D01*
X408452Y247592D01*
X407931Y247940D01*
X407317Y248062D01*
D02*
G37*
G36*
X378740Y242632D02*
X376378D01*
X375764Y242510D01*
X375243Y242162D01*
X374894Y241641D01*
X374772Y241026D01*
Y239452D01*
X374894Y238837D01*
X375243Y238316D01*
X375552Y238110D01*
Y233630D01*
X375334Y233304D01*
X375151Y232382D01*
X375334Y231460D01*
X375856Y230679D01*
X376637Y230157D01*
X377559Y229973D01*
X378481Y230157D01*
X379262Y230679D01*
X379784Y231460D01*
X379967Y232382D01*
X379784Y233304D01*
X379566Y233630D01*
Y238110D01*
X379875Y238316D01*
X380224Y238837D01*
X380346Y239452D01*
Y241026D01*
X380224Y241641D01*
X379875Y242162D01*
X379355Y242510D01*
X378740Y242632D01*
D02*
G37*
G36*
X336122Y265927D02*
X335354Y265774D01*
X334703Y265339D01*
X315367Y246003D01*
X288189D01*
X287421Y245850D01*
X286770Y245415D01*
X286335Y244764D01*
X286182Y243996D01*
X286335Y243228D01*
X286770Y242577D01*
X287421Y242142D01*
X288189Y241989D01*
X316198D01*
X316966Y242142D01*
X317617Y242577D01*
X337541Y262501D01*
X337976Y263152D01*
X338129Y263920D01*
X337976Y264688D01*
X337541Y265339D01*
X336890Y265774D01*
X336122Y265927D01*
D02*
G37*
G36*
X253346Y274155D02*
X252113Y273992D01*
X250964Y273517D01*
X249977Y272759D01*
X249220Y271772D01*
X248744Y270623D01*
X248581Y269390D01*
Y259941D01*
X248744Y258708D01*
X249220Y257558D01*
X249977Y256571D01*
X250964Y255814D01*
X252113Y255338D01*
X252617Y255272D01*
Y254767D01*
X252113Y254701D01*
X250964Y254225D01*
X249977Y253468D01*
X249220Y252481D01*
X248744Y251332D01*
X248581Y250098D01*
Y240650D01*
X248744Y239416D01*
X249220Y238267D01*
X249977Y237280D01*
X250964Y236523D01*
X252113Y236047D01*
X253346Y235884D01*
X254580Y236047D01*
X255729Y236523D01*
X256716Y237280D01*
X257473Y238267D01*
X257949Y239416D01*
X258112Y240650D01*
Y242594D01*
X274005D01*
X274065Y242582D01*
X277510D01*
X278220Y242724D01*
X278823Y243126D01*
X279225Y243728D01*
X279366Y244439D01*
Y245022D01*
X285340Y250995D01*
X286037Y251284D01*
X286695Y251789D01*
X287200Y252447D01*
X287517Y253213D01*
X287626Y254035D01*
X287517Y254858D01*
X287200Y255624D01*
X286857Y256070D01*
X286857Y264160D01*
X287113Y264543D01*
X287236Y265158D01*
Y266732D01*
X287113Y267347D01*
X286765Y267868D01*
X286244Y268216D01*
X285630Y268338D01*
X284526D01*
X284449Y268353D01*
X284371Y268338D01*
X283268D01*
X282653Y268216D01*
X282132Y267868D01*
X281784Y267347D01*
X281662Y266732D01*
Y265158D01*
X281784Y264543D01*
X282040Y264160D01*
X282040Y256070D01*
X281698Y255624D01*
X281409Y254926D01*
X274845Y248362D01*
X274065D01*
X273355Y248221D01*
X273254Y248154D01*
X258112D01*
Y250098D01*
X257949Y251332D01*
X257473Y252481D01*
X256716Y253468D01*
X255729Y254225D01*
X254580Y254701D01*
X254076Y254767D01*
Y255272D01*
X254580Y255338D01*
X255729Y255814D01*
X256716Y256571D01*
X257473Y257558D01*
X257949Y258708D01*
X258112Y259941D01*
Y263353D01*
X272619Y263353D01*
X272743Y262724D01*
X273146Y262122D01*
X273147Y262110D01*
X272016Y260978D01*
X271555Y261070D01*
X270633Y260887D01*
X269852Y260365D01*
X269330Y259583D01*
X269147Y258661D01*
X269330Y257740D01*
X269852Y256958D01*
X270633Y256436D01*
X271555Y256253D01*
X272477Y256436D01*
X273258Y256958D01*
X273780Y257740D01*
X273964Y258661D01*
X273872Y259122D01*
X276328Y261578D01*
X277904D01*
X278614Y261720D01*
X279216Y262122D01*
X279619Y262724D01*
X279760Y263435D01*
Y265502D01*
X279619Y266212D01*
X279216Y266815D01*
X278614Y267217D01*
X277904Y267358D01*
X274459D01*
X273748Y267217D01*
X273146Y266815D01*
X272743Y266212D01*
X272697Y265978D01*
X258112Y265978D01*
Y269390D01*
X257949Y270623D01*
X257473Y271772D01*
X256716Y272759D01*
X255729Y273517D01*
X254580Y273992D01*
X253346Y274155D01*
D02*
G37*
G36*
X277510Y240882D02*
X274065D01*
X273355Y240741D01*
X272752Y240338D01*
X272350Y239736D01*
X272208Y239026D01*
Y238344D01*
X258411Y224547D01*
X257881Y224724D01*
X257473Y225709D01*
X256716Y226696D01*
X255729Y227453D01*
X254580Y227930D01*
X253346Y228092D01*
X252113Y227930D01*
X250964Y227453D01*
X249977Y226696D01*
X249220Y225709D01*
X248744Y224560D01*
X248581Y223327D01*
Y213878D01*
X248744Y212645D01*
X249220Y211495D01*
X249977Y210508D01*
X250964Y209751D01*
X252113Y209275D01*
X253346Y209113D01*
X254580Y209275D01*
X255729Y209751D01*
X256716Y210508D01*
X257473Y211495D01*
X257949Y212645D01*
X258112Y213878D01*
Y216444D01*
X258363Y216637D01*
X276828Y235102D01*
X277510D01*
X278220Y235243D01*
X278823Y235646D01*
X278983Y235887D01*
X285999D01*
X286393Y235623D01*
X287008Y235501D01*
X289370D01*
X289984Y235623D01*
X290379Y235887D01*
X294070D01*
X294253Y235764D01*
Y231760D01*
X294035Y231434D01*
X293851Y230512D01*
X294035Y229590D01*
X294557Y228809D01*
X295338Y228287D01*
X296260Y228103D01*
X297182Y228287D01*
X297963Y228809D01*
X298485Y229590D01*
X298668Y230512D01*
X298485Y231434D01*
X298267Y231760D01*
Y235764D01*
X298576Y235971D01*
X298924Y236492D01*
X299047Y237106D01*
Y238681D01*
X298924Y239296D01*
X298576Y239816D01*
X298055Y240164D01*
X297441Y240287D01*
X295079D01*
X294464Y240164D01*
X294070Y239901D01*
X290379D01*
X289984Y240164D01*
X289370Y240287D01*
X287008D01*
X286393Y240164D01*
X285999Y239901D01*
X279115D01*
X278823Y240338D01*
X278220Y240741D01*
X277510Y240882D01*
D02*
G37*
G36*
X327854Y154958D02*
X325689D01*
X324959Y154813D01*
X324341Y154399D01*
X323927Y153781D01*
X323782Y153051D01*
Y149902D01*
X323927Y149172D01*
X324341Y148553D01*
X324959Y148140D01*
X325689Y147995D01*
X327854D01*
X328584Y148140D01*
X329203Y148553D01*
X329616Y149172D01*
X329675Y149469D01*
X330996D01*
X331008Y149407D01*
X331400Y148821D01*
X331986Y148430D01*
X332677Y148292D01*
X334646D01*
X335337Y148430D01*
X335923Y148821D01*
X336315Y149407D01*
X336452Y150098D01*
Y152854D01*
X336315Y153546D01*
X335923Y154132D01*
X335337Y154523D01*
X334646Y154661D01*
X332677D01*
X331986Y154523D01*
X331400Y154132D01*
X331008Y153546D01*
X330996Y153483D01*
X329675D01*
X329616Y153781D01*
X329203Y154399D01*
X328584Y154813D01*
X327854Y154958D01*
D02*
G37*
G36*
X451772Y165204D02*
X450850Y165020D01*
X450069Y164498D01*
X449546Y163717D01*
X449363Y162795D01*
X449546Y161874D01*
X450069Y161092D01*
X450850Y160570D01*
X451772Y160387D01*
X452242Y160480D01*
X454432Y158290D01*
X454855Y158007D01*
X455354Y157908D01*
X456609D01*
X456830Y157578D01*
X457295Y157267D01*
X457844Y157158D01*
X459872D01*
X460421Y157267D01*
X460630Y157406D01*
X463675D01*
X463727Y157329D01*
X464248Y156981D01*
X464862Y156859D01*
X466437D01*
X467052Y156981D01*
X467572Y157329D01*
X467920Y157850D01*
X468043Y158465D01*
Y160827D01*
X467920Y161441D01*
X467572Y161962D01*
X467052Y162310D01*
X466437Y162432D01*
X464862D01*
X464248Y162310D01*
X463727Y161962D01*
X463379Y161441D01*
X463295Y161019D01*
X460630D01*
X460421Y161159D01*
X459872Y161268D01*
X457844D01*
X457295Y161159D01*
X456830Y160847D01*
X456609Y160517D01*
X455895D01*
X454087Y162325D01*
X454180Y162795D01*
X453997Y163717D01*
X453475Y164498D01*
X452693Y165020D01*
X451772Y165204D01*
D02*
G37*
G36*
X372129Y256232D02*
X369767D01*
X369152Y256109D01*
X368631Y255761D01*
X368283Y255240D01*
X368161Y254626D01*
Y253051D01*
X368283Y252437D01*
X368631Y251916D01*
X369152Y251568D01*
X369543Y251490D01*
Y214288D01*
X369650Y213751D01*
X369954Y213295D01*
X448495Y134755D01*
X448493Y134744D01*
Y133169D01*
X448615Y132555D01*
X448963Y132034D01*
X449484Y131686D01*
X450098Y131564D01*
X452461D01*
X453075Y131686D01*
X453596Y132034D01*
X453944Y132555D01*
X454066Y133169D01*
Y134744D01*
X453944Y135359D01*
X453596Y135880D01*
X453075Y136228D01*
X452461Y136350D01*
X450873D01*
X372353Y214870D01*
Y251490D01*
X372743Y251568D01*
X373264Y251916D01*
X373612Y252437D01*
X373734Y253051D01*
Y254626D01*
X373612Y255240D01*
X373264Y255761D01*
X372743Y256109D01*
X372129Y256232D01*
D02*
G37*
G36*
X250197Y131824D02*
X246260D01*
X244948Y131694D01*
X243686Y131312D01*
X242524Y130690D01*
X241504Y129854D01*
X240668Y128835D01*
X240047Y127672D01*
X239664Y126410D01*
X239534Y125098D01*
X239664Y123786D01*
X240047Y122525D01*
X240668Y121362D01*
X241504Y120343D01*
X242524Y119507D01*
X243686Y118885D01*
X244948Y118502D01*
X246260Y118373D01*
X250197D01*
X251509Y118502D01*
X252770Y118885D01*
X253933Y119507D01*
X254952Y120343D01*
X255789Y121362D01*
X256300Y122319D01*
X283818D01*
Y116831D01*
X283980Y115597D01*
X284456Y114448D01*
X285213Y113461D01*
X286200Y112704D01*
X287349Y112228D01*
X288583Y112065D01*
X289816Y112228D01*
X290965Y112704D01*
X291952Y113461D01*
X292709Y114448D01*
X293185Y115597D01*
X293348Y116831D01*
Y117871D01*
X311669D01*
Y117864D01*
X311841Y117000D01*
X312331Y116268D01*
X313063Y115778D01*
X313927Y115606D01*
X316781D01*
X317646Y115778D01*
X318378Y116268D01*
X318868Y117000D01*
X319039Y117864D01*
Y122293D01*
X318868Y123157D01*
X318378Y123890D01*
X317646Y124379D01*
X316781Y124551D01*
X313927D01*
X313063Y124379D01*
X312331Y123890D01*
X311841Y123157D01*
X311669Y122293D01*
Y122286D01*
X293348D01*
Y126279D01*
X293185Y127513D01*
X292709Y128662D01*
X291952Y129649D01*
X290965Y130406D01*
X289816Y130882D01*
X288583Y131045D01*
X287349Y130882D01*
X286200Y130406D01*
X285213Y129649D01*
X284456Y128662D01*
X284131Y127878D01*
X256300D01*
X255789Y128835D01*
X254952Y129854D01*
X253933Y130690D01*
X252770Y131312D01*
X251509Y131694D01*
X250197Y131824D01*
D02*
G37*
G36*
X406791Y162637D02*
X322539D01*
X321771Y162484D01*
X321120Y162049D01*
X317478Y158407D01*
X317043Y157756D01*
X316891Y156988D01*
Y154683D01*
X316467Y154399D01*
X316444Y154365D01*
X314205D01*
X314127Y154482D01*
X313607Y154830D01*
X312992Y154952D01*
X310630D01*
X310016Y154830D01*
X309494Y154482D01*
X309146Y153961D01*
X309024Y153346D01*
Y151772D01*
X309146Y151157D01*
X309494Y150636D01*
X310016Y150288D01*
X310630Y150166D01*
X312992D01*
X313607Y150288D01*
X314127Y150636D01*
X314205Y150753D01*
X315908D01*
Y149902D01*
X316053Y149172D01*
X316467Y148553D01*
X317085Y148140D01*
X317815Y147995D01*
X319980D01*
X320710Y148140D01*
X321328Y148553D01*
X321742Y149172D01*
X321887Y149902D01*
Y153051D01*
X321742Y153781D01*
X321328Y154399D01*
X320905Y154683D01*
Y156157D01*
X323371Y158623D01*
X405960D01*
X420779Y143804D01*
X420668Y143438D01*
X420539Y142126D01*
Y138189D01*
X420668Y136877D01*
X421050Y135615D01*
X421672Y134453D01*
X422508Y133433D01*
X423527Y132597D01*
X424690Y131976D01*
X425952Y131593D01*
X427264Y131464D01*
X428576Y131593D01*
X429837Y131976D01*
X431000Y132597D01*
X432019Y133433D01*
X432856Y134453D01*
X433477Y135615D01*
X433860Y136877D01*
X433989Y138189D01*
Y142126D01*
X433860Y143438D01*
X433477Y144700D01*
X432856Y145862D01*
X432019Y146881D01*
X431000Y147718D01*
X429837Y148339D01*
X428576Y148722D01*
X427264Y148851D01*
X425952Y148722D01*
X424690Y148339D01*
X423527Y147718D01*
X422986Y147274D01*
X408211Y162049D01*
X407559Y162484D01*
X406791Y162637D01*
D02*
G37*
G36*
X459872Y170008D02*
X457844D01*
X457295Y169899D01*
X456830Y169588D01*
X456519Y169122D01*
X456409Y168573D01*
Y167333D01*
X456519Y166783D01*
X456830Y166318D01*
X457295Y166007D01*
X457844Y165898D01*
X459872D01*
X460421Y166007D01*
X460630Y166146D01*
X463257D01*
Y165945D01*
X463379Y165330D01*
X463727Y164810D01*
X464248Y164461D01*
X464862Y164339D01*
X466437D01*
X467052Y164461D01*
X467572Y164810D01*
X467920Y165330D01*
X468043Y165945D01*
Y168307D01*
X467920Y168921D01*
X467572Y169442D01*
X467052Y169790D01*
X466437Y169913D01*
X464862D01*
X464248Y169790D01*
X464201Y169759D01*
X460630D01*
X460421Y169899D01*
X459872Y170008D01*
D02*
G37*
G36*
X467175Y194622D02*
X465108D01*
X464398Y194481D01*
X463796Y194079D01*
X463393Y193476D01*
X463308Y193050D01*
X459122D01*
X458796Y193269D01*
X457874Y193452D01*
X456952Y193269D01*
X456171Y192746D01*
X455649Y191965D01*
X455466Y191043D01*
X455649Y190122D01*
X456171Y189340D01*
X456952Y188818D01*
X457874Y188635D01*
X458796Y188818D01*
X459122Y189036D01*
X463308D01*
X463393Y188610D01*
X463796Y188008D01*
X464398Y187606D01*
X465108Y187464D01*
X467175D01*
X467886Y187606D01*
X468488Y188008D01*
X468890Y188610D01*
X469032Y189321D01*
Y192766D01*
X468890Y193476D01*
X468488Y194079D01*
X467886Y194481D01*
X467175Y194622D01*
D02*
G37*
G36*
X273917Y326503D02*
X273380Y326396D01*
X272924Y326092D01*
X272619Y325636D01*
X272512Y325098D01*
Y322531D01*
X271349Y321368D01*
X271044Y320912D01*
X270938Y320374D01*
Y319291D01*
X271044Y318754D01*
X271349Y318298D01*
X271805Y317993D01*
X272342Y317886D01*
X272880Y317993D01*
X273336Y318298D01*
X273640Y318754D01*
X273747Y319291D01*
Y319792D01*
X274911Y320955D01*
X275215Y321411D01*
X275322Y321949D01*
Y325098D01*
X275215Y325636D01*
X274911Y326092D01*
X274455Y326396D01*
X273917Y326503D01*
D02*
G37*
G36*
X354232Y323047D02*
X349902D01*
X349594Y322986D01*
X349334Y322812D01*
X349160Y322551D01*
X349099Y322244D01*
Y321063D01*
X349160Y320756D01*
X349218Y320669D01*
X349160Y320583D01*
X349099Y320276D01*
Y319094D01*
X349160Y318787D01*
X349334Y318527D01*
X349594Y318353D01*
X349902Y318292D01*
X354232D01*
X354539Y318353D01*
X354800Y318527D01*
X354974Y318787D01*
X355035Y319094D01*
Y320276D01*
X354974Y320583D01*
X354916Y320669D01*
X354974Y320756D01*
X355035Y321063D01*
Y322244D01*
X354974Y322551D01*
X354800Y322812D01*
X354539Y322986D01*
X354232Y323047D01*
D02*
G37*
G36*
X321457Y314893D02*
X319882D01*
X319267Y314771D01*
X318746Y314423D01*
X318398Y313902D01*
X318276Y313287D01*
Y310925D01*
X318398Y310311D01*
X318746Y309790D01*
X319267Y309442D01*
X319882Y309319D01*
X321457D01*
X322071Y309442D01*
X322592Y309790D01*
X322940Y310311D01*
X323018Y310701D01*
X324869D01*
X325069Y310403D01*
X325850Y309881D01*
X326772Y309698D01*
X327693Y309881D01*
X328475Y310403D01*
X328997Y311185D01*
X329180Y312106D01*
X328997Y313028D01*
X328475Y313809D01*
X327693Y314331D01*
X326772Y314515D01*
X325850Y314331D01*
X325069Y313809D01*
X324869Y313511D01*
X323018D01*
X322940Y313902D01*
X322592Y314423D01*
X322071Y314771D01*
X321457Y314893D01*
D02*
G37*
G36*
X372638Y336826D02*
X361614D01*
X361307Y336765D01*
X361047Y336591D01*
X360873Y336331D01*
X360811Y336024D01*
Y325000D01*
X360873Y324693D01*
X361047Y324432D01*
X361307Y324258D01*
X361614Y324197D01*
X372638D01*
X372945Y324258D01*
X373205Y324432D01*
X373379Y324693D01*
X373441Y325000D01*
Y336024D01*
X373379Y336331D01*
X373205Y336591D01*
X372945Y336765D01*
X372638Y336826D01*
D02*
G37*
G36*
X284252Y370901D02*
X282283D01*
X281592Y370763D01*
X281006Y370372D01*
X280615Y369786D01*
X280477Y369094D01*
Y366339D01*
X280615Y365647D01*
X281006Y365061D01*
X281592Y364670D01*
X282283Y364532D01*
X284252D01*
X284943Y364670D01*
X285529Y365061D01*
X285921Y365647D01*
X285933Y365709D01*
X288914D01*
X289121Y365400D01*
X289641Y365052D01*
X290256Y364930D01*
X291831D01*
X292445Y365052D01*
X292966Y365400D01*
X293314Y365921D01*
X293436Y366535D01*
Y368898D01*
X293314Y369512D01*
X292966Y370033D01*
X292445Y370381D01*
X291831Y370503D01*
X290256D01*
X289641Y370381D01*
X289121Y370033D01*
X288914Y369724D01*
X285933D01*
X285921Y369786D01*
X285529Y370372D01*
X284943Y370763D01*
X284252Y370901D01*
D02*
G37*
G36*
X363366Y394422D02*
X362390Y394293D01*
X361480Y393917D01*
X360699Y393317D01*
X360099Y392536D01*
X359722Y391626D01*
X359594Y390650D01*
X359722Y389673D01*
X360099Y388763D01*
X360699Y387982D01*
X361480Y387383D01*
X362390Y387006D01*
X363366Y386877D01*
X364342Y387006D01*
X365252Y387383D01*
X366034Y387982D01*
X366633Y388763D01*
X367010Y389673D01*
X367139Y390650D01*
X367010Y391626D01*
X366633Y392536D01*
X366034Y393317D01*
X365252Y393917D01*
X364342Y394293D01*
X363366Y394422D01*
D02*
G37*
G36*
X267028Y364295D02*
X263090D01*
X262371Y364201D01*
X261701Y363923D01*
X261125Y363481D01*
X260683Y362906D01*
X260406Y362235D01*
X260311Y361516D01*
Y351673D01*
X260406Y350954D01*
X260683Y350283D01*
X261125Y349708D01*
X261701Y349266D01*
X262371Y348988D01*
X263090Y348894D01*
X267028D01*
X267747Y348988D01*
X268417Y349266D01*
X268993Y349708D01*
X269435Y350283D01*
X269712Y350954D01*
X269807Y351673D01*
Y353815D01*
X280443D01*
X284209Y350048D01*
Y346457D01*
X284378Y345612D01*
X284856Y344896D01*
X285572Y344417D01*
X286417Y344249D01*
X289173D01*
X290018Y344417D01*
X290734Y344896D01*
X291213Y345612D01*
X291381Y346457D01*
Y354331D01*
X291213Y355176D01*
X290734Y355892D01*
X290018Y356370D01*
X289173Y356539D01*
X286417D01*
X285720Y356400D01*
X283560Y358560D01*
X282984Y359002D01*
X282314Y359279D01*
X281594Y359374D01*
X269807D01*
Y361516D01*
X269712Y362235D01*
X269435Y362906D01*
X268993Y363481D01*
X268417Y363923D01*
X267747Y364201D01*
X267028Y364295D01*
D02*
G37*
G36*
X393366Y394422D02*
X392390Y394293D01*
X391480Y393917D01*
X390699Y393317D01*
X390099Y392536D01*
X389722Y391626D01*
X389594Y390650D01*
X389722Y389673D01*
X390099Y388763D01*
X390699Y387982D01*
X391480Y387383D01*
X392390Y387006D01*
X393366Y386877D01*
X394342Y387006D01*
X395252Y387383D01*
X396034Y387982D01*
X396633Y388763D01*
X397010Y389673D01*
X397139Y390650D01*
X397010Y391626D01*
X396633Y392536D01*
X396034Y393317D01*
X395252Y393917D01*
X394342Y394293D01*
X393366Y394422D01*
D02*
G37*
G36*
X299114Y315291D02*
X297146D01*
X296454Y315153D01*
X295868Y314761D01*
X295477Y314176D01*
X295339Y313484D01*
Y310728D01*
X295477Y310037D01*
X295868Y309451D01*
X296454Y309060D01*
X296817Y308987D01*
Y304989D01*
X296454Y304917D01*
X295868Y304525D01*
X295477Y303939D01*
X295339Y303248D01*
Y300492D01*
X295477Y299801D01*
X295868Y299215D01*
X296454Y298823D01*
X296817Y298751D01*
Y295768D01*
X296917Y295265D01*
X297202Y294840D01*
X300734Y291307D01*
X300643Y290846D01*
X300826Y289925D01*
X301348Y289143D01*
X302130Y288621D01*
X303051Y288438D01*
X303512Y288530D01*
X308422Y283619D01*
X308848Y283334D01*
X309350Y283235D01*
X333440D01*
X333457Y283145D01*
X333805Y282625D01*
X334327Y282276D01*
X334941Y282154D01*
X337303D01*
X337918Y282276D01*
X338439Y282625D01*
X338787Y283145D01*
X338804Y283235D01*
X340920D01*
X340938Y283145D01*
X341286Y282625D01*
X341807Y282276D01*
X342421Y282154D01*
X344783D01*
X345398Y282276D01*
X345919Y282625D01*
X346267Y283145D01*
X346389Y283760D01*
Y285335D01*
X346267Y285949D01*
X345919Y286470D01*
X345398Y286818D01*
X344783Y286940D01*
X342421D01*
X341807Y286818D01*
X341286Y286470D01*
X340938Y285949D01*
X340920Y285860D01*
X338804D01*
X338787Y285949D01*
X338439Y286470D01*
X337918Y286818D01*
X337303Y286940D01*
X334941D01*
X334327Y286818D01*
X333805Y286470D01*
X333457Y285949D01*
X333440Y285860D01*
X309894D01*
X305368Y290386D01*
X305460Y290846D01*
X305276Y291768D01*
X304754Y292549D01*
X303973Y293072D01*
X303051Y293255D01*
X302591Y293163D01*
X299443Y296311D01*
Y298751D01*
X299805Y298823D01*
X300391Y299215D01*
X300783Y299801D01*
X300921Y300492D01*
Y303248D01*
X300783Y303939D01*
X300391Y304525D01*
X299805Y304917D01*
X299443Y304989D01*
Y308987D01*
X299805Y309060D01*
X300391Y309451D01*
X300783Y310037D01*
X300921Y310728D01*
Y313484D01*
X300783Y314176D01*
X300391Y314761D01*
X299805Y315153D01*
X299114Y315291D01*
D02*
G37*
G36*
X307382Y305054D02*
X305413D01*
X304722Y304917D01*
X304136Y304525D01*
X303745Y303939D01*
X303607Y303248D01*
Y300492D01*
X303745Y299801D01*
X304136Y299215D01*
X304722Y298823D01*
X305413Y298686D01*
X307382D01*
X308073Y298823D01*
X308659Y299215D01*
X309051Y299801D01*
X309188Y300492D01*
Y300557D01*
X311806D01*
X311902Y300075D01*
X312250Y299554D01*
X312771Y299205D01*
X313386Y299083D01*
X314961D01*
X315575Y299205D01*
X316096Y299554D01*
X316444Y300075D01*
X316566Y300689D01*
Y303051D01*
X316444Y303666D01*
X316096Y304187D01*
X315575Y304535D01*
X314961Y304657D01*
X313386D01*
X312771Y304535D01*
X312250Y304187D01*
X311902Y303666D01*
X311806Y303183D01*
X309188D01*
Y303248D01*
X309051Y303939D01*
X308659Y304525D01*
X308073Y304917D01*
X307382Y305054D01*
D02*
G37*
G36*
X387008Y274751D02*
X386086Y274568D01*
X385305Y274046D01*
X384783Y273264D01*
X384599Y272342D01*
X384783Y271421D01*
X385305Y270639D01*
X386086Y270117D01*
X387008Y269934D01*
X387359Y270004D01*
X392314Y265050D01*
X392769Y264745D01*
X393307Y264638D01*
X396567D01*
X396913Y264121D01*
X397434Y263773D01*
X398048Y263650D01*
X400410D01*
X401025Y263773D01*
X401546Y264121D01*
X401894Y264641D01*
X402016Y265256D01*
Y266831D01*
X401894Y267445D01*
X401546Y267966D01*
X401025Y268314D01*
X400410Y268436D01*
X398048D01*
X397434Y268314D01*
X396913Y267966D01*
X396567Y267448D01*
X393889D01*
X389346Y271991D01*
X389416Y272342D01*
X389233Y273264D01*
X388711Y274046D01*
X387930Y274568D01*
X387008Y274751D01*
D02*
G37*
G36*
X405807Y276523D02*
X404885Y276339D01*
X404104Y275817D01*
X403582Y275036D01*
X403399Y274114D01*
X403582Y273193D01*
X404104Y272411D01*
X404137Y272389D01*
Y268352D01*
X403947Y268314D01*
X403426Y267966D01*
X403078Y267445D01*
X402955Y266831D01*
Y265256D01*
X403078Y264641D01*
X403426Y264121D01*
X403947Y263773D01*
X404561Y263650D01*
X406923D01*
X407538Y263773D01*
X408059Y264121D01*
X408407Y264641D01*
X408529Y265256D01*
Y266831D01*
X408407Y267445D01*
X408059Y267966D01*
X407538Y268314D01*
X407348Y268352D01*
Y272303D01*
X407510Y272411D01*
X408032Y273193D01*
X408216Y274114D01*
X408032Y275036D01*
X407510Y275817D01*
X406729Y276339D01*
X405807Y276523D01*
D02*
G37*
G36*
X321063Y304657D02*
X319488D01*
X318874Y304535D01*
X318353Y304187D01*
X318005Y303666D01*
X317882Y303051D01*
Y300689D01*
X318005Y300075D01*
X318353Y299554D01*
X318874Y299205D01*
X319488Y299083D01*
X321063D01*
X321677Y299205D01*
X322198Y299554D01*
X322546Y300075D01*
X322624Y300465D01*
X325460D01*
X325659Y300167D01*
X326441Y299645D01*
X327362Y299462D01*
X328284Y299645D01*
X329065Y300167D01*
X329587Y300948D01*
X329771Y301870D01*
X329587Y302792D01*
X329065Y303573D01*
X328284Y304095D01*
X327362Y304278D01*
X326441Y304095D01*
X325659Y303573D01*
X325460Y303275D01*
X322624D01*
X322546Y303666D01*
X322198Y304187D01*
X321677Y304535D01*
X321063Y304657D01*
D02*
G37*
G36*
X307382Y315291D02*
X305413D01*
X304722Y315153D01*
X304136Y314761D01*
X303745Y314176D01*
X303607Y313484D01*
Y310728D01*
X303745Y310037D01*
X304136Y309451D01*
X304722Y309060D01*
X305413Y308922D01*
X307382D01*
X308073Y309060D01*
X308659Y309451D01*
X309051Y310037D01*
X309188Y310728D01*
Y310794D01*
X312200D01*
X312296Y310311D01*
X312644Y309790D01*
X313165Y309442D01*
X313779Y309319D01*
X315354D01*
X315969Y309442D01*
X316490Y309790D01*
X316838Y310311D01*
X316960Y310925D01*
Y313287D01*
X316838Y313902D01*
X316490Y314423D01*
X315969Y314771D01*
X315354Y314893D01*
X313779D01*
X313165Y314771D01*
X312644Y314423D01*
X312296Y313902D01*
X312200Y313419D01*
X309188D01*
Y313484D01*
X309051Y314176D01*
X308659Y314761D01*
X308073Y315153D01*
X307382Y315291D01*
D02*
G37*
G36*
X239075Y337832D02*
X236910D01*
X236180Y337687D01*
X235561Y337273D01*
X235148Y336655D01*
X235003Y335925D01*
Y333366D01*
X235148Y332636D01*
X235561Y332018D01*
X236180Y331605D01*
X236687Y331504D01*
Y314166D01*
X236180Y314065D01*
X235561Y313651D01*
X235148Y313033D01*
X235003Y312303D01*
Y309744D01*
X235148Y309014D01*
X235561Y308396D01*
X236180Y307982D01*
X236867Y307846D01*
X237070Y307542D01*
X240810Y303802D01*
X241233Y303519D01*
X241732Y303420D01*
X256693D01*
X257192Y303519D01*
X257615Y303802D01*
X261257Y307444D01*
X261540Y307867D01*
X261639Y308366D01*
Y308733D01*
X261736Y308753D01*
X262257Y309101D01*
X262606Y309622D01*
X262728Y310236D01*
Y312598D01*
X262606Y313213D01*
X262257Y313734D01*
X261736Y314082D01*
X261122Y314204D01*
X259547D01*
X258933Y314082D01*
X258412Y313734D01*
X258064Y313213D01*
X257942Y312598D01*
Y310236D01*
X258064Y309622D01*
X258412Y309101D01*
X258571Y308994D01*
X258620Y308497D01*
X256153Y306029D01*
X242273D01*
X240377Y307925D01*
X240423Y308396D01*
X240836Y309014D01*
X240982Y309744D01*
Y312303D01*
X240836Y313033D01*
X240423Y313651D01*
X239805Y314065D01*
X239297Y314166D01*
Y331504D01*
X239805Y331605D01*
X240423Y332018D01*
X240836Y332636D01*
X240982Y333366D01*
Y335925D01*
X240836Y336655D01*
X240423Y337273D01*
X239805Y337687D01*
X239075Y337832D01*
D02*
G37*
%LPD*%
D10*
X438484Y220374D02*
D03*
X432382D02*
D03*
X297146Y367717D02*
D03*
X291043D02*
D03*
X440158Y397933D02*
D03*
X434055D02*
D03*
X320669Y312106D02*
D03*
X314567D02*
D03*
X320276Y301870D02*
D03*
X314173D02*
D03*
X260335Y311417D02*
D03*
X266437D02*
D03*
X305315Y353445D02*
D03*
X311417D02*
D03*
X266240Y319291D02*
D03*
X272342D02*
D03*
X470374Y326142D02*
D03*
X476476D02*
D03*
X478740Y405020D02*
D03*
X484842D02*
D03*
X470374Y334409D02*
D03*
X476476D02*
D03*
X478740Y413681D02*
D03*
X484842D02*
D03*
X478740Y301083D02*
D03*
X484842D02*
D03*
X478740Y292421D02*
D03*
X484842D02*
D03*
X474311Y254823D02*
D03*
X480413D02*
D03*
X474311Y261336D02*
D03*
X480413D02*
D03*
X465650Y159646D02*
D03*
X471752D02*
D03*
X465650Y167126D02*
D03*
X471752D02*
D03*
X478740Y203150D02*
D03*
X484842D02*
D03*
X478740Y210236D02*
D03*
X484842D02*
D03*
X443898Y371457D02*
D03*
X450000D02*
D03*
X377182Y252461D02*
D03*
X383284D02*
D03*
X364370Y251279D02*
D03*
X358268D02*
D03*
Y259154D02*
D03*
X364370D02*
D03*
X383169Y259547D02*
D03*
X377067D02*
D03*
X432382Y228642D02*
D03*
X438484D02*
D03*
X438484Y213189D02*
D03*
X432382D02*
D03*
X451575Y247933D02*
D03*
X445472D02*
D03*
D11*
X429035Y351575D02*
D03*
Y357677D02*
D03*
X404724Y329626D02*
D03*
Y335728D02*
D03*
X450295Y217717D02*
D03*
Y223819D02*
D03*
X305413Y346063D02*
D03*
Y339961D02*
D03*
X296260Y243996D02*
D03*
Y237894D02*
D03*
X288189Y243996D02*
D03*
Y237894D02*
D03*
X284449Y272047D02*
D03*
Y265945D02*
D03*
X321080Y345571D02*
D03*
Y339469D02*
D03*
X399229Y266043D02*
D03*
Y259941D02*
D03*
X405742Y266043D02*
D03*
Y259941D02*
D03*
X392717Y253740D02*
D03*
Y259842D02*
D03*
X406136Y251772D02*
D03*
Y245669D02*
D03*
X399229Y251673D02*
D03*
Y245571D02*
D03*
X311811Y146457D02*
D03*
Y152559D02*
D03*
X451279Y133957D02*
D03*
Y127854D02*
D03*
X377559Y240239D02*
D03*
Y246341D02*
D03*
X370948Y253839D02*
D03*
Y259941D02*
D03*
X439353Y235712D02*
D03*
Y241814D02*
D03*
Y247539D02*
D03*
Y253642D02*
D03*
X426083Y377067D02*
D03*
Y383169D02*
D03*
X440453Y383957D02*
D03*
Y390059D02*
D03*
X343602Y284547D02*
D03*
Y278445D02*
D03*
Y272342D02*
D03*
Y266240D02*
D03*
X336122Y278445D02*
D03*
Y284547D02*
D03*
X426083Y392421D02*
D03*
Y398524D02*
D03*
X433957Y383957D02*
D03*
Y390059D02*
D03*
X416437Y389764D02*
D03*
Y383661D02*
D03*
D12*
X406405Y308669D02*
D03*
X410720Y312984D02*
D03*
D13*
X283268Y367717D02*
D03*
X275000D02*
D03*
X306398Y312106D02*
D03*
X298130D02*
D03*
X306398Y301870D02*
D03*
X298130D02*
D03*
X333661Y151476D02*
D03*
X341929D02*
D03*
D14*
X253346Y291437D02*
D03*
X253346Y264665D02*
D03*
Y245374D02*
D03*
Y218602D02*
D03*
X288583Y148327D02*
D03*
Y121555D02*
D03*
D15*
X276181Y264469D02*
D03*
Y271949D02*
D03*
X266142Y334646D02*
D03*
Y327165D02*
D03*
X275787Y245472D02*
D03*
X275787Y237992D02*
D03*
D16*
X352067Y341339D02*
D03*
Y339370D02*
D03*
Y337402D02*
D03*
Y335433D02*
D03*
Y333465D02*
D03*
Y331496D02*
D03*
Y329528D02*
D03*
Y327559D02*
D03*
Y325590D02*
D03*
Y323622D02*
D03*
Y321654D02*
D03*
Y319685D02*
D03*
X382382D02*
D03*
Y321654D02*
D03*
Y323622D02*
D03*
Y325590D02*
D03*
Y327559D02*
D03*
Y329528D02*
D03*
Y331496D02*
D03*
Y333465D02*
D03*
Y335433D02*
D03*
Y337402D02*
D03*
Y339370D02*
D03*
Y341339D02*
D03*
D17*
X356299Y315354D02*
D03*
X358268D02*
D03*
X360236D02*
D03*
X362205D02*
D03*
X364173D02*
D03*
X366142D02*
D03*
X368110D02*
D03*
X370079D02*
D03*
X372047D02*
D03*
X374016D02*
D03*
X375984D02*
D03*
X377953D02*
D03*
Y345669D02*
D03*
X375984D02*
D03*
X374016D02*
D03*
X372047D02*
D03*
X370079D02*
D03*
X368110D02*
D03*
X366142D02*
D03*
X364173D02*
D03*
X362205D02*
D03*
X360236D02*
D03*
X358268D02*
D03*
X356299D02*
D03*
D18*
X367126Y330512D02*
D03*
D19*
X287795Y350394D02*
D03*
X297244D02*
D03*
D20*
X478839Y395571D02*
D03*
Y371555D02*
D03*
X461909D02*
D03*
Y395571D02*
D03*
X479134Y223819D02*
D03*
Y247835D02*
D03*
X462992Y247835D02*
D03*
Y223819D02*
D03*
X479626Y151969D02*
D03*
Y127953D02*
D03*
X463484Y127953D02*
D03*
Y151969D02*
D03*
D21*
X237992Y334646D02*
D03*
X252559D02*
D03*
Y311024D02*
D03*
X237992D02*
D03*
D22*
X265059Y356594D02*
D03*
X238287D02*
D03*
D23*
X461221Y325709D02*
D03*
Y334449D02*
D03*
X470669Y301161D02*
D03*
Y292421D02*
D03*
X467717Y255079D02*
D03*
Y263819D02*
D03*
X458858Y159213D02*
D03*
Y167953D02*
D03*
X471555Y202323D02*
D03*
Y211063D02*
D03*
X336122Y272660D02*
D03*
Y263920D02*
D03*
X470374Y404941D02*
D03*
Y413681D02*
D03*
D24*
X552461Y328543D02*
D03*
Y348543D02*
D03*
X497342Y398917D02*
D03*
Y378917D02*
D03*
X496260Y251496D02*
D03*
Y231496D02*
D03*
X496555Y301083D02*
D03*
X496555Y281083D02*
D03*
X495768Y203248D02*
D03*
X495768Y183248D02*
D03*
X496063Y155669D02*
D03*
Y135669D02*
D03*
D25*
X513287Y338543D02*
D03*
X536516Y388917D02*
D03*
X535433Y241496D02*
D03*
X535728Y291083D02*
D03*
X534941Y193248D02*
D03*
X535236Y145669D02*
D03*
D26*
X385039Y132185D02*
D03*
D27*
X361811Y123130D02*
D03*
X361811Y132185D02*
D03*
Y141240D02*
D03*
D28*
X342289Y131791D02*
D03*
Y120768D02*
D03*
D29*
X315354Y120079D02*
D03*
X326378Y120079D02*
D03*
D30*
X318898Y151476D02*
D03*
X326772D02*
D03*
D31*
X460236Y343307D02*
D03*
X467717D02*
D03*
X466142Y191043D02*
D03*
X473622D02*
D03*
X466437Y311910D02*
D03*
X473917D02*
D03*
D32*
X420965Y240059D02*
Y256988D01*
Y240059D02*
X432382Y228642D01*
X404626Y329528D02*
X404724Y329626D01*
X414862D02*
X414961Y329528D01*
X432382Y220374D02*
Y228642D01*
X438484Y220374D02*
Y228642D01*
X321080Y339469D02*
X321178Y339370D01*
X237992Y311024D02*
Y334646D01*
X297146Y350492D02*
X297244Y350394D01*
X256693Y304724D02*
X260335Y308366D01*
Y311417D01*
X237992Y308465D02*
Y311024D01*
Y308465D02*
X241732Y304724D01*
X256693D01*
X478661Y404941D02*
X478740Y405020D01*
X495492Y378917D02*
X497342D01*
X358268Y259154D02*
X358268Y259154D01*
X471555Y202323D02*
X477913D01*
X478740Y203150D01*
X451772Y162795D02*
X455354Y159213D01*
X458858D01*
X425591Y383661D02*
X426083Y383169D01*
X482382Y183268D02*
X495748D01*
X495768Y183248D01*
X311417Y353445D02*
X312106Y352756D01*
X358268Y345669D02*
X358366Y345768D01*
X366142Y345669D02*
X366240Y345571D01*
X478661Y301161D02*
X478740Y301083D01*
D33*
X423622Y341339D02*
X430118Y334842D01*
Y328150D02*
Y334842D01*
X358268Y345669D02*
Y354823D01*
X341929Y371161D02*
X358268Y354823D01*
X337697Y341339D02*
X352067D01*
X326279Y352756D02*
X337697Y341339D01*
X312106Y352756D02*
X326279D01*
X433898Y202323D02*
X471555D01*
X412500Y223721D02*
X433898Y202323D01*
X412500Y223721D02*
Y295866D01*
X421063Y266732D02*
Y309646D01*
X411811Y318898D02*
X421063Y309646D01*
X356988Y293898D02*
X360236Y297146D01*
Y315354D01*
X401476Y398622D02*
X416437Y383661D01*
X359941Y398622D02*
X401476D01*
X377953Y354035D02*
X383268Y359350D01*
X387067Y362205D02*
X397598Y372736D01*
X377953Y345669D02*
Y354035D01*
X381004Y388287D02*
X383366Y390650D01*
X381004Y368307D02*
Y388287D01*
X374016Y361319D02*
X381004Y368307D01*
X372047Y363779D02*
X378445Y370177D01*
Y378051D01*
X373366Y383130D02*
X378445Y378051D01*
X373366Y383130D02*
Y390650D01*
X470354Y404921D02*
X470374Y404941D01*
X461122Y404921D02*
X470354D01*
X405610Y351575D02*
X429035D01*
X391437Y337402D02*
X405610Y351575D01*
X382382Y337402D02*
X391437D01*
X428543Y358169D02*
X429035Y357677D01*
X437205Y371457D02*
X443898D01*
X433957Y374705D02*
X437205Y371457D01*
X433957Y374705D02*
Y383957D01*
X434350Y390059D02*
X440453Y383957D01*
X433957Y390059D02*
X434350D01*
X433957D02*
X434055Y390158D01*
Y397933D01*
X403839Y318898D02*
X411811D01*
X397146Y325590D02*
X403839Y318898D01*
X382382Y325590D02*
X397146D01*
X404921Y314173D02*
X409532D01*
X395472Y323622D02*
X404921Y314173D01*
X382382Y323622D02*
X395472D01*
X409532Y314173D02*
X410720Y312984D01*
X408874Y306201D02*
X417520D01*
X406405Y308669D02*
X408874Y306201D01*
X393421Y321654D02*
X406405Y308669D01*
X382382Y321654D02*
X393421D01*
X388681Y319685D02*
X412500Y295866D01*
X382382Y319685D02*
X388681D01*
X429626Y408563D02*
X434252Y408563D01*
X440158Y397933D02*
Y402658D01*
X434252Y408563D02*
X440158Y402658D01*
X464016Y255079D02*
X467717D01*
X398721Y327559D02*
X402658Y323622D01*
X404724Y329626D02*
X414862D01*
X382382Y329528D02*
X404626D01*
X400492Y331496D02*
X404724Y335728D01*
X382382Y331496D02*
X400492D01*
X375984Y260630D02*
Y315354D01*
X358465Y259350D02*
Y268012D01*
X358268Y259154D02*
X358465Y259350D01*
X321178Y339370D02*
X352067D01*
X432382Y213189D02*
Y214272D01*
X438484Y220374D01*
X364370Y259154D02*
X365158Y259941D01*
X370948D01*
X382382Y327559D02*
X398721D01*
X416437Y389764D02*
Y395965D01*
X399229Y266043D02*
X399311Y266125D01*
X382382Y333465D02*
X394390D01*
X402264Y341339D01*
X268504Y329528D02*
X352067D01*
X266142Y327165D02*
X268504Y329528D01*
X309055Y325590D02*
X352067D01*
X306496Y323031D02*
X309055Y325590D01*
X287795Y350394D02*
X287795Y350394D01*
X321850Y333465D02*
X352067D01*
X320768Y334547D02*
X321850Y333465D01*
X320669Y312106D02*
X326772D01*
X320669Y312106D02*
X320669Y312106D01*
X331398Y335433D02*
X352067D01*
X330413Y336417D02*
X331398Y335433D01*
X320276Y301870D02*
X327362D01*
X374016Y345669D02*
Y361319D01*
X316437Y331496D02*
X352067D01*
X315059Y332874D02*
X316437Y331496D01*
X372047Y345669D02*
Y363779D01*
X426378Y405610D02*
X434055Y397933D01*
X440158Y390354D02*
Y397933D01*
Y390354D02*
X440453Y390059D01*
X439961Y383465D02*
X440453Y383957D01*
X368110Y345669D02*
Y375886D01*
X369685Y377461D01*
X370079Y345669D02*
Y368209D01*
X373425Y371555D01*
X382382Y335433D02*
X393209D01*
X401772Y343996D01*
X437303D01*
X455590Y325709D01*
X461221D01*
X402264Y341339D02*
X423622D01*
X534114Y291083D02*
X535728D01*
X486536Y281083D02*
X496555D01*
X418898Y318898D02*
X426870Y310925D01*
X415945Y229626D02*
X432382Y213189D01*
X415945Y229626D02*
Y298622D01*
X415650Y298917D02*
X415945Y298622D01*
X438484Y213189D02*
X445768D01*
X450295Y217717D01*
X387008Y272342D02*
X393307Y266043D01*
X399229D01*
X349311Y303346D02*
X355118D01*
X358268Y306496D01*
Y315354D01*
X375984Y260630D02*
X377067Y259547D01*
X377953Y272638D02*
Y315354D01*
Y272638D02*
X390748Y259842D01*
X392717D01*
X362205Y293110D02*
Y315354D01*
X342717Y298031D02*
Y319980D01*
Y298031D02*
X350984Y289764D01*
X358858D01*
X362205Y293110D01*
X356594Y281791D02*
X366142Y291339D01*
Y315354D01*
X343602Y272342D02*
X355413D01*
X368110Y285039D01*
Y315354D01*
X364764Y274508D02*
X370079Y279823D01*
Y315354D01*
X358465Y268012D02*
X364961D01*
X372047Y275098D01*
Y315354D01*
X370948Y259941D02*
Y269373D01*
X374016Y272441D01*
Y315354D01*
X360236Y345669D02*
Y357382D01*
X362205Y345669D02*
Y359646D01*
X364173Y345669D02*
Y364961D01*
X361319Y367815D02*
X364173Y364961D01*
X360138Y377559D02*
X366142Y371555D01*
Y345669D02*
Y371555D01*
X375984Y345669D02*
Y359154D01*
X379035Y362205D01*
X387067D01*
X383268Y359350D02*
X402165D01*
X415551Y372736D01*
X417598D01*
X382382Y339370D02*
X389665D01*
X408465Y358169D01*
X428543D01*
X382382Y341339D02*
X388484D01*
X413681Y366535D01*
X430315D01*
X356299Y345669D02*
Y352658D01*
X349213Y359744D02*
X356299Y352658D01*
X305413Y354035D02*
X311122Y359744D01*
X349213D01*
X272342Y319291D02*
Y320374D01*
X273917Y321949D01*
Y325098D01*
X284449Y272047D02*
Y322638D01*
X289370Y327559D01*
X352067D01*
X426870Y250984D02*
Y310925D01*
Y250984D02*
X430315Y247539D01*
X439353D01*
X402658Y323622D02*
X434842D01*
X457303Y301161D01*
X470669D01*
X355118Y366732D02*
X362205Y359646D01*
X355118Y366732D02*
Y393799D01*
X359941Y398622D01*
X341929Y371161D02*
Y398228D01*
X352264Y408563D01*
X429626D01*
X350295Y367323D02*
X360236Y357382D01*
X350295Y367323D02*
Y398228D01*
X357677Y405610D01*
X426378D01*
X460138Y258957D02*
X464016Y255079D01*
X460138Y258957D02*
Y289567D01*
X430118Y319587D02*
X460138Y289567D01*
X370948Y214288D02*
Y253839D01*
Y214288D02*
X451279Y133957D01*
X439353Y253642D02*
Y276099D01*
X434055Y281398D02*
X439353Y276099D01*
D34*
X478661Y292421D02*
X478701Y292382D01*
X311811Y152559D02*
X317815D01*
X458858Y159213D02*
X465216D01*
X465650Y159646D01*
X458858Y167953D02*
X464823D01*
X465650Y167126D01*
X471752Y159646D02*
Y167126D01*
X471555Y211063D02*
X477913D01*
X478740Y210236D01*
X426083Y383169D02*
Y392421D01*
X416437Y383661D02*
X425591D01*
X470669Y301161D02*
X478661D01*
X470669Y292421D02*
X478661D01*
D35*
X576083Y336417D02*
Y348917D01*
Y168110D02*
Y232677D01*
X535236Y145669D02*
X553642D01*
X576083Y168110D01*
X535433Y241496D02*
X546299Y252362D01*
X576083D01*
X536516Y388917D02*
X566004D01*
X576083Y378839D01*
Y348917D02*
Y378839D01*
Y272047D02*
Y336417D01*
D36*
X506791Y362894D02*
X532815Y388917D01*
X446457Y362894D02*
X506791D01*
X435138Y351575D02*
X446457Y362894D01*
X429035Y351575D02*
X435138D01*
X532815Y388917D02*
X536516D01*
X252559Y311024D02*
Y334646D01*
X467717Y255079D02*
X474055D01*
X474311Y254823D01*
X445079Y247539D02*
X445472Y247933D01*
X439353Y247539D02*
X445079D01*
X439353Y241814D02*
Y247539D01*
X318898Y151476D02*
Y156988D01*
X322539Y160630D01*
X326772Y151476D02*
X333661D01*
X399229Y251673D02*
Y259941D01*
Y251673D02*
X406037D01*
X406136Y251772D01*
X405742Y252165D02*
X406136Y251772D01*
X405742Y252165D02*
Y259941D01*
X392815D02*
X399229D01*
X283268Y367717D02*
X291043D01*
X461811Y371457D02*
X461909Y371555D01*
X450000Y371457D02*
Y379134D01*
X449803Y379331D02*
X450000Y379134D01*
X552461Y321457D02*
Y328543D01*
X476476Y326142D02*
Y334409D01*
X461221Y334449D02*
X470335D01*
X461221Y325709D02*
X469941D01*
X470374Y326142D01*
X484842Y405020D02*
Y413681D01*
X470374D02*
X478740D01*
X470374Y404941D02*
X478661D01*
X484842Y292421D02*
Y301083D01*
X478701Y292382D02*
X478740Y292421D01*
X479134Y223819D02*
X479134Y223819D01*
X480217Y222736D01*
X476476Y326142D02*
X487756Y314862D01*
X545866D01*
X552461Y321457D01*
X471828Y263819D02*
X474311Y261336D01*
X467717Y263819D02*
X471828D01*
X484842Y291043D02*
Y292421D01*
X484842Y301083D02*
X496555D01*
X484842Y301083D02*
X484842Y301083D01*
X451575Y247933D02*
Y257677D01*
X450295Y223819D02*
X462992D01*
X462992Y223819D01*
X439353Y235712D02*
X445292D01*
X450295Y230709D01*
Y223819D02*
Y230709D01*
X288583Y148327D02*
X297146D01*
X350394Y201575D01*
Y259449D01*
X343602Y266240D02*
X350394Y259449D01*
X275886Y237894D02*
X288189D01*
X275787Y237992D02*
X275886Y237894D01*
X288189D02*
X296260D01*
X288189Y243996D02*
X296260D01*
X316198D01*
X336122Y263920D01*
X322539Y160630D02*
X406791D01*
X427264Y140157D01*
X296260Y230512D02*
Y237894D01*
X377559Y232382D02*
Y240239D01*
X406136Y238518D02*
Y245669D01*
X406102Y238484D02*
X406136Y238518D01*
X460236Y343307D02*
Y352559D01*
X434367Y235712D02*
X439353D01*
X432185Y237894D02*
X434367Y235712D01*
X457874Y191043D02*
X466142D01*
D37*
X508622Y343209D02*
X513287Y338543D01*
X467815Y343209D02*
X508622D01*
X535728Y291083D02*
X545039Y300394D01*
X562992D01*
X450098Y395571D02*
X461909D01*
X275886Y245472D02*
X284449Y254035D01*
X275787Y245472D02*
X275886D01*
X275689Y245374D02*
X275787Y245472D01*
X253346Y245374D02*
X275689D01*
X533346Y145669D02*
X535236D01*
X495768Y183248D02*
X533346Y145669D01*
X461909Y395571D02*
X478839Y395571D01*
X361811Y132185D02*
X385039D01*
X495472Y231496D02*
X496260D01*
X479134Y247835D02*
X495472Y231496D01*
X462992Y247835D02*
X479134D01*
X462992Y247835D02*
X462992Y247835D01*
X451575Y247933D02*
X462894D01*
X462992Y247835D01*
Y223819D02*
X479134D01*
X495925Y135669D02*
X496063D01*
X479626Y151969D02*
X495925Y135669D01*
X463484Y151969D02*
X479626D01*
X463484Y127953D02*
X479626D01*
X463484Y127953D02*
X463484Y127953D01*
X471752Y159646D02*
X486319D01*
X490354Y155610D01*
X496004D01*
X496063Y155669D01*
X361811Y141240D02*
Y147343D01*
X366043Y151575D01*
X342289Y120768D02*
X347146D01*
X358563Y132185D01*
X361811D01*
X248228Y144783D02*
X285039D01*
X248228Y125098D02*
X285039D01*
X288583Y121555D01*
X238287Y348917D02*
Y356594D01*
Y348917D02*
X252559Y334646D01*
X238287Y356594D02*
Y369291D01*
X242520Y373524D01*
X269193D01*
X275000Y367717D01*
X281594Y356594D02*
X287795Y350394D01*
X461909Y371555D02*
X478839D01*
X480689Y395571D02*
X497342Y378917D01*
X478839Y395571D02*
X480689D01*
X574902Y350098D02*
X576083Y348917D01*
X552461Y348543D02*
X563957D01*
X576083Y336417D01*
X285039Y144783D02*
X288583Y148327D01*
X290453Y146457D02*
X311811D01*
X288583Y148327D02*
X290453Y146457D01*
X351737Y141240D02*
X361811D01*
X342289Y131791D02*
X351737Y141240D01*
X341929Y151049D02*
X351737Y141240D01*
X341929Y151049D02*
Y151476D01*
X496555Y280374D02*
Y281083D01*
Y280374D02*
X535433Y241496D01*
X253346Y218602D02*
X256398D01*
X275787Y237992D01*
X265059Y356594D02*
X279921D01*
X281594D01*
X366043Y151575D02*
X396161D01*
X407579Y140157D01*
X311811Y146457D02*
X326378Y131890D01*
Y120079D02*
Y131890D01*
X467717Y343307D02*
X467815Y343209D01*
D38*
X495276Y398917D02*
X497342D01*
X489173Y405020D02*
X495276Y398917D01*
X484842Y405020D02*
X489173D01*
X284449Y254035D02*
Y254035D01*
X284449Y265945D02*
X284449Y254035D01*
X484842Y203150D02*
X495669D01*
X450000Y371457D02*
X461811D01*
D39*
X470335Y334449D02*
X470374Y334409D01*
X266437Y311417D02*
Y319094D01*
X266240Y319291D02*
X266437Y319094D01*
X266142Y319390D02*
Y327165D01*
Y319390D02*
X266240Y319291D01*
X253346Y245374D02*
X253740Y245768D01*
X298130Y312106D02*
X298327Y312303D01*
X298130Y301870D02*
Y312106D01*
X306398Y301870D02*
X314173D01*
X306398Y312106D02*
X314567D01*
X314567Y312106D01*
X253346Y291437D02*
X256693D01*
X276181Y271949D01*
X276279Y272047D02*
X284449D01*
X276181Y271949D02*
X276279Y272047D01*
X253346Y264665D02*
X275984Y264665D01*
X276181Y264469D01*
X358268Y251279D02*
Y259154D01*
X364370Y251279D02*
Y259154D01*
X377182Y252461D02*
Y259432D01*
X377067Y259547D02*
X377182Y259432D01*
X320981Y345669D02*
X321080Y345571D01*
X252559Y334646D02*
X266142D01*
X317815Y152559D02*
X318898Y151476D01*
X343602Y272342D02*
Y278445D01*
X336440Y272342D02*
X343602D01*
X336122Y272660D02*
X336440Y272342D01*
X336122Y278445D02*
X343602D01*
X336122Y272660D02*
Y278445D01*
Y284547D02*
X343602D01*
X325689Y278445D02*
X336122D01*
X325590Y278346D02*
X325689Y278445D01*
X377182Y246719D02*
Y252461D01*
Y246719D02*
X377559Y246341D01*
X383169Y259547D02*
X385827D01*
X391634Y253740D01*
X392717D01*
X276181Y263287D02*
Y264469D01*
X271555Y258661D02*
X276181Y263287D01*
X309350Y284547D02*
X336122D01*
X411929Y377067D02*
X426083D01*
X407598Y372736D02*
X411929Y377067D01*
X461516Y311910D02*
X466437D01*
X457677Y315748D02*
X461516Y311910D01*
X298130Y295768D02*
Y301870D01*
Y295768D02*
X303051Y290846D01*
X309350Y284547D01*
X365650Y330512D02*
X367126D01*
X365551Y330610D02*
X365650Y330512D01*
X305413Y339961D02*
X311122Y345669D01*
X320981D01*
X266142Y334646D02*
X282579D01*
X283858Y335925D01*
X287894Y339961D01*
X305413D01*
X392717Y213091D02*
Y253740D01*
Y213091D02*
X453839Y151969D01*
X463484D01*
D40*
X451378Y127953D02*
X463484D01*
X451279Y127854D02*
X451378Y127953D01*
X484842Y203150D02*
Y210236D01*
X495669Y203150D02*
X495768Y203248D01*
X297146Y350492D02*
Y367717D01*
Y375689D01*
X480413Y254823D02*
Y261336D01*
Y254823D02*
X480413Y254823D01*
X492598Y251496D02*
X496260D01*
X489272Y254823D02*
X492598Y251496D01*
X480413Y254823D02*
X489272D01*
X297244Y350394D02*
X300197Y353346D01*
X305413Y346063D02*
Y353346D01*
X446850Y123425D02*
X451279Y127854D01*
X424311Y123425D02*
X446850D01*
X407579Y140157D02*
X424311Y123425D01*
X290059Y120079D02*
X315354D01*
X288583Y121555D02*
X290059Y120079D01*
X300197Y353346D02*
X305413D01*
Y354035D01*
D41*
X576043Y252323D02*
X576083Y252362D01*
D42*
X405742Y266043D02*
Y274049D01*
X405807Y274114D01*
D43*
X297146Y375689D02*
D03*
X349311Y303346D02*
D03*
X284449Y254035D02*
D03*
X325590Y278346D02*
D03*
X341929Y371161D02*
D03*
X574902Y204134D02*
D03*
X576378Y343307D02*
D03*
X420965Y256988D02*
D03*
X449803Y379331D02*
D03*
X414961Y329528D02*
D03*
X356594Y281791D02*
D03*
D44*
X397598Y372736D02*
D03*
X387598D02*
D03*
X407598D02*
D03*
X417598D02*
D03*
X373366Y390650D02*
D03*
X363366Y390650D02*
D03*
X383366Y390650D02*
D03*
X393366D02*
D03*
D45*
X248228Y125098D02*
D03*
Y144783D02*
D03*
X576083Y232677D02*
D03*
Y252362D02*
D03*
Y272047D02*
D03*
D46*
X407579Y140157D02*
D03*
X427264D02*
D03*
D47*
X430118Y319587D02*
D03*
Y328150D02*
D03*
X421063Y266732D02*
D03*
X356988Y293898D02*
D03*
X461122Y404921D02*
D03*
X430315Y366535D02*
D03*
X450098Y395571D02*
D03*
X417520Y306201D02*
D03*
X387008Y272342D02*
D03*
X358465Y268012D02*
D03*
X451575Y257677D02*
D03*
X451772Y162795D02*
D03*
X416437Y395965D02*
D03*
X415650Y298917D02*
D03*
X482382Y183268D02*
D03*
X306496Y323031D02*
D03*
X279921Y356594D02*
D03*
X315059Y332874D02*
D03*
X320768Y334547D02*
D03*
X326772Y312106D02*
D03*
X330413Y336417D02*
D03*
X327362Y301870D02*
D03*
X373425Y371555D02*
D03*
X369685Y377461D02*
D03*
X360138Y377559D02*
D03*
X405807Y274114D02*
D03*
X486516Y281102D02*
D03*
X418898Y318898D02*
D03*
X364764Y274508D02*
D03*
X342717Y319980D02*
D03*
X361319Y367815D02*
D03*
X273917Y325098D02*
D03*
X271555Y258661D02*
D03*
X296260Y230512D02*
D03*
X377559Y232382D02*
D03*
X406102Y238484D02*
D03*
X460236Y352559D02*
D03*
X432185Y237894D02*
D03*
X457874Y191043D02*
D03*
X457677Y315748D02*
D03*
X303051Y290846D02*
D03*
X365551Y330610D02*
D03*
X283858Y335925D02*
D03*
X434055Y281398D02*
D03*
X397638Y283465D02*
D03*
M02*
