G04 Layer_Color=16711935*
%FSLAX25Y25*%
%MOIN*%
G70*
G01*
G75*
%ADD73C,0.05524*%
%ADD74C,0.06706*%
%ADD75O,0.16548X0.12611*%
%ADD76O,0.12611X0.16548*%
%ADD77C,0.03950*%
D73*
X297146Y375689D02*
D03*
X349311Y303346D02*
D03*
X284449Y254035D02*
D03*
X325590Y278346D02*
D03*
X341929Y371161D02*
D03*
X574902Y204134D02*
D03*
X576378Y343307D02*
D03*
X420965Y256988D02*
D03*
X449803Y379331D02*
D03*
X414961Y329528D02*
D03*
X356594Y281791D02*
D03*
D74*
X397598Y372736D02*
D03*
X387598D02*
D03*
X407598D02*
D03*
X417598D02*
D03*
X373366Y390650D02*
D03*
X363366Y390650D02*
D03*
X383366Y390650D02*
D03*
X393366D02*
D03*
D75*
X248228Y125098D02*
D03*
Y144783D02*
D03*
X576083Y232677D02*
D03*
Y252362D02*
D03*
Y272047D02*
D03*
D76*
X407579Y140157D02*
D03*
X427264D02*
D03*
D77*
X430118Y319587D02*
D03*
Y328150D02*
D03*
X421063Y266732D02*
D03*
X356988Y293898D02*
D03*
X461122Y404921D02*
D03*
X430315Y366535D02*
D03*
X450098Y395571D02*
D03*
X417520Y306201D02*
D03*
X387008Y272342D02*
D03*
X358465Y268012D02*
D03*
X451575Y257677D02*
D03*
X451772Y162795D02*
D03*
X416437Y395965D02*
D03*
X415650Y298917D02*
D03*
X482382Y183268D02*
D03*
X306496Y323031D02*
D03*
X279921Y356594D02*
D03*
X315059Y332874D02*
D03*
X320768Y334547D02*
D03*
X326772Y312106D02*
D03*
X330413Y336417D02*
D03*
X327362Y301870D02*
D03*
X373425Y371555D02*
D03*
X369685Y377461D02*
D03*
X360138Y377559D02*
D03*
X405807Y274114D02*
D03*
X486516Y281102D02*
D03*
X418898Y318898D02*
D03*
X364764Y274508D02*
D03*
X342717Y319980D02*
D03*
X361319Y367815D02*
D03*
X273917Y325098D02*
D03*
X271555Y258661D02*
D03*
X296260Y230512D02*
D03*
X377559Y232382D02*
D03*
X406102Y238484D02*
D03*
X460236Y352559D02*
D03*
X432185Y237894D02*
D03*
X457874Y191043D02*
D03*
X457677Y315748D02*
D03*
X303051Y290846D02*
D03*
X365551Y330610D02*
D03*
X283858Y335925D02*
D03*
X434055Y281398D02*
D03*
X397638Y283465D02*
D03*
M02*
