G04 Layer_Physical_Order=2*
G04 Layer_Color=16711680*
%FSLAX25Y25*%
%MOIN*%
G70*
G01*
G75*
%ADD32C,0.00984*%
%ADD33C,0.01181*%
%ADD36C,0.02362*%
%ADD39C,0.01000*%
%ADD43C,0.04724*%
%ADD44C,0.05905*%
%ADD45O,0.15748X0.11811*%
%ADD46O,0.11811X0.15748*%
%ADD47C,0.03150*%
G36*
X594488Y413386D02*
Y112205D01*
X592520Y110236D01*
X236221D01*
X234252Y112205D01*
Y413386D01*
X236221Y415354D01*
X592520D01*
X594488Y413386D01*
D02*
G37*
%LPC*%
G36*
X315059Y335282D02*
X314137Y335099D01*
X313356Y334577D01*
X312834Y333796D01*
X312651Y332874D01*
X312834Y331952D01*
X313356Y331171D01*
X313746Y330910D01*
Y285189D01*
X285547Y256990D01*
X285271Y257104D01*
X284449Y257212D01*
X283627Y257104D01*
X282860Y256787D01*
X282203Y256282D01*
X281698Y255624D01*
X281380Y254858D01*
X281272Y254035D01*
X281380Y253213D01*
X281698Y252447D01*
X282203Y251789D01*
X282860Y251284D01*
X283627Y250967D01*
X284449Y250859D01*
X285271Y250967D01*
X286037Y251284D01*
X286695Y251789D01*
X287200Y252447D01*
X287517Y253213D01*
X287626Y254035D01*
X287517Y254858D01*
X287403Y255133D01*
X315987Y283717D01*
X316272Y284143D01*
X316372Y284646D01*
Y330910D01*
X316762Y331171D01*
X317284Y331952D01*
X317467Y332874D01*
X317284Y333796D01*
X316762Y334577D01*
X315981Y335099D01*
X315059Y335282D01*
D02*
G37*
G36*
X405807Y276523D02*
X404885Y276339D01*
X404104Y275817D01*
X403582Y275036D01*
X403399Y274114D01*
X403582Y273193D01*
X404104Y272411D01*
X404885Y271889D01*
X405807Y271706D01*
X406729Y271889D01*
X407510Y272411D01*
X407709Y272709D01*
X420383D01*
X436408Y256684D01*
X436864Y256379D01*
X437402Y256272D01*
X449673D01*
X449872Y255974D01*
X450653Y255452D01*
X451575Y255269D01*
X452496Y255452D01*
X453278Y255974D01*
X453800Y256755D01*
X453983Y257677D01*
X453800Y258599D01*
X453278Y259380D01*
X452496Y259902D01*
X451575Y260086D01*
X450653Y259902D01*
X449872Y259380D01*
X449673Y259082D01*
X437984D01*
X421958Y275108D01*
X421502Y275412D01*
X420965Y275519D01*
X407709D01*
X407510Y275817D01*
X406729Y276339D01*
X405807Y276523D01*
D02*
G37*
G36*
X578051Y259087D02*
X574114D01*
X572802Y258958D01*
X571540Y258576D01*
X570378Y257954D01*
X569359Y257118D01*
X568522Y256099D01*
X567901Y254936D01*
X567518Y253674D01*
X567389Y252362D01*
X567518Y251050D01*
X567901Y249788D01*
X568522Y248626D01*
X569359Y247607D01*
X570378Y246770D01*
X571540Y246149D01*
X572802Y245766D01*
X574114Y245637D01*
X578051D01*
X579363Y245766D01*
X580625Y246149D01*
X581788Y246770D01*
X582807Y247607D01*
X583643Y248626D01*
X584265Y249788D01*
X584647Y251050D01*
X584776Y252362D01*
X584647Y253674D01*
X584265Y254936D01*
X583643Y256099D01*
X582807Y257118D01*
X581788Y257954D01*
X580625Y258576D01*
X579363Y258958D01*
X578051Y259087D01*
D02*
G37*
G36*
X356594Y284968D02*
X355772Y284860D01*
X355006Y284542D01*
X354348Y284038D01*
X353843Y283380D01*
X353526Y282613D01*
X353418Y281791D01*
X353526Y280969D01*
X353843Y280203D01*
X354348Y279545D01*
X355006Y279040D01*
X355772Y278723D01*
X356594Y278615D01*
X357417Y278723D01*
X358183Y279040D01*
X358841Y279545D01*
X359346Y280203D01*
X359663Y280969D01*
X359771Y281791D01*
X359663Y282613D01*
X359346Y283380D01*
X358841Y284038D01*
X358183Y284542D01*
X357417Y284860D01*
X356594Y284968D01*
D02*
G37*
G36*
X325590Y281523D02*
X324768Y281415D01*
X324002Y281098D01*
X323344Y280593D01*
X322839Y279935D01*
X322522Y279169D01*
X322414Y278346D01*
X322522Y277524D01*
X322839Y276758D01*
X323344Y276100D01*
X324002Y275595D01*
X324768Y275278D01*
X325590Y275170D01*
X326413Y275278D01*
X327179Y275595D01*
X327837Y276100D01*
X328342Y276758D01*
X328659Y277524D01*
X328767Y278346D01*
X328659Y279169D01*
X328342Y279935D01*
X327837Y280593D01*
X327179Y281098D01*
X326413Y281415D01*
X325590Y281523D01*
D02*
G37*
G36*
X578051Y278772D02*
X574114D01*
X572802Y278643D01*
X571540Y278261D01*
X570378Y277639D01*
X569359Y276803D01*
X568522Y275784D01*
X567901Y274621D01*
X567518Y273359D01*
X567389Y272047D01*
X567518Y270735D01*
X567901Y269474D01*
X568522Y268311D01*
X569359Y267292D01*
X570378Y266455D01*
X571540Y265834D01*
X572802Y265451D01*
X574114Y265322D01*
X578051D01*
X579363Y265451D01*
X580625Y265834D01*
X581788Y266455D01*
X582807Y267292D01*
X583643Y268311D01*
X584265Y269474D01*
X584647Y270735D01*
X584776Y272047D01*
X584647Y273359D01*
X584265Y274621D01*
X583643Y275784D01*
X582807Y276803D01*
X581788Y277639D01*
X580625Y278261D01*
X579363Y278643D01*
X578051Y278772D01*
D02*
G37*
G36*
X421063Y269141D02*
X420141Y268957D01*
X419360Y268435D01*
X418838Y267654D01*
X418654Y266732D01*
X418838Y265811D01*
X419360Y265029D01*
X420141Y264507D01*
X421063Y264324D01*
X421533Y264417D01*
X443873Y242078D01*
Y169390D01*
X443972Y168891D01*
X444255Y168467D01*
X449457Y163265D01*
X449363Y162795D01*
X449546Y161874D01*
X450069Y161092D01*
X450850Y160570D01*
X451772Y160387D01*
X452693Y160570D01*
X453475Y161092D01*
X453997Y161874D01*
X454180Y162795D01*
X453997Y163717D01*
X453475Y164498D01*
X452693Y165020D01*
X451772Y165204D01*
X451302Y165110D01*
X446482Y169930D01*
Y242618D01*
X446382Y243117D01*
X446100Y243541D01*
X423378Y266262D01*
X423471Y266732D01*
X423288Y267654D01*
X422766Y268435D01*
X421985Y268957D01*
X421063Y269141D01*
D02*
G37*
G36*
X250197Y151509D02*
X246260D01*
X244948Y151380D01*
X243686Y150997D01*
X242524Y150375D01*
X241504Y149539D01*
X240668Y148520D01*
X240047Y147357D01*
X239664Y146096D01*
X239534Y144783D01*
X239664Y143471D01*
X240047Y142210D01*
X240668Y141047D01*
X241504Y140028D01*
X242524Y139192D01*
X243686Y138570D01*
X244948Y138187D01*
X246260Y138058D01*
X250197D01*
X251509Y138187D01*
X252770Y138570D01*
X253933Y139192D01*
X254952Y140028D01*
X255789Y141047D01*
X256410Y142210D01*
X256793Y143471D01*
X256922Y144783D01*
X256793Y146096D01*
X256410Y147357D01*
X255789Y148520D01*
X254952Y149539D01*
X253933Y150375D01*
X252770Y150997D01*
X251509Y151380D01*
X250197Y151509D01*
D02*
G37*
G36*
X427264Y148851D02*
X425952Y148722D01*
X424690Y148339D01*
X423527Y147718D01*
X422508Y146881D01*
X421672Y145862D01*
X421050Y144700D01*
X420668Y143438D01*
X420539Y142126D01*
Y138189D01*
X420668Y136877D01*
X421050Y135615D01*
X421672Y134453D01*
X422508Y133433D01*
X423527Y132597D01*
X424690Y131976D01*
X425952Y131593D01*
X427264Y131464D01*
X428576Y131593D01*
X429837Y131976D01*
X431000Y132597D01*
X432019Y133433D01*
X432856Y134453D01*
X433477Y135615D01*
X433860Y136877D01*
X433989Y138189D01*
Y142126D01*
X433860Y143438D01*
X433477Y144700D01*
X432856Y145862D01*
X432019Y146881D01*
X431000Y147718D01*
X429837Y148339D01*
X428576Y148722D01*
X427264Y148851D01*
D02*
G37*
G36*
X578051Y239402D02*
X574114D01*
X572802Y239273D01*
X571540Y238891D01*
X570378Y238269D01*
X569359Y237433D01*
X568522Y236414D01*
X567901Y235251D01*
X567518Y233989D01*
X567389Y232677D01*
X567518Y231365D01*
X567901Y230103D01*
X568522Y228941D01*
X569359Y227922D01*
X570378Y227085D01*
X571540Y226464D01*
X572802Y226081D01*
X574114Y225952D01*
X578051D01*
X579363Y226081D01*
X580625Y226464D01*
X581788Y227085D01*
X582807Y227922D01*
X583643Y228941D01*
X584265Y230103D01*
X584647Y231365D01*
X584776Y232677D01*
X584647Y233989D01*
X584265Y235251D01*
X583643Y236414D01*
X582807Y237433D01*
X581788Y238269D01*
X580625Y238891D01*
X579363Y239273D01*
X578051Y239402D01*
D02*
G37*
G36*
X574902Y207311D02*
X574079Y207202D01*
X573313Y206885D01*
X572655Y206380D01*
X572150Y205722D01*
X571833Y204956D01*
X571725Y204134D01*
X571833Y203312D01*
X572150Y202545D01*
X572655Y201887D01*
X573313Y201383D01*
X574079Y201065D01*
X574902Y200957D01*
X575724Y201065D01*
X576490Y201383D01*
X577148Y201887D01*
X577653Y202545D01*
X577970Y203312D01*
X578078Y204134D01*
X577970Y204956D01*
X577653Y205722D01*
X577148Y206380D01*
X576490Y206885D01*
X575724Y207202D01*
X574902Y207311D01*
D02*
G37*
G36*
X417520Y308609D02*
X416598Y308426D01*
X415817Y307904D01*
X415295Y307122D01*
X415111Y306201D01*
X415295Y305279D01*
X415817Y304498D01*
X416598Y303976D01*
X417520Y303792D01*
X417908Y303870D01*
X481077Y240700D01*
Y185237D01*
X480679Y184971D01*
X480157Y184189D01*
X479973Y183268D01*
X480157Y182346D01*
X480679Y181565D01*
X481460Y181043D01*
X482382Y180859D01*
X483304Y181043D01*
X484085Y181565D01*
X484607Y182346D01*
X484790Y183268D01*
X484607Y184189D01*
X484085Y184971D01*
X483686Y185237D01*
Y241240D01*
X483587Y241739D01*
X483304Y242163D01*
X419818Y305649D01*
X419928Y306201D01*
X419745Y307122D01*
X419223Y307904D01*
X418441Y308426D01*
X417520Y308609D01*
D02*
G37*
G36*
X369685Y379869D02*
X368763Y379686D01*
X367982Y379164D01*
X367460Y378382D01*
X367277Y377461D01*
X367460Y376539D01*
X367982Y375758D01*
X368280Y375558D01*
Y344882D01*
X368387Y344344D01*
X368692Y343888D01*
X413311Y299269D01*
X413241Y298917D01*
X413424Y297996D01*
X413947Y297214D01*
X414728Y296692D01*
X415650Y296509D01*
X416571Y296692D01*
X417353Y297214D01*
X417875Y297996D01*
X418058Y298917D01*
X417875Y299839D01*
X417353Y300620D01*
X416571Y301143D01*
X415650Y301326D01*
X415298Y301256D01*
X371090Y345464D01*
Y369898D01*
X371590Y370050D01*
X371722Y369852D01*
X372020Y369653D01*
Y364370D01*
X372127Y363832D01*
X372432Y363377D01*
X416559Y319249D01*
X416489Y318898D01*
X416673Y317976D01*
X417195Y317195D01*
X417976Y316672D01*
X418898Y316489D01*
X419819Y316672D01*
X420601Y317195D01*
X421123Y317976D01*
X421306Y318898D01*
X421123Y319819D01*
X420601Y320601D01*
X419819Y321123D01*
X418898Y321306D01*
X418546Y321236D01*
X413670Y326112D01*
X413954Y326536D01*
X414138Y326459D01*
X414961Y326351D01*
X415783Y326459D01*
X416549Y326776D01*
X417207Y327281D01*
X417712Y327939D01*
X418029Y328705D01*
X418137Y329528D01*
X418029Y330350D01*
X417712Y331116D01*
X417207Y331774D01*
X417193Y331987D01*
X417547Y332355D01*
X433276D01*
X484177Y281454D01*
X484107Y281102D01*
X484291Y280181D01*
X484813Y279399D01*
X485594Y278877D01*
X486516Y278694D01*
X487437Y278877D01*
X488219Y279399D01*
X488741Y280181D01*
X488924Y281102D01*
X488741Y282024D01*
X488219Y282805D01*
X487437Y283328D01*
X486516Y283511D01*
X486164Y283441D01*
X434852Y334753D01*
X434396Y335058D01*
X433858Y335165D01*
X416929D01*
X416392Y335058D01*
X415936Y334753D01*
X413967Y332785D01*
X413727Y332426D01*
X413372Y332279D01*
X412714Y331774D01*
X412210Y331116D01*
X411892Y330350D01*
X411784Y329528D01*
X411892Y328705D01*
X411969Y328521D01*
X411545Y328238D01*
X374830Y364952D01*
Y369653D01*
X375128Y369852D01*
X375650Y370633D01*
X375834Y371555D01*
X375650Y372477D01*
X375128Y373258D01*
X374347Y373780D01*
X373425Y373964D01*
X372503Y373780D01*
X371722Y373258D01*
X371590Y373060D01*
X371090Y373212D01*
Y375558D01*
X371388Y375758D01*
X371910Y376539D01*
X372094Y377461D01*
X371910Y378382D01*
X371388Y379164D01*
X370607Y379686D01*
X369685Y379869D01*
D02*
G37*
G36*
X417598Y376509D02*
X416622Y376380D01*
X415712Y376003D01*
X414931Y375404D01*
X414331Y374622D01*
X413954Y373713D01*
X413826Y372736D01*
X413954Y371760D01*
X414331Y370850D01*
X414931Y370069D01*
X415712Y369469D01*
X416622Y369092D01*
X417598Y368964D01*
X418575Y369092D01*
X419485Y369469D01*
X420266Y370069D01*
X420865Y370850D01*
X421242Y371760D01*
X421371Y372736D01*
X421242Y373713D01*
X420865Y374622D01*
X420266Y375404D01*
X419485Y376003D01*
X418575Y376380D01*
X417598Y376509D01*
D02*
G37*
G36*
X397598D02*
X396622Y376380D01*
X395712Y376003D01*
X394931Y375404D01*
X394331Y374622D01*
X393954Y373713D01*
X393826Y372736D01*
X393954Y371760D01*
X394331Y370850D01*
X394931Y370069D01*
X395712Y369469D01*
X396622Y369092D01*
X397598Y368964D01*
X398575Y369092D01*
X399485Y369469D01*
X400266Y370069D01*
X400865Y370850D01*
X401242Y371760D01*
X401371Y372736D01*
X401242Y373713D01*
X400865Y374622D01*
X400266Y375404D01*
X399485Y376003D01*
X398575Y376380D01*
X397598Y376509D01*
D02*
G37*
G36*
X387598D02*
X386622Y376380D01*
X385712Y376003D01*
X384931Y375404D01*
X384331Y374622D01*
X383955Y373713D01*
X383826Y372736D01*
X383955Y371760D01*
X384331Y370850D01*
X384931Y370069D01*
X385712Y369469D01*
X386622Y369092D01*
X387598Y368964D01*
X388575Y369092D01*
X389485Y369469D01*
X390266Y370069D01*
X390865Y370850D01*
X391242Y371760D01*
X391371Y372736D01*
X391242Y373713D01*
X390865Y374622D01*
X390266Y375404D01*
X389485Y376003D01*
X388575Y376380D01*
X387598Y376509D01*
D02*
G37*
G36*
X416437Y398373D02*
X415515Y398190D01*
X414734Y397668D01*
X414535Y397370D01*
X339764D01*
X339226Y397263D01*
X338770Y396958D01*
X334833Y393021D01*
X334529Y392565D01*
X334422Y392028D01*
Y283760D01*
X334529Y283222D01*
X334833Y282766D01*
X354420Y263180D01*
X354876Y262875D01*
X355413Y262768D01*
X378839D01*
X379376Y262875D01*
X379832Y263180D01*
X386656Y270004D01*
X387008Y269934D01*
X387930Y270117D01*
X388711Y270639D01*
X389233Y271421D01*
X389416Y272342D01*
X389233Y273264D01*
X388711Y274046D01*
X387930Y274568D01*
X387008Y274751D01*
X386086Y274568D01*
X385305Y274046D01*
X384783Y273264D01*
X384599Y272342D01*
X384669Y271991D01*
X378257Y265578D01*
X359974D01*
X359823Y266078D01*
X360168Y266309D01*
X360690Y267090D01*
X360873Y268012D01*
X360690Y268934D01*
X360168Y269715D01*
X359386Y270237D01*
X358465Y270420D01*
X358113Y270350D01*
X350716Y277747D01*
Y300519D01*
X350899Y300595D01*
X351557Y301100D01*
X352062Y301758D01*
X352380Y302524D01*
X352488Y303346D01*
X352380Y304169D01*
X352062Y304935D01*
X351557Y305593D01*
X350899Y306098D01*
X350133Y306415D01*
X349311Y306523D01*
X348489Y306415D01*
X347723Y306098D01*
X347065Y305593D01*
X346560Y304935D01*
X346242Y304169D01*
X346134Y303346D01*
X346242Y302524D01*
X346560Y301758D01*
X347065Y301100D01*
X347723Y300595D01*
X347906Y300519D01*
Y277165D01*
X348013Y276628D01*
X348318Y276172D01*
X356126Y268363D01*
X356056Y268012D01*
X356239Y267090D01*
X356762Y266309D01*
X357107Y266078D01*
X356955Y265578D01*
X355995D01*
X337232Y284342D01*
Y391446D01*
X340346Y394560D01*
X361726D01*
X361825Y394060D01*
X361480Y393917D01*
X360699Y393317D01*
X360099Y392536D01*
X359722Y391626D01*
X359594Y390650D01*
X359722Y389673D01*
X360099Y388763D01*
X360699Y387982D01*
X361480Y387383D01*
X362390Y387006D01*
X363366Y386877D01*
X364342Y387006D01*
X365252Y387383D01*
X366034Y387982D01*
X366633Y388763D01*
X367010Y389673D01*
X367139Y390650D01*
X367010Y391626D01*
X366633Y392536D01*
X366034Y393317D01*
X365252Y393917D01*
X364907Y394060D01*
X365007Y394560D01*
X371726D01*
X371825Y394060D01*
X371480Y393917D01*
X370699Y393317D01*
X370099Y392536D01*
X369722Y391626D01*
X369594Y390650D01*
X369722Y389673D01*
X370099Y388763D01*
X370699Y387982D01*
X371480Y387383D01*
X372390Y387006D01*
X373366Y386877D01*
X374342Y387006D01*
X375252Y387383D01*
X376034Y387982D01*
X376633Y388763D01*
X377010Y389673D01*
X377139Y390650D01*
X377010Y391626D01*
X376633Y392536D01*
X376034Y393317D01*
X375252Y393917D01*
X374907Y394060D01*
X375007Y394560D01*
X381726D01*
X381825Y394060D01*
X381480Y393917D01*
X380699Y393317D01*
X380099Y392536D01*
X379722Y391626D01*
X379594Y390650D01*
X379722Y389673D01*
X380099Y388763D01*
X380699Y387982D01*
X381480Y387383D01*
X382390Y387006D01*
X383366Y386877D01*
X384343Y387006D01*
X385252Y387383D01*
X386034Y387982D01*
X386633Y388763D01*
X387010Y389673D01*
X387139Y390650D01*
X387010Y391626D01*
X386633Y392536D01*
X386034Y393317D01*
X385252Y393917D01*
X384907Y394060D01*
X385007Y394560D01*
X414535D01*
X414734Y394262D01*
X415515Y393739D01*
X416437Y393556D01*
X417359Y393739D01*
X417997Y394166D01*
X448196D01*
X448395Y393868D01*
X449177Y393346D01*
X450098Y393162D01*
X451020Y393346D01*
X451801Y393868D01*
X452324Y394649D01*
X452507Y395571D01*
X452324Y396493D01*
X451801Y397274D01*
X451020Y397796D01*
X450098Y397979D01*
X449177Y397796D01*
X448395Y397274D01*
X448196Y396976D01*
X418602D01*
X418140Y397668D01*
X417359Y398190D01*
X416437Y398373D01*
D02*
G37*
G36*
X360138Y379967D02*
X359216Y379784D01*
X358435Y379262D01*
X357913Y378481D01*
X357729Y377559D01*
X357799Y377207D01*
X355995Y375403D01*
X355690Y374947D01*
X355583Y374410D01*
Y295800D01*
X355285Y295601D01*
X354763Y294819D01*
X354580Y293898D01*
X354763Y292976D01*
X355285Y292195D01*
X356066Y291672D01*
X356988Y291489D01*
X357910Y291672D01*
X358691Y292195D01*
X358890Y292493D01*
X374673D01*
X374926Y292323D01*
X411184Y256066D01*
X411607Y255783D01*
X412106Y255684D01*
X418096D01*
X418213Y255400D01*
X418718Y254742D01*
X419376Y254237D01*
X420142Y253920D01*
X420965Y253811D01*
X421787Y253920D01*
X422553Y254237D01*
X423211Y254742D01*
X423716Y255400D01*
X424033Y256166D01*
X424141Y256988D01*
X424033Y257810D01*
X423716Y258577D01*
X423211Y259234D01*
X422553Y259739D01*
X421787Y260057D01*
X420965Y260165D01*
X420142Y260057D01*
X419376Y259739D01*
X418718Y259234D01*
X418213Y258577D01*
X418096Y258293D01*
X412647D01*
X376771Y294168D01*
X376486Y294596D01*
X376190Y294891D01*
X375734Y295196D01*
X375197Y295303D01*
X358890D01*
X358691Y295601D01*
X358393Y295800D01*
Y373828D01*
X359786Y375220D01*
X360138Y375151D01*
X361059Y375334D01*
X361841Y375856D01*
X362363Y376637D01*
X362546Y377559D01*
X362363Y378481D01*
X361841Y379262D01*
X361059Y379784D01*
X360138Y379967D01*
D02*
G37*
G36*
X297146Y378866D02*
X296323Y378758D01*
X295557Y378440D01*
X294899Y377935D01*
X294394Y377277D01*
X294319Y377094D01*
X279528D01*
X278990Y376987D01*
X278534Y376682D01*
X272924Y371072D01*
X272619Y370616D01*
X272512Y370079D01*
Y327001D01*
X272214Y326801D01*
X271692Y326020D01*
X271509Y325098D01*
X271692Y324177D01*
X272214Y323395D01*
X272996Y322873D01*
X273917Y322690D01*
X274839Y322873D01*
X275620Y323395D01*
X276143Y324177D01*
X276326Y325098D01*
X276143Y326020D01*
X275620Y326801D01*
X275322Y327001D01*
Y369497D01*
X280110Y374284D01*
X294319D01*
X294394Y374101D01*
X294899Y373443D01*
X295557Y372938D01*
X296323Y372620D01*
X297146Y372512D01*
X297968Y372620D01*
X298734Y372938D01*
X299392Y373443D01*
X299897Y374101D01*
X300214Y374867D01*
X300322Y375689D01*
X300214Y376511D01*
X299897Y377277D01*
X299392Y377935D01*
X298734Y378440D01*
X297968Y378758D01*
X297146Y378866D01*
D02*
G37*
G36*
X461122Y407330D02*
X460200Y407146D01*
X459419Y406624D01*
X458897Y405843D01*
X458714Y404921D01*
X458897Y404000D01*
X459419Y403218D01*
X459717Y403019D01*
Y371547D01*
X456111Y367940D01*
X432217D01*
X432018Y368238D01*
X431237Y368761D01*
X430315Y368944D01*
X429393Y368761D01*
X428612Y368238D01*
X428090Y367457D01*
X427907Y366535D01*
X428090Y365614D01*
X428612Y364832D01*
X429393Y364310D01*
X430315Y364127D01*
X431237Y364310D01*
X432018Y364832D01*
X432217Y365130D01*
X456693D01*
X457231Y365237D01*
X457686Y365542D01*
X462115Y369971D01*
X462420Y370427D01*
X462527Y370965D01*
Y403019D01*
X462825Y403218D01*
X463347Y404000D01*
X463530Y404921D01*
X463347Y405843D01*
X462825Y406624D01*
X462044Y407146D01*
X461122Y407330D01*
D02*
G37*
G36*
X430118Y330558D02*
X429196Y330375D01*
X428415Y329853D01*
X427893Y329071D01*
X427710Y328150D01*
X427893Y327228D01*
X428415Y326447D01*
X428713Y326247D01*
Y321489D01*
X428415Y321290D01*
X427893Y320508D01*
X427710Y319587D01*
X427893Y318665D01*
X428415Y317884D01*
X429196Y317361D01*
X430118Y317178D01*
X431040Y317361D01*
X431821Y317884D01*
X432343Y318665D01*
X432527Y319587D01*
X432343Y320508D01*
X431821Y321290D01*
X431523Y321489D01*
Y326247D01*
X431821Y326447D01*
X432343Y327228D01*
X432527Y328150D01*
X432343Y329071D01*
X431821Y329853D01*
X431040Y330375D01*
X430118Y330558D01*
D02*
G37*
G36*
X330413Y338826D02*
X329492Y338643D01*
X328710Y338120D01*
X328188Y337339D01*
X328005Y336417D01*
X328188Y335496D01*
X328710Y334714D01*
X329008Y334515D01*
Y313969D01*
X328553Y313804D01*
X328177Y314084D01*
Y328543D01*
X328070Y329081D01*
X327765Y329537D01*
X323106Y334196D01*
X323176Y334547D01*
X322993Y335469D01*
X322471Y336250D01*
X321689Y336772D01*
X320768Y336956D01*
X319846Y336772D01*
X319065Y336250D01*
X318543Y335469D01*
X318359Y334547D01*
X318543Y333626D01*
X319065Y332844D01*
X319846Y332322D01*
X320768Y332139D01*
X321119Y332209D01*
X325367Y327961D01*
Y314008D01*
X325069Y313809D01*
X324547Y313028D01*
X324363Y312106D01*
X324547Y311185D01*
X325069Y310403D01*
X325850Y309881D01*
X326772Y309698D01*
X327693Y309881D01*
X328475Y310403D01*
X328508Y310454D01*
X329008Y310302D01*
Y305503D01*
X327714Y304209D01*
X327362Y304278D01*
X326441Y304095D01*
X325659Y303573D01*
X325137Y302792D01*
X324954Y301870D01*
X325137Y300948D01*
X325659Y300167D01*
X326441Y299645D01*
X327362Y299462D01*
X328284Y299645D01*
X329065Y300167D01*
X329587Y300948D01*
X329771Y301870D01*
X329701Y302222D01*
X331407Y303928D01*
X331711Y304384D01*
X331818Y304921D01*
Y334515D01*
X332116Y334714D01*
X332639Y335496D01*
X332822Y336417D01*
X332639Y337339D01*
X332116Y338120D01*
X331335Y338643D01*
X330413Y338826D01*
D02*
G37*
G36*
X397638Y285873D02*
X396716Y285690D01*
X395935Y285168D01*
X395413Y284386D01*
X395229Y283465D01*
X395413Y282543D01*
X395935Y281762D01*
X396716Y281239D01*
X397638Y281056D01*
X397989Y281126D01*
X398711Y280404D01*
X399167Y280100D01*
X399705Y279993D01*
X432153D01*
X432352Y279695D01*
X433133Y279172D01*
X434055Y278989D01*
X434977Y279172D01*
X435758Y279695D01*
X436280Y280476D01*
X436464Y281398D01*
X436280Y282319D01*
X435758Y283101D01*
X434977Y283623D01*
X434055Y283806D01*
X433133Y283623D01*
X432352Y283101D01*
X432153Y282803D01*
X400324D01*
X399990Y283179D01*
X400046Y283465D01*
X399863Y284386D01*
X399341Y285168D01*
X398559Y285690D01*
X397638Y285873D01*
D02*
G37*
G36*
X576378Y346484D02*
X575556Y346376D01*
X574790Y346058D01*
X574132Y345553D01*
X573627Y344896D01*
X573309Y344129D01*
X573201Y343307D01*
X573309Y342485D01*
X573627Y341719D01*
X574132Y341061D01*
X574790Y340556D01*
X575556Y340239D01*
X576378Y340130D01*
X577200Y340239D01*
X577966Y340556D01*
X578624Y341061D01*
X579129Y341719D01*
X579447Y342485D01*
X579555Y343307D01*
X579447Y344129D01*
X579129Y344896D01*
X578624Y345553D01*
X577966Y346058D01*
X577200Y346376D01*
X576378Y346484D01*
D02*
G37*
G36*
X279921Y359003D02*
X279000Y358820D01*
X278218Y358297D01*
X277696Y357516D01*
X277513Y356594D01*
X277696Y355673D01*
X278218Y354891D01*
X279000Y354369D01*
X279921Y354186D01*
X280843Y354369D01*
X281169Y354587D01*
X302121D01*
X304489Y352220D01*
Y324280D01*
X304271Y323953D01*
X304088Y323031D01*
X304271Y322110D01*
X304793Y321328D01*
X305574Y320806D01*
X306496Y320623D01*
X307418Y320806D01*
X308199Y321328D01*
X308721Y322110D01*
X308905Y323031D01*
X308721Y323953D01*
X308503Y324280D01*
Y353051D01*
X308350Y353819D01*
X307915Y354470D01*
X304372Y358014D01*
X303721Y358449D01*
X302953Y358602D01*
X281169D01*
X280843Y358820D01*
X279921Y359003D01*
D02*
G37*
G36*
X341929Y374338D02*
X341107Y374230D01*
X340341Y373913D01*
X339683Y373408D01*
X339178Y372750D01*
X338861Y371984D01*
X338752Y371161D01*
X338861Y370339D01*
X339178Y369573D01*
X339683Y368915D01*
X340341Y368410D01*
X341107Y368093D01*
X341312Y368066D01*
Y321883D01*
X341014Y321683D01*
X340491Y320902D01*
X340308Y319980D01*
X340491Y319059D01*
X341014Y318277D01*
X341795Y317755D01*
X342717Y317572D01*
X343638Y317755D01*
X344420Y318277D01*
X344942Y319059D01*
X345125Y319980D01*
X344942Y320902D01*
X344420Y321683D01*
X344122Y321883D01*
Y368874D01*
X344176Y368915D01*
X344680Y369573D01*
X344998Y370339D01*
X345106Y371161D01*
X344998Y371984D01*
X344680Y372750D01*
X344176Y373408D01*
X343517Y373913D01*
X342751Y374230D01*
X341929Y374338D01*
D02*
G37*
%LPD*%
D32*
X445177Y169390D02*
Y242618D01*
X421063Y266732D02*
X445177Y242618D01*
X417520Y306102D02*
Y306201D01*
Y306102D02*
X482382Y241240D01*
X412106Y256988D02*
X420965D01*
X375492Y293602D02*
X412106Y256988D01*
X482382Y183268D02*
Y241240D01*
X445177Y169390D02*
X451772Y162795D01*
D33*
X356988Y293898D02*
Y374410D01*
X360138Y377559D01*
X433858Y333760D02*
X486516Y281102D01*
X416929Y333760D02*
X433858D01*
X414961Y331791D02*
X416929Y333760D01*
X414961Y329528D02*
Y331791D01*
X430118Y319587D02*
Y328150D01*
X375197Y293898D02*
X375492Y293602D01*
X356988Y293898D02*
X375197D01*
X461122Y370965D02*
Y404921D01*
X456693Y366535D02*
X461122Y370965D01*
X430315Y366535D02*
X456693D01*
X335827Y392028D02*
X339764Y395965D01*
X416437D01*
X416831Y395571D01*
X450098D01*
X305512Y323031D02*
X306496D01*
X373425Y364370D02*
X418898Y318898D01*
X373425Y364370D02*
Y371555D01*
X369685Y344882D02*
X415650Y298917D01*
X369685Y344882D02*
Y377461D01*
X378839Y264173D02*
X387008Y272342D01*
X342717Y319980D02*
Y370374D01*
X341929Y371161D02*
X342717Y370374D01*
X349311Y277165D02*
X358465Y268012D01*
X349311Y277165D02*
Y303346D01*
X320768Y334547D02*
X326772Y328543D01*
Y312106D02*
Y328543D01*
X330413Y304921D02*
Y336417D01*
X327362Y301870D02*
X330413Y304921D01*
X335827Y283760D02*
Y392028D01*
Y283760D02*
X355413Y264173D01*
X378839D01*
X273917Y325098D02*
Y370079D01*
X279528Y375689D01*
X297146D01*
X405807Y274114D02*
X420965D01*
X437402Y257677D01*
X451575D01*
X399705Y281398D02*
X434055D01*
X397638Y283465D02*
X399705Y281398D01*
D36*
X279921Y356594D02*
X302953D01*
X306496Y353051D01*
Y323031D02*
Y353051D01*
D39*
X315059Y284646D02*
Y332874D01*
X284449Y254035D02*
X315059Y284646D01*
D43*
X297146Y375689D02*
D03*
X349311Y303346D02*
D03*
X284449Y254035D02*
D03*
X325590Y278346D02*
D03*
X341929Y371161D02*
D03*
X574902Y204134D02*
D03*
X576378Y343307D02*
D03*
X420965Y256988D02*
D03*
X449803Y379331D02*
D03*
X414961Y329528D02*
D03*
X356594Y281791D02*
D03*
D44*
X397598Y372736D02*
D03*
X387598D02*
D03*
X407598D02*
D03*
X417598D02*
D03*
X373366Y390650D02*
D03*
X363366Y390650D02*
D03*
X383366Y390650D02*
D03*
X393366D02*
D03*
D45*
X248228Y125098D02*
D03*
Y144783D02*
D03*
X576083Y232677D02*
D03*
Y252362D02*
D03*
Y272047D02*
D03*
D46*
X407579Y140157D02*
D03*
X427264D02*
D03*
D47*
X430118Y319587D02*
D03*
Y328150D02*
D03*
X421063Y266732D02*
D03*
X356988Y293898D02*
D03*
X461122Y404921D02*
D03*
X430315Y366535D02*
D03*
X450098Y395571D02*
D03*
X417520Y306201D02*
D03*
X387008Y272342D02*
D03*
X358465Y268012D02*
D03*
X451575Y257677D02*
D03*
X451772Y162795D02*
D03*
X416437Y395965D02*
D03*
X415650Y298917D02*
D03*
X482382Y183268D02*
D03*
X306496Y323031D02*
D03*
X279921Y356594D02*
D03*
X315059Y332874D02*
D03*
X320768Y334547D02*
D03*
X326772Y312106D02*
D03*
X330413Y336417D02*
D03*
X327362Y301870D02*
D03*
X373425Y371555D02*
D03*
X369685Y377461D02*
D03*
X360138Y377559D02*
D03*
X405807Y274114D02*
D03*
X486516Y281102D02*
D03*
X418898Y318898D02*
D03*
X364764Y274508D02*
D03*
X342717Y319980D02*
D03*
X361319Y367815D02*
D03*
X273917Y325098D02*
D03*
X271555Y258661D02*
D03*
X296260Y230512D02*
D03*
X377559Y232382D02*
D03*
X406102Y238484D02*
D03*
X460236Y352559D02*
D03*
X432185Y237894D02*
D03*
X457874Y191043D02*
D03*
X457677Y315748D02*
D03*
X303051Y290846D02*
D03*
X365551Y330610D02*
D03*
X283858Y335925D02*
D03*
X434055Y281398D02*
D03*
X397638Y283465D02*
D03*
M02*
