M48
;Layer_Color=9474304
;FILE_FORMAT=2:5
INCH,TZ
;TYPE=PLATED
T1F00S00C0.01575
T2F00S00C0.03150
T3F00S00C0.04331
T4F00S00C0.04724
%
T01
X482382Y183268
X486516Y281102
X434055Y281398
X421063Y266732
X405807Y274114
X397638Y283465
X387008Y272342
X364764Y274508
X358465Y268012
X356988Y293898
X327362Y301870
X326772Y312106
X417520Y306201
X415650Y298917
X406102Y238484
X432185Y237894
X451575Y257677
X457874Y191043
X451772Y162795
X377559Y232382
X296260Y230512
X271555Y258661
X303051Y290846
X306496Y323031
X273917Y325098
X283858Y335925
X279921Y356594
X315059Y332874
X320768Y334547
X330413Y336417
X342717Y319980
X365551Y330610
X361319Y367815
X360138Y377559
X369685Y377461
X373425Y371555
X430315Y366535
X430118Y328150
Y319587
X418898Y318898
X457677Y315748
X460236Y352559
X450098Y395571
X461122Y404921
X416437Y395965
T02
X574902Y204134
X420965Y256988
X356594Y281791
X349311Y303346
X325590Y278346
X284449Y254035
X297146Y375689
X341929Y371161
X414961Y329528
X449803Y379331
X576378Y343307
T03
X363366Y390650
X373366Y390650
X383366
X393366
X397598Y372736
X387598
X407598
X417598
T04
X248228Y125098
Y144783
X407579Y140157
X427264
X576083Y232677
Y252362
Y272047
M30
